<mxfile host="Electron" modified="2023-11-12T11:25:25.577Z" agent="Mozilla/5.0 (X11; Linux x86_64) AppleWebKit/537.36 (KHTML, like Gecko) draw.io/22.0.3 Chrome/114.0.5735.289 Electron/25.8.4 Safari/537.36" etag="B9KGk_ASKbZDno3kvFzH" version="22.0.3" type="device" pages="12">
  <diagram name="Page-1" id="aoaadHJPdRfZ2kOWUaQ6">
    <mxGraphModel dx="2954" dy="1203" grid="1" gridSize="10" guides="1" tooltips="1" connect="1" arrows="1" fold="1" page="1" pageScale="1" pageWidth="1654" pageHeight="1169" math="0" shadow="0">
      <root>
        <mxCell id="0" />
        <mxCell id="1" parent="0" />
        <mxCell id="IoVJgnH_mc5_HNgBB8VL-17" value="Use" style="endArrow=open;endSize=12;dashed=1;html=1;exitX=1;exitY=0.5;exitDx=0;exitDy=0;" parent="1" source="IoVJgnH_mc5_HNgBB8VL-27" target="IoVJgnH_mc5_HNgBB8VL-20" edge="1">
          <mxGeometry width="160" relative="1" as="geometry">
            <mxPoint x="640" y="312" as="sourcePoint" />
            <mxPoint x="760" y="312" as="targetPoint" />
          </mxGeometry>
        </mxCell>
        <mxCell id="IoVJgnH_mc5_HNgBB8VL-18" value="«interface»&lt;br&gt;&lt;b&gt;MessageProvider&lt;/b&gt;" style="html=1;whiteSpace=wrap;fillColor=#d5e8d4;strokeColor=#82b366;" parent="1" vertex="1">
          <mxGeometry x="370" y="320" width="110" height="50" as="geometry" />
        </mxCell>
        <mxCell id="IoVJgnH_mc5_HNgBB8VL-19" value="" style="endArrow=block;dashed=1;endFill=0;endSize=12;html=1;" parent="1" source="IoVJgnH_mc5_HNgBB8VL-20" target="IoVJgnH_mc5_HNgBB8VL-18" edge="1">
          <mxGeometry width="160" relative="1" as="geometry">
            <mxPoint x="425" y="420" as="sourcePoint" />
            <mxPoint x="245" y="470" as="targetPoint" />
          </mxGeometry>
        </mxCell>
        <mxCell id="IoVJgnH_mc5_HNgBB8VL-20" value="MessagesCollector" style="swimlane;fontStyle=1;align=center;verticalAlign=top;childLayout=stackLayout;horizontal=1;startSize=26;horizontalStack=0;resizeParent=1;resizeParentMax=0;resizeLast=0;collapsible=1;marginBottom=0;whiteSpace=wrap;html=1;fillColor=#f8cecc;strokeColor=#b85450;" parent="1" vertex="1">
          <mxGeometry x="320" y="420" width="210" height="110" as="geometry" />
        </mxCell>
        <mxCell id="IoVJgnH_mc5_HNgBB8VL-21" value="+ instance: MessagesCollector" style="text;strokeColor=none;fillColor=none;align=left;verticalAlign=top;spacingLeft=4;spacingRight=4;overflow=hidden;rotatable=0;points=[[0,0.5],[1,0.5]];portConstraint=eastwest;whiteSpace=wrap;html=1;" parent="IoVJgnH_mc5_HNgBB8VL-20" vertex="1">
          <mxGeometry y="26" width="210" height="26" as="geometry" />
        </mxCell>
        <mxCell id="IoVJgnH_mc5_HNgBB8VL-22" value="" style="line;strokeWidth=1;fillColor=none;align=left;verticalAlign=middle;spacingTop=-1;spacingLeft=3;spacingRight=3;rotatable=0;labelPosition=right;points=[];portConstraint=eastwest;strokeColor=inherit;" parent="IoVJgnH_mc5_HNgBB8VL-20" vertex="1">
          <mxGeometry y="52" width="210" height="8" as="geometry" />
        </mxCell>
        <mxCell id="IoVJgnH_mc5_HNgBB8VL-23" value="+ get(): MessagesCollector&lt;br&gt;+ get_last_messages: list[Message]" style="text;strokeColor=none;fillColor=none;align=left;verticalAlign=top;spacingLeft=4;spacingRight=4;overflow=hidden;rotatable=0;points=[[0,0.5],[1,0.5]];portConstraint=eastwest;whiteSpace=wrap;html=1;" parent="IoVJgnH_mc5_HNgBB8VL-20" vertex="1">
          <mxGeometry y="60" width="210" height="50" as="geometry" />
        </mxCell>
        <mxCell id="IoVJgnH_mc5_HNgBB8VL-24" value="ReportStream" style="swimlane;fontStyle=1;align=center;verticalAlign=top;childLayout=stackLayout;horizontal=1;startSize=26;horizontalStack=0;resizeParent=1;resizeParentMax=0;resizeLast=0;collapsible=1;marginBottom=0;whiteSpace=wrap;html=1;fillColor=#dae8fc;strokeColor=#6c8ebf;" parent="1" vertex="1">
          <mxGeometry x="80" y="402" width="160" height="86" as="geometry" />
        </mxCell>
        <mxCell id="IoVJgnH_mc5_HNgBB8VL-25" value="+ out: IO" style="text;strokeColor=none;fillColor=none;align=left;verticalAlign=top;spacingLeft=4;spacingRight=4;overflow=hidden;rotatable=0;points=[[0,0.5],[1,0.5]];portConstraint=eastwest;whiteSpace=wrap;html=1;" parent="IoVJgnH_mc5_HNgBB8VL-24" vertex="1">
          <mxGeometry y="26" width="160" height="26" as="geometry" />
        </mxCell>
        <mxCell id="IoVJgnH_mc5_HNgBB8VL-26" value="" style="line;strokeWidth=1;fillColor=none;align=left;verticalAlign=middle;spacingTop=-1;spacingLeft=3;spacingRight=3;rotatable=0;labelPosition=right;points=[];portConstraint=eastwest;strokeColor=inherit;" parent="IoVJgnH_mc5_HNgBB8VL-24" vertex="1">
          <mxGeometry y="52" width="160" height="8" as="geometry" />
        </mxCell>
        <mxCell id="IoVJgnH_mc5_HNgBB8VL-27" value="+ report_last_message()" style="text;strokeColor=none;fillColor=none;align=left;verticalAlign=top;spacingLeft=4;spacingRight=4;overflow=hidden;rotatable=0;points=[[0,0.5],[1,0.5]];portConstraint=eastwest;whiteSpace=wrap;html=1;" parent="IoVJgnH_mc5_HNgBB8VL-24" vertex="1">
          <mxGeometry y="60" width="160" height="26" as="geometry" />
        </mxCell>
        <mxCell id="IoVJgnH_mc5_HNgBB8VL-39" value="Use" style="endArrow=open;endSize=12;dashed=1;html=1;exitX=0.989;exitY=0.115;exitDx=0;exitDy=0;exitPerimeter=0;entryX=0;entryY=0.5;entryDx=0;entryDy=0;" parent="1" source="IoVJgnH_mc5_HNgBB8VL-46" target="IoVJgnH_mc5_HNgBB8VL-40" edge="1">
          <mxGeometry width="160" relative="1" as="geometry">
            <mxPoint x="1190" y="312" as="sourcePoint" />
            <mxPoint x="1310" y="312" as="targetPoint" />
          </mxGeometry>
        </mxCell>
        <mxCell id="IoVJgnH_mc5_HNgBB8VL-40" value="«interface»&lt;br&gt;&lt;b&gt;MessageProvider&lt;/b&gt;" style="html=1;whiteSpace=wrap;fillColor=#d5e8d4;strokeColor=#82b366;" parent="1" vertex="1">
          <mxGeometry x="920" y="377" width="110" height="50" as="geometry" />
        </mxCell>
        <mxCell id="IoVJgnH_mc5_HNgBB8VL-41" value="" style="endArrow=block;dashed=1;endFill=0;endSize=12;html=1;" parent="1" source="IoVJgnH_mc5_HNgBB8VL-42" target="IoVJgnH_mc5_HNgBB8VL-40" edge="1">
          <mxGeometry width="160" relative="1" as="geometry">
            <mxPoint x="975" y="477" as="sourcePoint" />
            <mxPoint x="795" y="527" as="targetPoint" />
          </mxGeometry>
        </mxCell>
        <mxCell id="IoVJgnH_mc5_HNgBB8VL-42" value="MessagesCollector" style="swimlane;fontStyle=1;align=center;verticalAlign=top;childLayout=stackLayout;horizontal=1;startSize=26;horizontalStack=0;resizeParent=1;resizeParentMax=0;resizeLast=0;collapsible=1;marginBottom=0;whiteSpace=wrap;html=1;fillColor=#f8cecc;strokeColor=#b85450;" parent="1" vertex="1">
          <mxGeometry x="870" y="477" width="210" height="110" as="geometry" />
        </mxCell>
        <mxCell id="IoVJgnH_mc5_HNgBB8VL-43" value="+ instance: MessagesCollector" style="text;strokeColor=none;fillColor=none;align=left;verticalAlign=top;spacingLeft=4;spacingRight=4;overflow=hidden;rotatable=0;points=[[0,0.5],[1,0.5]];portConstraint=eastwest;whiteSpace=wrap;html=1;" parent="IoVJgnH_mc5_HNgBB8VL-42" vertex="1">
          <mxGeometry y="26" width="210" height="26" as="geometry" />
        </mxCell>
        <mxCell id="IoVJgnH_mc5_HNgBB8VL-44" value="" style="line;strokeWidth=1;fillColor=none;align=left;verticalAlign=middle;spacingTop=-1;spacingLeft=3;spacingRight=3;rotatable=0;labelPosition=right;points=[];portConstraint=eastwest;strokeColor=inherit;" parent="IoVJgnH_mc5_HNgBB8VL-42" vertex="1">
          <mxGeometry y="52" width="210" height="8" as="geometry" />
        </mxCell>
        <mxCell id="IoVJgnH_mc5_HNgBB8VL-45" value="+ get(): MessagesCollector&lt;br style=&quot;border-color: var(--border-color);&quot;&gt;+ get_last_messages: list[Message]" style="text;strokeColor=none;fillColor=none;align=left;verticalAlign=top;spacingLeft=4;spacingRight=4;overflow=hidden;rotatable=0;points=[[0,0.5],[1,0.5]];portConstraint=eastwest;whiteSpace=wrap;html=1;" parent="IoVJgnH_mc5_HNgBB8VL-42" vertex="1">
          <mxGeometry y="60" width="210" height="50" as="geometry" />
        </mxCell>
        <mxCell id="IoVJgnH_mc5_HNgBB8VL-46" value="ReportStream" style="swimlane;fontStyle=1;align=center;verticalAlign=top;childLayout=stackLayout;horizontal=1;startSize=26;horizontalStack=0;resizeParent=1;resizeParentMax=0;resizeLast=0;collapsible=1;marginBottom=0;whiteSpace=wrap;html=1;fillColor=#dae8fc;strokeColor=#6c8ebf;" parent="1" vertex="1">
          <mxGeometry x="630" y="390" width="180" height="104" as="geometry" />
        </mxCell>
        <mxCell id="IoVJgnH_mc5_HNgBB8VL-47" value="+ out: IO&lt;br&gt;+ provider: MessageProvider" style="text;strokeColor=none;fillColor=none;align=left;verticalAlign=top;spacingLeft=4;spacingRight=4;overflow=hidden;rotatable=0;points=[[0,0.5],[1,0.5]];portConstraint=eastwest;whiteSpace=wrap;html=1;" parent="IoVJgnH_mc5_HNgBB8VL-46" vertex="1">
          <mxGeometry y="26" width="180" height="44" as="geometry" />
        </mxCell>
        <mxCell id="IoVJgnH_mc5_HNgBB8VL-48" value="" style="line;strokeWidth=1;fillColor=none;align=left;verticalAlign=middle;spacingTop=-1;spacingLeft=3;spacingRight=3;rotatable=0;labelPosition=right;points=[];portConstraint=eastwest;strokeColor=inherit;" parent="IoVJgnH_mc5_HNgBB8VL-46" vertex="1">
          <mxGeometry y="70" width="180" height="8" as="geometry" />
        </mxCell>
        <mxCell id="IoVJgnH_mc5_HNgBB8VL-49" value="+ report_last_message()" style="text;strokeColor=none;fillColor=none;align=left;verticalAlign=top;spacingLeft=4;spacingRight=4;overflow=hidden;rotatable=0;points=[[0,0.5],[1,0.5]];portConstraint=eastwest;whiteSpace=wrap;html=1;" parent="IoVJgnH_mc5_HNgBB8VL-46" vertex="1">
          <mxGeometry y="78" width="180" height="26" as="geometry" />
        </mxCell>
        <mxCell id="CcMotJygJFhmUvNzj9k_-1" value="Use" style="endArrow=open;endSize=12;dashed=1;html=1;exitX=1;exitY=0.5;exitDx=0;exitDy=0;" parent="1" source="CcMotJygJFhmUvNzj9k_-9" target="CcMotJygJFhmUvNzj9k_-2" edge="1">
          <mxGeometry width="160" relative="1" as="geometry">
            <mxPoint x="640" y="10" as="sourcePoint" />
            <mxPoint x="760" y="10" as="targetPoint" />
          </mxGeometry>
        </mxCell>
        <mxCell id="CcMotJygJFhmUvNzj9k_-2" value="MessagesCollector" style="swimlane;fontStyle=1;align=center;verticalAlign=top;childLayout=stackLayout;horizontal=1;startSize=26;horizontalStack=0;resizeParent=1;resizeParentMax=0;resizeLast=0;collapsible=1;marginBottom=0;whiteSpace=wrap;html=1;fillColor=#f8cecc;strokeColor=#b85450;" parent="1" vertex="1">
          <mxGeometry x="320" y="131" width="250" height="84" as="geometry" />
        </mxCell>
        <mxCell id="CcMotJygJFhmUvNzj9k_-4" value="" style="line;strokeWidth=1;fillColor=none;align=left;verticalAlign=middle;spacingTop=-1;spacingLeft=3;spacingRight=3;rotatable=0;labelPosition=right;points=[];portConstraint=eastwest;strokeColor=inherit;" parent="CcMotJygJFhmUvNzj9k_-2" vertex="1">
          <mxGeometry y="26" width="250" height="8" as="geometry" />
        </mxCell>
        <mxCell id="CcMotJygJFhmUvNzj9k_-5" value="+ static get_last_messages: list[Message]" style="text;strokeColor=none;fillColor=none;align=left;verticalAlign=top;spacingLeft=4;spacingRight=4;overflow=hidden;rotatable=0;points=[[0,0.5],[1,0.5]];portConstraint=eastwest;whiteSpace=wrap;html=1;" parent="CcMotJygJFhmUvNzj9k_-2" vertex="1">
          <mxGeometry y="34" width="250" height="50" as="geometry" />
        </mxCell>
        <mxCell id="CcMotJygJFhmUvNzj9k_-6" value="ReportStream" style="swimlane;fontStyle=1;align=center;verticalAlign=top;childLayout=stackLayout;horizontal=1;startSize=26;horizontalStack=0;resizeParent=1;resizeParentMax=0;resizeLast=0;collapsible=1;marginBottom=0;whiteSpace=wrap;html=1;fillColor=#dae8fc;strokeColor=#6c8ebf;" parent="1" vertex="1">
          <mxGeometry x="80" y="100" width="160" height="86" as="geometry" />
        </mxCell>
        <mxCell id="CcMotJygJFhmUvNzj9k_-7" value="+ out: IO" style="text;strokeColor=none;fillColor=none;align=left;verticalAlign=top;spacingLeft=4;spacingRight=4;overflow=hidden;rotatable=0;points=[[0,0.5],[1,0.5]];portConstraint=eastwest;whiteSpace=wrap;html=1;" parent="CcMotJygJFhmUvNzj9k_-6" vertex="1">
          <mxGeometry y="26" width="160" height="26" as="geometry" />
        </mxCell>
        <mxCell id="CcMotJygJFhmUvNzj9k_-8" value="" style="line;strokeWidth=1;fillColor=none;align=left;verticalAlign=middle;spacingTop=-1;spacingLeft=3;spacingRight=3;rotatable=0;labelPosition=right;points=[];portConstraint=eastwest;strokeColor=inherit;" parent="CcMotJygJFhmUvNzj9k_-6" vertex="1">
          <mxGeometry y="52" width="160" height="8" as="geometry" />
        </mxCell>
        <mxCell id="CcMotJygJFhmUvNzj9k_-9" value="+ report_last_message()" style="text;strokeColor=none;fillColor=none;align=left;verticalAlign=top;spacingLeft=4;spacingRight=4;overflow=hidden;rotatable=0;points=[[0,0.5],[1,0.5]];portConstraint=eastwest;whiteSpace=wrap;html=1;" parent="CcMotJygJFhmUvNzj9k_-6" vertex="1">
          <mxGeometry y="60" width="160" height="26" as="geometry" />
        </mxCell>
      </root>
    </mxGraphModel>
  </diagram>
  <diagram id="9t-VyTDAgjx37iISbTPm" name="cercle">
    <mxGraphModel dx="2577" dy="971" grid="1" gridSize="10" guides="1" tooltips="1" connect="1" arrows="1" fold="1" page="1" pageScale="1" pageWidth="1169" pageHeight="827" math="0" shadow="0">
      <root>
        <mxCell id="0" />
        <mxCell id="1" parent="0" />
        <mxCell id="YqKtcejp5PgBy4zJKqA0-3" value="" style="edgeStyle=orthogonalEdgeStyle;rounded=0;orthogonalLoop=1;jettySize=auto;html=1;" parent="1" source="YqKtcejp5PgBy4zJKqA0-1" target="YqKtcejp5PgBy4zJKqA0-2" edge="1">
          <mxGeometry relative="1" as="geometry" />
        </mxCell>
        <mxCell id="YqKtcejp5PgBy4zJKqA0-1" value="Améliorer la testabilité" style="rounded=1;whiteSpace=wrap;html=1;" parent="1" vertex="1">
          <mxGeometry x="40" y="40" width="120" height="60" as="geometry" />
        </mxCell>
        <mxCell id="YqKtcejp5PgBy4zJKqA0-5" value="" style="edgeStyle=orthogonalEdgeStyle;rounded=0;orthogonalLoop=1;jettySize=auto;html=1;entryX=1;entryY=0.5;entryDx=0;entryDy=0;" parent="1" source="YqKtcejp5PgBy4zJKqA0-2" target="YqKtcejp5PgBy4zJKqA0-4" edge="1">
          <mxGeometry relative="1" as="geometry" />
        </mxCell>
        <mxCell id="YqKtcejp5PgBy4zJKqA0-2" value="Refactoriser" style="rounded=1;whiteSpace=wrap;html=1;" parent="1" vertex="1">
          <mxGeometry x="240" y="40" width="120" height="60" as="geometry" />
        </mxCell>
        <mxCell id="YqKtcejp5PgBy4zJKqA0-6" style="edgeStyle=orthogonalEdgeStyle;rounded=0;orthogonalLoop=1;jettySize=auto;html=1;exitX=0;exitY=0.5;exitDx=0;exitDy=0;" parent="1" source="YqKtcejp5PgBy4zJKqA0-4" target="YqKtcejp5PgBy4zJKqA0-1" edge="1">
          <mxGeometry relative="1" as="geometry" />
        </mxCell>
        <mxCell id="YqKtcejp5PgBy4zJKqA0-4" value="Améliorer la conception" style="rounded=1;whiteSpace=wrap;html=1;" parent="1" vertex="1">
          <mxGeometry x="140" y="180" width="120" height="60" as="geometry" />
        </mxCell>
        <mxCell id="YqKtcejp5PgBy4zJKqA0-13" value="" style="edgeStyle=orthogonalEdgeStyle;orthogonalLoop=1;jettySize=auto;html=1;rounded=1;exitX=0.5;exitY=0;exitDx=0;exitDy=0;entryX=0.5;entryY=0;entryDx=0;entryDy=0;strokeWidth=3;strokeColor=#526C91;" parent="1" source="YqKtcejp5PgBy4zJKqA0-11" target="YqKtcejp5PgBy4zJKqA0-12" edge="1">
          <mxGeometry relative="1" as="geometry">
            <Array as="points">
              <mxPoint x="470" y="390" />
              <mxPoint x="660" y="390" />
            </Array>
          </mxGeometry>
        </mxCell>
        <mxCell id="YqKtcejp5PgBy4zJKqA0-11" value="Changer le code" style="rounded=1;whiteSpace=wrap;html=1;fillColor=#dae8fc;strokeColor=#6c8ebf;shadow=1;fontFamily=Helvetica;" parent="1" vertex="1">
          <mxGeometry x="410" y="440" width="120" height="60" as="geometry" />
        </mxCell>
        <mxCell id="YqKtcejp5PgBy4zJKqA0-15" value="" style="edgeStyle=orthogonalEdgeStyle;orthogonalLoop=1;jettySize=auto;html=1;rounded=1;exitX=0.5;exitY=1;exitDx=0;exitDy=0;entryX=1;entryY=0.5;entryDx=0;entryDy=0;strokeWidth=3;strokeColor=#526C91;" parent="1" source="YqKtcejp5PgBy4zJKqA0-12" target="YqKtcejp5PgBy4zJKqA0-14" edge="1">
          <mxGeometry relative="1" as="geometry">
            <Array as="points">
              <mxPoint x="660" y="570" />
            </Array>
          </mxGeometry>
        </mxCell>
        <mxCell id="YqKtcejp5PgBy4zJKqA0-12" value="Avoir des tests en place" style="rounded=1;whiteSpace=wrap;html=1;fillColor=#d5e8d4;strokeColor=#82b366;shadow=1;fontFamily=Helvetica;" parent="1" vertex="1">
          <mxGeometry x="600" y="440" width="120" height="60" as="geometry" />
        </mxCell>
        <mxCell id="YqKtcejp5PgBy4zJKqA0-16" style="edgeStyle=orthogonalEdgeStyle;orthogonalLoop=1;jettySize=auto;html=1;entryX=0.5;entryY=1;entryDx=0;entryDy=0;rounded=1;exitX=0;exitY=0.5;exitDx=0;exitDy=0;strokeWidth=3;strokeColor=#526C91;" parent="1" source="YqKtcejp5PgBy4zJKqA0-14" target="YqKtcejp5PgBy4zJKqA0-11" edge="1">
          <mxGeometry relative="1" as="geometry" />
        </mxCell>
        <mxCell id="YqKtcejp5PgBy4zJKqA0-14" value="Mettre des tests en place" style="rounded=1;whiteSpace=wrap;html=1;fillColor=#f8cecc;strokeColor=#b85450;shadow=1;fontFamily=Helvetica;" parent="1" vertex="1">
          <mxGeometry x="510" y="540" width="120" height="60" as="geometry" />
        </mxCell>
        <mxCell id="YqKtcejp5PgBy4zJKqA0-19" value="" style="edgeStyle=orthogonalEdgeStyle;rounded=1;orthogonalLoop=1;jettySize=auto;html=1;fontFamily=Helvetica;strokeColor=#526C91;strokeWidth=3;" parent="1" source="YqKtcejp5PgBy4zJKqA0-17" target="YqKtcejp5PgBy4zJKqA0-18" edge="1">
          <mxGeometry relative="1" as="geometry" />
        </mxCell>
        <mxCell id="YqKtcejp5PgBy4zJKqA0-17" value="Testabilité" style="rounded=1;whiteSpace=wrap;html=1;shadow=1;fontFamily=Helvetica;fillColor=#d5e8d4;strokeColor=#82b366;" parent="1" vertex="1">
          <mxGeometry x="640" y="40" width="120" height="60" as="geometry" />
        </mxCell>
        <mxCell id="YqKtcejp5PgBy4zJKqA0-21" value="" style="edgeStyle=orthogonalEdgeStyle;rounded=1;orthogonalLoop=1;jettySize=auto;html=1;fontFamily=Helvetica;strokeColor=#526C91;strokeWidth=3;exitX=1;exitY=0.5;exitDx=0;exitDy=0;entryX=1;entryY=0.5;entryDx=0;entryDy=0;" parent="1" source="YqKtcejp5PgBy4zJKqA0-18" target="YqKtcejp5PgBy4zJKqA0-20" edge="1">
          <mxGeometry relative="1" as="geometry">
            <Array as="points">
              <mxPoint x="1010" y="70" />
              <mxPoint x="1010" y="210" />
            </Array>
          </mxGeometry>
        </mxCell>
        <mxCell id="YqKtcejp5PgBy4zJKqA0-18" value="Plus de tests" style="rounded=1;whiteSpace=wrap;html=1;shadow=1;fontFamily=Helvetica;fillColor=#d5e8d4;strokeColor=#82b366;" parent="1" vertex="1">
          <mxGeometry x="840" y="40" width="120" height="60" as="geometry" />
        </mxCell>
        <mxCell id="YqKtcejp5PgBy4zJKqA0-23" value="" style="edgeStyle=orthogonalEdgeStyle;rounded=1;orthogonalLoop=1;jettySize=auto;html=1;fontFamily=Helvetica;strokeColor=#526C91;strokeWidth=3;" parent="1" source="YqKtcejp5PgBy4zJKqA0-20" target="YqKtcejp5PgBy4zJKqA0-22" edge="1">
          <mxGeometry relative="1" as="geometry" />
        </mxCell>
        <mxCell id="YqKtcejp5PgBy4zJKqA0-20" value="Avoir confiance" style="rounded=1;whiteSpace=wrap;html=1;shadow=1;fontFamily=Helvetica;fillColor=#fff2cc;strokeColor=#d6b656;" parent="1" vertex="1">
          <mxGeometry x="840" y="180" width="120" height="60" as="geometry" />
        </mxCell>
        <mxCell id="YqKtcejp5PgBy4zJKqA0-30" style="edgeStyle=orthogonalEdgeStyle;rounded=1;orthogonalLoop=1;jettySize=auto;html=1;entryX=0.5;entryY=1;entryDx=0;entryDy=0;fontFamily=Helvetica;strokeColor=#526C91;strokeWidth=3;" parent="1" source="YqKtcejp5PgBy4zJKqA0-22" target="YqKtcejp5PgBy4zJKqA0-27" edge="1">
          <mxGeometry relative="1" as="geometry" />
        </mxCell>
        <mxCell id="YqKtcejp5PgBy4zJKqA0-22" value="Engagement&lt;br&gt;Motivation" style="rounded=1;whiteSpace=wrap;html=1;shadow=1;fontFamily=Helvetica;fillColor=#fff2cc;strokeColor=#d6b656;" parent="1" vertex="1">
          <mxGeometry x="640" y="180" width="120" height="60" as="geometry" />
        </mxCell>
        <mxCell id="YqKtcejp5PgBy4zJKqA0-29" style="edgeStyle=orthogonalEdgeStyle;rounded=1;orthogonalLoop=1;jettySize=auto;html=1;entryX=0;entryY=0.5;entryDx=0;entryDy=0;fontFamily=Helvetica;strokeColor=#526C91;strokeWidth=3;exitX=0.5;exitY=0;exitDx=0;exitDy=0;" parent="1" source="YqKtcejp5PgBy4zJKqA0-27" target="YqKtcejp5PgBy4zJKqA0-17" edge="1">
          <mxGeometry relative="1" as="geometry" />
        </mxCell>
        <mxCell id="YqKtcejp5PgBy4zJKqA0-27" value="Soigner la conception" style="rounded=1;whiteSpace=wrap;html=1;shadow=1;fontFamily=Helvetica;fillColor=#d5e8d4;strokeColor=#82b366;" parent="1" vertex="1">
          <mxGeometry x="480" y="100" width="120" height="60" as="geometry" />
        </mxCell>
        <mxCell id="YqKtcejp5PgBy4zJKqA0-48" style="edgeStyle=orthogonalEdgeStyle;rounded=1;orthogonalLoop=1;jettySize=auto;html=1;fontFamily=Helvetica;strokeColor=#526C91;strokeWidth=3;" parent="1" source="YqKtcejp5PgBy4zJKqA0-36" target="YqKtcejp5PgBy4zJKqA0-47" edge="1">
          <mxGeometry relative="1" as="geometry" />
        </mxCell>
        <mxCell id="YqKtcejp5PgBy4zJKqA0-36" value="Bonne conception" style="rounded=1;whiteSpace=wrap;html=1;shadow=1;fontFamily=Helvetica;fillColor=#dae8fc;strokeColor=#6c8ebf;" parent="1" vertex="1">
          <mxGeometry x="150" y="800" width="140" height="60" as="geometry" />
        </mxCell>
        <mxCell id="YqKtcejp5PgBy4zJKqA0-45" value="" style="edgeStyle=orthogonalEdgeStyle;rounded=1;orthogonalLoop=1;jettySize=auto;html=1;fontFamily=Helvetica;strokeColor=#526C91;strokeWidth=3;" parent="1" source="YqKtcejp5PgBy4zJKqA0-37" target="YqKtcejp5PgBy4zJKqA0-44" edge="1">
          <mxGeometry relative="1" as="geometry" />
        </mxCell>
        <mxCell id="YqKtcejp5PgBy4zJKqA0-37" value="Facilités" style="rounded=1;whiteSpace=wrap;html=1;shadow=1;fontFamily=Helvetica;fillColor=#d5e8d4;strokeColor=#82b366;" parent="1" vertex="1">
          <mxGeometry x="360" y="900" width="140" height="60" as="geometry" />
        </mxCell>
        <mxCell id="YqKtcejp5PgBy4zJKqA0-42" value="" style="edgeStyle=orthogonalEdgeStyle;rounded=1;orthogonalLoop=1;jettySize=auto;html=1;fontFamily=Helvetica;strokeColor=#526C91;strokeWidth=3;exitX=0;exitY=0.5;exitDx=0;exitDy=0;" parent="1" source="YqKtcejp5PgBy4zJKqA0-39" target="YqKtcejp5PgBy4zJKqA0-41" edge="1">
          <mxGeometry relative="1" as="geometry">
            <mxPoint x="300" y="730" as="targetPoint" />
            <Array as="points" />
          </mxGeometry>
        </mxCell>
        <mxCell id="YqKtcejp5PgBy4zJKqA0-39" value="Difficultés" style="rounded=1;whiteSpace=wrap;html=1;shadow=1;fontFamily=Helvetica;fillColor=#f8cecc;strokeColor=#b85450;" parent="1" vertex="1">
          <mxGeometry x="360" y="700" width="140" height="60" as="geometry" />
        </mxCell>
        <mxCell id="YqKtcejp5PgBy4zJKqA0-43" style="edgeStyle=orthogonalEdgeStyle;rounded=1;orthogonalLoop=1;jettySize=auto;html=1;fontFamily=Helvetica;strokeColor=#526C91;strokeWidth=3;" parent="1" source="YqKtcejp5PgBy4zJKqA0-41" target="YqKtcejp5PgBy4zJKqA0-36" edge="1">
          <mxGeometry relative="1" as="geometry" />
        </mxCell>
        <mxCell id="YqKtcejp5PgBy4zJKqA0-41" value="Corriger conception" style="rounded=1;whiteSpace=wrap;html=1;shadow=1;fontFamily=Helvetica;fillColor=#f8cecc;strokeColor=#b85450;" parent="1" vertex="1">
          <mxGeometry x="150" y="700" width="140" height="60" as="geometry" />
        </mxCell>
        <mxCell id="YqKtcejp5PgBy4zJKqA0-46" style="edgeStyle=orthogonalEdgeStyle;rounded=1;orthogonalLoop=1;jettySize=auto;html=1;fontFamily=Helvetica;strokeColor=#526C91;strokeWidth=3;" parent="1" source="YqKtcejp5PgBy4zJKqA0-44" target="YqKtcejp5PgBy4zJKqA0-36" edge="1">
          <mxGeometry relative="1" as="geometry" />
        </mxCell>
        <mxCell id="YqKtcejp5PgBy4zJKqA0-44" value="Ajouter feature" style="rounded=1;whiteSpace=wrap;html=1;shadow=1;fontFamily=Helvetica;fillColor=#d5e8d4;strokeColor=#82b366;" parent="1" vertex="1">
          <mxGeometry x="-40" y="800" width="140" height="60" as="geometry" />
        </mxCell>
        <mxCell id="YqKtcejp5PgBy4zJKqA0-49" style="edgeStyle=orthogonalEdgeStyle;rounded=1;orthogonalLoop=1;jettySize=auto;html=1;fontFamily=Helvetica;strokeColor=#526C91;strokeWidth=3;" parent="1" source="YqKtcejp5PgBy4zJKqA0-47" target="YqKtcejp5PgBy4zJKqA0-39" edge="1">
          <mxGeometry relative="1" as="geometry" />
        </mxCell>
        <mxCell id="YqKtcejp5PgBy4zJKqA0-50" style="edgeStyle=orthogonalEdgeStyle;rounded=1;orthogonalLoop=1;jettySize=auto;html=1;fontFamily=Helvetica;strokeColor=#526C91;strokeWidth=3;" parent="1" source="YqKtcejp5PgBy4zJKqA0-47" target="YqKtcejp5PgBy4zJKqA0-37" edge="1">
          <mxGeometry relative="1" as="geometry" />
        </mxCell>
        <mxCell id="YqKtcejp5PgBy4zJKqA0-47" value="Créer tests" style="rounded=1;whiteSpace=wrap;html=1;shadow=1;fontFamily=Helvetica;fillColor=#dae8fc;strokeColor=#6c8ebf;" parent="1" vertex="1">
          <mxGeometry x="360" y="800" width="140" height="60" as="geometry" />
        </mxCell>
        <mxCell id="ujWg4CStigCqBhOX69Ep-1" value="" style="edgeStyle=orthogonalEdgeStyle;rounded=1;orthogonalLoop=1;jettySize=auto;html=1;fontFamily=Helvetica;strokeColor=#526C91;strokeWidth=3;" parent="1" source="ujWg4CStigCqBhOX69Ep-2" target="ujWg4CStigCqBhOX69Ep-4" edge="1">
          <mxGeometry relative="1" as="geometry" />
        </mxCell>
        <mxCell id="ujWg4CStigCqBhOX69Ep-2" value="Moindre testabilité" style="rounded=1;whiteSpace=wrap;html=1;shadow=1;fontFamily=Helvetica;fillColor=#f8cecc;strokeColor=#b85450;" parent="1" vertex="1">
          <mxGeometry x="1300" y="40" width="120" height="60" as="geometry" />
        </mxCell>
        <mxCell id="ujWg4CStigCqBhOX69Ep-3" value="" style="edgeStyle=orthogonalEdgeStyle;rounded=1;orthogonalLoop=1;jettySize=auto;html=1;fontFamily=Helvetica;strokeColor=#526C91;strokeWidth=3;exitX=1;exitY=0.5;exitDx=0;exitDy=0;entryX=1;entryY=0.5;entryDx=0;entryDy=0;" parent="1" source="ujWg4CStigCqBhOX69Ep-4" target="ujWg4CStigCqBhOX69Ep-6" edge="1">
          <mxGeometry relative="1" as="geometry">
            <Array as="points">
              <mxPoint x="1670" y="70" />
              <mxPoint x="1670" y="210" />
            </Array>
          </mxGeometry>
        </mxCell>
        <mxCell id="ujWg4CStigCqBhOX69Ep-4" value="Moins de tests" style="rounded=1;whiteSpace=wrap;html=1;shadow=1;fontFamily=Helvetica;fillColor=#f8cecc;strokeColor=#b85450;" parent="1" vertex="1">
          <mxGeometry x="1500" y="40" width="120" height="60" as="geometry" />
        </mxCell>
        <mxCell id="ujWg4CStigCqBhOX69Ep-5" value="" style="edgeStyle=orthogonalEdgeStyle;rounded=1;orthogonalLoop=1;jettySize=auto;html=1;fontFamily=Helvetica;strokeColor=#526C91;strokeWidth=3;" parent="1" source="ujWg4CStigCqBhOX69Ep-6" target="ujWg4CStigCqBhOX69Ep-8" edge="1">
          <mxGeometry relative="1" as="geometry" />
        </mxCell>
        <mxCell id="ujWg4CStigCqBhOX69Ep-6" value="Moins de&amp;nbsp; confiance" style="rounded=1;whiteSpace=wrap;html=1;shadow=1;fontFamily=Helvetica;fillColor=#fff2cc;strokeColor=#d6b656;" parent="1" vertex="1">
          <mxGeometry x="1500" y="180" width="120" height="60" as="geometry" />
        </mxCell>
        <mxCell id="ujWg4CStigCqBhOX69Ep-7" style="edgeStyle=orthogonalEdgeStyle;rounded=1;orthogonalLoop=1;jettySize=auto;html=1;entryX=0.5;entryY=1;entryDx=0;entryDy=0;fontFamily=Helvetica;strokeColor=#526C91;strokeWidth=3;" parent="1" source="ujWg4CStigCqBhOX69Ep-8" target="ujWg4CStigCqBhOX69Ep-10" edge="1">
          <mxGeometry relative="1" as="geometry" />
        </mxCell>
        <mxCell id="ujWg4CStigCqBhOX69Ep-8" value="Démotivation" style="rounded=1;whiteSpace=wrap;html=1;shadow=1;fontFamily=Helvetica;fillColor=#fff2cc;strokeColor=#d6b656;" parent="1" vertex="1">
          <mxGeometry x="1300" y="180" width="120" height="60" as="geometry" />
        </mxCell>
        <mxCell id="ujWg4CStigCqBhOX69Ep-9" style="edgeStyle=orthogonalEdgeStyle;rounded=1;orthogonalLoop=1;jettySize=auto;html=1;entryX=0;entryY=0.5;entryDx=0;entryDy=0;fontFamily=Helvetica;strokeColor=#526C91;strokeWidth=3;exitX=0.5;exitY=0;exitDx=0;exitDy=0;" parent="1" source="ujWg4CStigCqBhOX69Ep-10" target="ujWg4CStigCqBhOX69Ep-2" edge="1">
          <mxGeometry relative="1" as="geometry" />
        </mxCell>
        <mxCell id="ujWg4CStigCqBhOX69Ep-10" value="Bacler la conception" style="rounded=1;whiteSpace=wrap;html=1;shadow=1;fontFamily=Helvetica;fillColor=#f8cecc;strokeColor=#b85450;" parent="1" vertex="1">
          <mxGeometry x="1140" y="100" width="120" height="60" as="geometry" />
        </mxCell>
      </root>
    </mxGraphModel>
  </diagram>
  <diagram id="OPDN0pvIS2WW7IUqxqnr" name="Page-3">
    <mxGraphModel dx="1408" dy="971" grid="1" gridSize="10" guides="1" tooltips="1" connect="1" arrows="1" fold="1" page="1" pageScale="1" pageWidth="827" pageHeight="1169" math="0" shadow="0">
      <root>
        <mxCell id="0" />
        <mxCell id="1" parent="0" />
        <mxCell id="zA4I8yrA_JnhtayCg0hz-1" value="GitlabIssueDispatcher" style="swimlane;fontStyle=1;align=center;verticalAlign=top;childLayout=stackLayout;horizontal=1;startSize=26;horizontalStack=0;resizeParent=1;resizeParentMax=0;resizeLast=0;collapsible=1;marginBottom=0;fillColor=#dae8fc;strokeColor=#6c8ebf;" parent="1" vertex="1">
          <mxGeometry x="240" y="400" width="330" height="170" as="geometry" />
        </mxCell>
        <mxCell id="zA4I8yrA_JnhtayCg0hz-2" value="+ gitlab: Gitlab" style="text;strokeColor=none;fillColor=none;align=left;verticalAlign=top;spacingLeft=4;spacingRight=4;overflow=hidden;rotatable=0;points=[[0,0.5],[1,0.5]];portConstraint=eastwest;" parent="zA4I8yrA_JnhtayCg0hz-1" vertex="1">
          <mxGeometry y="26" width="330" height="26" as="geometry" />
        </mxCell>
        <mxCell id="zA4I8yrA_JnhtayCg0hz-3" value="" style="line;strokeWidth=1;fillColor=none;align=left;verticalAlign=middle;spacingTop=-1;spacingLeft=3;spacingRight=3;rotatable=0;labelPosition=right;points=[];portConstraint=eastwest;strokeColor=inherit;" parent="zA4I8yrA_JnhtayCg0hz-1" vertex="1">
          <mxGeometry y="52" width="330" height="8" as="geometry" />
        </mxCell>
        <mxCell id="zA4I8yrA_JnhtayCg0hz-4" value="+ dispatch(List[Issue]): None&#xa;+ deduplicate_issues(List[Issue]): None&#xa;+ balance_issues_per_assignee(List[Issue]): None&#xa;+ convert_to_tracking_system(List[Issue]): None&#xa;+ create_issues_in_tracking_system(List[Issue]): None" style="text;strokeColor=none;fillColor=none;align=left;verticalAlign=top;spacingLeft=4;spacingRight=4;overflow=hidden;rotatable=0;points=[[0,0.5],[1,0.5]];portConstraint=eastwest;" parent="zA4I8yrA_JnhtayCg0hz-1" vertex="1">
          <mxGeometry y="60" width="330" height="110" as="geometry" />
        </mxCell>
        <mxCell id="zA4I8yrA_JnhtayCg0hz-7" value="Gitlab" style="swimlane;fontStyle=1;align=center;verticalAlign=top;childLayout=stackLayout;horizontal=1;startSize=26;horizontalStack=0;resizeParent=1;resizeParentMax=0;resizeLast=0;collapsible=1;marginBottom=0;fillColor=#f8cecc;strokeColor=#b85450;" parent="1" vertex="1">
          <mxGeometry x="325" y="310" width="160" height="34" as="geometry" />
        </mxCell>
        <mxCell id="zA4I8yrA_JnhtayCg0hz-9" value="" style="line;strokeWidth=1;fillColor=none;align=left;verticalAlign=middle;spacingTop=-1;spacingLeft=3;spacingRight=3;rotatable=0;labelPosition=right;points=[];portConstraint=eastwest;strokeColor=inherit;" parent="zA4I8yrA_JnhtayCg0hz-7" vertex="1">
          <mxGeometry y="26" width="160" height="8" as="geometry" />
        </mxCell>
        <mxCell id="zA4I8yrA_JnhtayCg0hz-11" value="1" style="endArrow=open;html=1;endSize=12;startArrow=diamondThin;startSize=14;startFill=1;edgeStyle=orthogonalEdgeStyle;align=left;verticalAlign=bottom;rounded=0;" parent="1" source="zA4I8yrA_JnhtayCg0hz-1" target="zA4I8yrA_JnhtayCg0hz-7" edge="1">
          <mxGeometry x="-1" y="3" relative="1" as="geometry">
            <mxPoint x="330" y="450" as="sourcePoint" />
            <mxPoint x="490" y="450" as="targetPoint" />
          </mxGeometry>
        </mxCell>
        <mxCell id="zA4I8yrA_JnhtayCg0hz-12" value="GitlabIssueDispatcher" style="swimlane;fontStyle=1;align=center;verticalAlign=top;childLayout=stackLayout;horizontal=1;startSize=26;horizontalStack=0;resizeParent=1;resizeParentMax=0;resizeLast=0;collapsible=1;marginBottom=0;fillColor=#dae8fc;strokeColor=#6c8ebf;" parent="1" vertex="1">
          <mxGeometry x="680" y="460" width="330" height="100" as="geometry" />
        </mxCell>
        <mxCell id="zA4I8yrA_JnhtayCg0hz-13" value="+ gitlab: Gitlab" style="text;strokeColor=none;fillColor=none;align=left;verticalAlign=top;spacingLeft=4;spacingRight=4;overflow=hidden;rotatable=0;points=[[0,0.5],[1,0.5]];portConstraint=eastwest;" parent="zA4I8yrA_JnhtayCg0hz-12" vertex="1">
          <mxGeometry y="26" width="330" height="26" as="geometry" />
        </mxCell>
        <mxCell id="zA4I8yrA_JnhtayCg0hz-14" value="" style="line;strokeWidth=1;fillColor=none;align=left;verticalAlign=middle;spacingTop=-1;spacingLeft=3;spacingRight=3;rotatable=0;labelPosition=right;points=[];portConstraint=eastwest;strokeColor=inherit;" parent="zA4I8yrA_JnhtayCg0hz-12" vertex="1">
          <mxGeometry y="52" width="330" height="8" as="geometry" />
        </mxCell>
        <mxCell id="zA4I8yrA_JnhtayCg0hz-15" value="+ convert_to_tracking_system(List[Issue]): None&#xa;+ create_issues_in_tracking_system(List[Issue]): None" style="text;strokeColor=none;fillColor=none;align=left;verticalAlign=top;spacingLeft=4;spacingRight=4;overflow=hidden;rotatable=0;points=[[0,0.5],[1,0.5]];portConstraint=eastwest;fontColor=#0a0a0a;" parent="zA4I8yrA_JnhtayCg0hz-12" vertex="1">
          <mxGeometry y="60" width="330" height="40" as="geometry" />
        </mxCell>
        <mxCell id="zA4I8yrA_JnhtayCg0hz-22" value="IssueDispatcher" style="swimlane;fontStyle=1;align=center;verticalAlign=top;childLayout=stackLayout;horizontal=1;startSize=26;horizontalStack=0;resizeParent=1;resizeParentMax=0;resizeLast=0;collapsible=1;marginBottom=0;fillColor=#fff2cc;strokeColor=#d6b656;" parent="1" vertex="1">
          <mxGeometry x="875" y="190" width="330" height="144" as="geometry" />
        </mxCell>
        <mxCell id="zA4I8yrA_JnhtayCg0hz-24" value="" style="line;strokeWidth=1;fillColor=none;align=left;verticalAlign=middle;spacingTop=-1;spacingLeft=3;spacingRight=3;rotatable=0;labelPosition=right;points=[];portConstraint=eastwest;strokeColor=inherit;" parent="zA4I8yrA_JnhtayCg0hz-22" vertex="1">
          <mxGeometry y="26" width="330" height="8" as="geometry" />
        </mxCell>
        <mxCell id="zA4I8yrA_JnhtayCg0hz-25" value="+ dispatch(List[Issue]): None&#xa;+ deduplicate_issues(List[Issue]): None&#xa;+ balance_issues_per_assignee(List[Issue]): None&#xa;+ abstract convert_to_tracking_system(List[Issue]): None&#xa;+ abstact create_issues_in_tracking_system(List[Issue]): None" style="text;strokeColor=none;fillColor=none;align=left;verticalAlign=top;spacingLeft=4;spacingRight=4;overflow=hidden;rotatable=0;points=[[0,0.5],[1,0.5]];portConstraint=eastwest;fontColor=#0a0a0a;" parent="zA4I8yrA_JnhtayCg0hz-22" vertex="1">
          <mxGeometry y="34" width="330" height="110" as="geometry" />
        </mxCell>
        <mxCell id="zA4I8yrA_JnhtayCg0hz-26" value="Extends" style="endArrow=block;endSize=16;endFill=0;html=1;rounded=0;fontColor=#0a0a0a;exitX=0.5;exitY=0;exitDx=0;exitDy=0;" parent="1" source="zA4I8yrA_JnhtayCg0hz-12" target="zA4I8yrA_JnhtayCg0hz-25" edge="1">
          <mxGeometry width="160" relative="1" as="geometry">
            <mxPoint x="370" y="410" as="sourcePoint" />
            <mxPoint x="530" y="410" as="targetPoint" />
          </mxGeometry>
        </mxCell>
        <mxCell id="zA4I8yrA_JnhtayCg0hz-27" value="Gitlab" style="swimlane;fontStyle=1;align=center;verticalAlign=top;childLayout=stackLayout;horizontal=1;startSize=26;horizontalStack=0;resizeParent=1;resizeParentMax=0;resizeLast=0;collapsible=1;marginBottom=0;fillColor=#f8cecc;strokeColor=#b85450;" parent="1" vertex="1">
          <mxGeometry x="680" y="360" width="160" height="34" as="geometry" />
        </mxCell>
        <mxCell id="zA4I8yrA_JnhtayCg0hz-28" value="" style="line;strokeWidth=1;fillColor=none;align=left;verticalAlign=middle;spacingTop=-1;spacingLeft=3;spacingRight=3;rotatable=0;labelPosition=right;points=[];portConstraint=eastwest;strokeColor=inherit;" parent="zA4I8yrA_JnhtayCg0hz-27" vertex="1">
          <mxGeometry y="26" width="160" height="8" as="geometry" />
        </mxCell>
        <mxCell id="zA4I8yrA_JnhtayCg0hz-30" value="ForTestIssueDispatcher" style="swimlane;fontStyle=1;align=center;verticalAlign=top;childLayout=stackLayout;horizontal=1;startSize=26;horizontalStack=0;resizeParent=1;resizeParentMax=0;resizeLast=0;collapsible=1;marginBottom=0;fillColor=#d5e8d4;strokeColor=#82b366;" parent="1" vertex="1">
          <mxGeometry x="1120" y="460" width="330" height="100" as="geometry" />
        </mxCell>
        <mxCell id="zA4I8yrA_JnhtayCg0hz-31" value="+ gitlab: Gitlab" style="text;strokeColor=none;fillColor=none;align=left;verticalAlign=top;spacingLeft=4;spacingRight=4;overflow=hidden;rotatable=0;points=[[0,0.5],[1,0.5]];portConstraint=eastwest;" parent="zA4I8yrA_JnhtayCg0hz-30" vertex="1">
          <mxGeometry y="26" width="330" height="26" as="geometry" />
        </mxCell>
        <mxCell id="zA4I8yrA_JnhtayCg0hz-32" value="" style="line;strokeWidth=1;fillColor=none;align=left;verticalAlign=middle;spacingTop=-1;spacingLeft=3;spacingRight=3;rotatable=0;labelPosition=right;points=[];portConstraint=eastwest;strokeColor=inherit;" parent="zA4I8yrA_JnhtayCg0hz-30" vertex="1">
          <mxGeometry y="52" width="330" height="8" as="geometry" />
        </mxCell>
        <mxCell id="zA4I8yrA_JnhtayCg0hz-33" value="+ convert_to_tracking_system(List[Issue]): None&#xa;+ create_issues_in_tracking_system(List[Issue]): None" style="text;strokeColor=none;fillColor=none;align=left;verticalAlign=top;spacingLeft=4;spacingRight=4;overflow=hidden;rotatable=0;points=[[0,0.5],[1,0.5]];portConstraint=eastwest;fontColor=#0a0a0a;" parent="zA4I8yrA_JnhtayCg0hz-30" vertex="1">
          <mxGeometry y="60" width="330" height="40" as="geometry" />
        </mxCell>
        <mxCell id="zA4I8yrA_JnhtayCg0hz-34" value="Extends" style="endArrow=block;endSize=16;endFill=0;html=1;rounded=0;fontColor=#0a0a0a;exitX=0.5;exitY=0;exitDx=0;exitDy=0;" parent="1" source="zA4I8yrA_JnhtayCg0hz-30" target="zA4I8yrA_JnhtayCg0hz-25" edge="1">
          <mxGeometry width="160" relative="1" as="geometry">
            <mxPoint x="855" y="470" as="sourcePoint" />
            <mxPoint x="855" y="394" as="targetPoint" />
          </mxGeometry>
        </mxCell>
        <mxCell id="zA4I8yrA_JnhtayCg0hz-36" value="1" style="endArrow=open;html=1;endSize=12;startArrow=diamondThin;startSize=14;startFill=1;edgeStyle=orthogonalEdgeStyle;align=left;verticalAlign=bottom;rounded=0;exitX=0.25;exitY=0;exitDx=0;exitDy=0;" parent="1" source="zA4I8yrA_JnhtayCg0hz-12" edge="1">
          <mxGeometry x="-1" y="3" relative="1" as="geometry">
            <mxPoint x="415" y="410" as="sourcePoint" />
            <mxPoint x="763" y="390" as="targetPoint" />
          </mxGeometry>
        </mxCell>
      </root>
    </mxGraphModel>
  </diagram>
  <diagram id="sO9iQrw5al82MFy6bolQ" name="dependances">
    <mxGraphModel dx="1408" dy="971" grid="1" gridSize="10" guides="1" tooltips="1" connect="1" arrows="1" fold="1" page="1" pageScale="1" pageWidth="827" pageHeight="1169" math="0" shadow="0">
      <root>
        <mxCell id="0" />
        <mxCell id="1" parent="0" />
        <mxCell id="-TSGl9Oi9SZsAKRyB9Nt-2" value="Object Under Test" style="html=1;fillColor=#d5e8d4;strokeColor=#82b366;shadow=1;strokeWidth=3;" parent="1" vertex="1">
          <mxGeometry x="400" y="390" width="110" height="50" as="geometry" />
        </mxCell>
        <mxCell id="-TSGl9Oi9SZsAKRyB9Nt-6" value="Dependency" style="html=1;fillColor=#ffe6cc;strokeColor=#d79b00;" parent="1" vertex="1">
          <mxGeometry x="250" y="500" width="110" height="50" as="geometry" />
        </mxCell>
        <mxCell id="-TSGl9Oi9SZsAKRyB9Nt-7" value="Use" style="endArrow=open;endSize=12;dashed=1;html=1;rounded=0;fontColor=#0a0a0a;" parent="1" source="-TSGl9Oi9SZsAKRyB9Nt-6" target="-TSGl9Oi9SZsAKRyB9Nt-8" edge="1">
          <mxGeometry width="160" relative="1" as="geometry">
            <mxPoint x="150" y="450" as="sourcePoint" />
            <mxPoint x="270" y="370" as="targetPoint" />
          </mxGeometry>
        </mxCell>
        <mxCell id="-TSGl9Oi9SZsAKRyB9Nt-8" value="Dependency" style="html=1;fillColor=#f5f5f5;strokeColor=#666666;fontColor=#333333;" parent="1" vertex="1">
          <mxGeometry x="120" y="600" width="110" height="50" as="geometry" />
        </mxCell>
        <mxCell id="-TSGl9Oi9SZsAKRyB9Nt-9" value="Use" style="endArrow=open;endSize=12;dashed=1;html=1;rounded=0;fontColor=#0a0a0a;" parent="1" source="-TSGl9Oi9SZsAKRyB9Nt-2" target="-TSGl9Oi9SZsAKRyB9Nt-6" edge="1">
          <mxGeometry width="160" relative="1" as="geometry">
            <mxPoint x="330" y="450" as="sourcePoint" />
            <mxPoint x="490" y="450" as="targetPoint" />
          </mxGeometry>
        </mxCell>
        <mxCell id="-TSGl9Oi9SZsAKRyB9Nt-10" value="Dependency" style="html=1;fillColor=#f5f5f5;strokeColor=#666666;fontColor=#333333;" parent="1" vertex="1">
          <mxGeometry x="250" y="600" width="110" height="50" as="geometry" />
        </mxCell>
        <mxCell id="-TSGl9Oi9SZsAKRyB9Nt-11" value="Use" style="endArrow=open;endSize=12;dashed=1;html=1;rounded=0;fontColor=#0a0a0a;exitX=0.5;exitY=1;exitDx=0;exitDy=0;" parent="1" source="-TSGl9Oi9SZsAKRyB9Nt-6" target="-TSGl9Oi9SZsAKRyB9Nt-10" edge="1">
          <mxGeometry width="160" relative="1" as="geometry">
            <mxPoint x="235" y="590" as="sourcePoint" />
            <mxPoint x="220" y="570" as="targetPoint" />
          </mxGeometry>
        </mxCell>
        <mxCell id="-TSGl9Oi9SZsAKRyB9Nt-12" value="Dependency" style="html=1;fillColor=#f8cecc;strokeColor=#b85450;" parent="1" vertex="1">
          <mxGeometry x="550" y="500" width="110" height="50" as="geometry" />
        </mxCell>
        <mxCell id="-TSGl9Oi9SZsAKRyB9Nt-13" value="Use" style="endArrow=open;endSize=12;dashed=1;html=1;rounded=0;fontColor=#0a0a0a;" parent="1" source="-TSGl9Oi9SZsAKRyB9Nt-12" target="-TSGl9Oi9SZsAKRyB9Nt-14" edge="1">
          <mxGeometry width="160" relative="1" as="geometry">
            <mxPoint x="500" y="455" as="sourcePoint" />
            <mxPoint x="620" y="375" as="targetPoint" />
          </mxGeometry>
        </mxCell>
        <mxCell id="-TSGl9Oi9SZsAKRyB9Nt-14" value="Dependency" style="html=1;fillColor=#f5f5f5;strokeColor=#666666;fontColor=#333333;" parent="1" vertex="1">
          <mxGeometry x="680" y="600" width="110" height="50" as="geometry" />
        </mxCell>
        <mxCell id="-TSGl9Oi9SZsAKRyB9Nt-15" value="Use" style="endArrow=open;endSize=12;dashed=1;html=1;rounded=0;fontColor=#0a0a0a;" parent="1" source="-TSGl9Oi9SZsAKRyB9Nt-2" target="-TSGl9Oi9SZsAKRyB9Nt-12" edge="1">
          <mxGeometry width="160" relative="1" as="geometry">
            <mxPoint x="800" y="420" as="sourcePoint" />
            <mxPoint x="890" y="455" as="targetPoint" />
          </mxGeometry>
        </mxCell>
        <mxCell id="-TSGl9Oi9SZsAKRyB9Nt-16" value="Dependency" style="html=1;fillColor=#f5f5f5;strokeColor=#666666;fontColor=#333333;" parent="1" vertex="1">
          <mxGeometry x="550" y="600" width="110" height="50" as="geometry" />
        </mxCell>
        <mxCell id="-TSGl9Oi9SZsAKRyB9Nt-17" value="Use" style="endArrow=open;endSize=12;dashed=1;html=1;rounded=0;fontColor=#0a0a0a;exitX=0.5;exitY=1;exitDx=0;exitDy=0;" parent="1" source="-TSGl9Oi9SZsAKRyB9Nt-12" target="-TSGl9Oi9SZsAKRyB9Nt-16" edge="1">
          <mxGeometry width="160" relative="1" as="geometry">
            <mxPoint x="585" y="595" as="sourcePoint" />
            <mxPoint x="570" y="575" as="targetPoint" />
          </mxGeometry>
        </mxCell>
        <mxCell id="-TSGl9Oi9SZsAKRyB9Nt-24" value="Dependency" style="html=1;fillColor=#fff2cc;strokeColor=#d6b656;" parent="1" vertex="1">
          <mxGeometry x="400" y="500" width="110" height="50" as="geometry" />
        </mxCell>
        <mxCell id="-TSGl9Oi9SZsAKRyB9Nt-25" value="Use" style="endArrow=open;endSize=12;dashed=1;html=1;rounded=0;fontColor=#0a0a0a;" parent="1" source="-TSGl9Oi9SZsAKRyB9Nt-2" target="-TSGl9Oi9SZsAKRyB9Nt-24" edge="1">
          <mxGeometry width="160" relative="1" as="geometry">
            <mxPoint x="590" y="535" as="sourcePoint" />
            <mxPoint x="680" y="570" as="targetPoint" />
          </mxGeometry>
        </mxCell>
        <mxCell id="-TSGl9Oi9SZsAKRyB9Nt-26" value="Object Under Test" style="html=1;fillColor=#d5e8d4;strokeColor=#82b366;shadow=1;strokeWidth=3;" parent="1" vertex="1">
          <mxGeometry x="1100" y="400" width="110" height="50" as="geometry" />
        </mxCell>
        <mxCell id="Fk8-4eRqvTq33gr6ncyd-1" value="Dependency" style="html=1;fillColor=#f5f5f5;strokeColor=#666666;fontColor=#333333;" parent="1" vertex="1">
          <mxGeometry x="400" y="600" width="110" height="50" as="geometry" />
        </mxCell>
        <mxCell id="Fk8-4eRqvTq33gr6ncyd-2" value="Use" style="endArrow=open;endSize=12;dashed=1;html=1;rounded=0;fontColor=#0a0a0a;" parent="1" source="-TSGl9Oi9SZsAKRyB9Nt-24" target="Fk8-4eRqvTq33gr6ncyd-1" edge="1">
          <mxGeometry width="160" relative="1" as="geometry">
            <mxPoint x="455" y="550" as="sourcePoint" />
            <mxPoint x="420" y="575" as="targetPoint" />
          </mxGeometry>
        </mxCell>
        <mxCell id="Fk8-4eRqvTq33gr6ncyd-3" value="Dependency" style="html=1;fillColor=#ffe6cc;strokeColor=#d79b00;" parent="1" vertex="1">
          <mxGeometry x="940" y="600" width="110" height="50" as="geometry" />
        </mxCell>
        <mxCell id="Fk8-4eRqvTq33gr6ncyd-4" value="Use" style="endArrow=open;endSize=12;dashed=1;html=1;rounded=0;fontColor=#0a0a0a;" parent="1" source="-TSGl9Oi9SZsAKRyB9Nt-26" target="Fk8-4eRqvTq33gr6ncyd-5" edge="1">
          <mxGeometry width="160" relative="1" as="geometry">
            <mxPoint x="995" y="450" as="sourcePoint" />
            <mxPoint x="1220" y="580" as="targetPoint" />
          </mxGeometry>
        </mxCell>
        <mxCell id="Fk8-4eRqvTq33gr6ncyd-5" value="«interface»&lt;br&gt;" style="html=1;shadow=1;strokeWidth=1;fillColor=#ffe6cc;strokeColor=#d79b00;" parent="1" vertex="1">
          <mxGeometry x="940" y="500" width="110" height="50" as="geometry" />
        </mxCell>
        <mxCell id="Fk8-4eRqvTq33gr6ncyd-6" value="Implements" style="endArrow=block;dashed=1;endFill=0;endSize=12;html=1;rounded=0;fontColor=#0a0a0a;exitX=0.5;exitY=0;exitDx=0;exitDy=0;entryX=0.5;entryY=1;entryDx=0;entryDy=0;" parent="1" source="Fk8-4eRqvTq33gr6ncyd-3" target="Fk8-4eRqvTq33gr6ncyd-5" edge="1">
          <mxGeometry width="160" relative="1" as="geometry">
            <mxPoint x="570" y="450" as="sourcePoint" />
            <mxPoint x="730" y="450" as="targetPoint" />
          </mxGeometry>
        </mxCell>
        <mxCell id="Fk8-4eRqvTq33gr6ncyd-7" value="Dependency" style="html=1;fillColor=#fff2cc;strokeColor=#d6b656;" parent="1" vertex="1">
          <mxGeometry x="1100" y="600" width="110" height="50" as="geometry" />
        </mxCell>
        <mxCell id="Fk8-4eRqvTq33gr6ncyd-8" value="«interface»&lt;br&gt;" style="html=1;shadow=1;strokeWidth=1;fillColor=#fff2cc;strokeColor=#d6b656;" parent="1" vertex="1">
          <mxGeometry x="1100" y="500" width="110" height="50" as="geometry" />
        </mxCell>
        <mxCell id="Fk8-4eRqvTq33gr6ncyd-9" value="Implements" style="endArrow=block;dashed=1;endFill=0;endSize=12;html=1;rounded=0;fontColor=#0a0a0a;exitX=0.5;exitY=0;exitDx=0;exitDy=0;entryX=0.5;entryY=1;entryDx=0;entryDy=0;" parent="1" source="Fk8-4eRqvTq33gr6ncyd-7" target="Fk8-4eRqvTq33gr6ncyd-8" edge="1">
          <mxGeometry width="160" relative="1" as="geometry">
            <mxPoint x="730" y="450" as="sourcePoint" />
            <mxPoint x="890" y="450" as="targetPoint" />
          </mxGeometry>
        </mxCell>
        <mxCell id="Fk8-4eRqvTq33gr6ncyd-10" value="Use" style="endArrow=open;endSize=12;dashed=1;html=1;rounded=0;fontColor=#0a0a0a;" parent="1" source="-TSGl9Oi9SZsAKRyB9Nt-26" target="Fk8-4eRqvTq33gr6ncyd-8" edge="1">
          <mxGeometry width="160" relative="1" as="geometry">
            <mxPoint x="1275" y="450" as="sourcePoint" />
            <mxPoint x="1380" y="580" as="targetPoint" />
          </mxGeometry>
        </mxCell>
        <mxCell id="Fk8-4eRqvTq33gr6ncyd-11" value="Dependency" style="html=1;fillColor=#f8cecc;strokeColor=#b85450;" parent="1" vertex="1">
          <mxGeometry x="1260" y="600" width="110" height="50" as="geometry" />
        </mxCell>
        <mxCell id="Fk8-4eRqvTq33gr6ncyd-12" value="«interface»&lt;br&gt;" style="html=1;shadow=1;strokeWidth=1;fillColor=#f8cecc;strokeColor=#b85450;" parent="1" vertex="1">
          <mxGeometry x="1260" y="500" width="110" height="50" as="geometry" />
        </mxCell>
        <mxCell id="Fk8-4eRqvTq33gr6ncyd-13" value="Implements" style="endArrow=block;dashed=1;endFill=0;endSize=12;html=1;rounded=0;fontColor=#0a0a0a;exitX=0.5;exitY=0;exitDx=0;exitDy=0;entryX=0.5;entryY=1;entryDx=0;entryDy=0;" parent="1" source="Fk8-4eRqvTq33gr6ncyd-11" target="Fk8-4eRqvTq33gr6ncyd-12" edge="1">
          <mxGeometry width="160" relative="1" as="geometry">
            <mxPoint x="890" y="450" as="sourcePoint" />
            <mxPoint x="1050" y="450" as="targetPoint" />
          </mxGeometry>
        </mxCell>
        <mxCell id="Fk8-4eRqvTq33gr6ncyd-14" value="Use" style="endArrow=open;endSize=12;dashed=1;html=1;rounded=0;fontColor=#0a0a0a;" parent="1" source="-TSGl9Oi9SZsAKRyB9Nt-26" target="Fk8-4eRqvTq33gr6ncyd-12" edge="1">
          <mxGeometry width="160" relative="1" as="geometry">
            <mxPoint x="1325" y="450" as="sourcePoint" />
            <mxPoint x="1550" y="580" as="targetPoint" />
          </mxGeometry>
        </mxCell>
      </root>
    </mxGraphModel>
  </diagram>
  <diagram id="WEg3TqHjQqDmMXG5-KAT" name="Page-5">
    <mxGraphModel dx="1408" dy="971" grid="1" gridSize="10" guides="1" tooltips="1" connect="1" arrows="1" fold="1" page="1" pageScale="1" pageWidth="827" pageHeight="1169" math="0" shadow="0">
      <root>
        <mxCell id="0" />
        <mxCell id="1" parent="0" />
        <mxCell id="KANtHKgbLBjqC6QlcRJz-3" value="" style="rounded=0;orthogonalLoop=1;jettySize=auto;html=1;fontColor=#0a0a0a;dashed=1;endArrow=open;endFill=0;" parent="1" source="KANtHKgbLBjqC6QlcRJz-1" target="KANtHKgbLBjqC6QlcRJz-2" edge="1">
          <mxGeometry relative="1" as="geometry" />
        </mxCell>
        <mxCell id="KANtHKgbLBjqC6QlcRJz-5" style="edgeStyle=orthogonalEdgeStyle;rounded=0;orthogonalLoop=1;jettySize=auto;html=1;fontColor=#0a0a0a;dashed=1;endArrow=open;endFill=0;" parent="1" source="KANtHKgbLBjqC6QlcRJz-1" target="KANtHKgbLBjqC6QlcRJz-4" edge="1">
          <mxGeometry relative="1" as="geometry" />
        </mxCell>
        <mxCell id="KANtHKgbLBjqC6QlcRJz-7" style="rounded=0;orthogonalLoop=1;jettySize=auto;html=1;fontColor=#0a0a0a;dashed=1;endArrow=open;endFill=0;" parent="1" source="KANtHKgbLBjqC6QlcRJz-1" target="KANtHKgbLBjqC6QlcRJz-6" edge="1">
          <mxGeometry relative="1" as="geometry" />
        </mxCell>
        <mxCell id="KANtHKgbLBjqC6QlcRJz-1" value="Object Under Test" style="rounded=1;whiteSpace=wrap;html=1;shadow=1;strokeWidth=1;fillColor=#d5e8d4;strokeColor=#82b366;" parent="1" vertex="1">
          <mxGeometry x="354" y="220" width="120" height="60" as="geometry" />
        </mxCell>
        <mxCell id="KANtHKgbLBjqC6QlcRJz-9" value="" style="rounded=0;orthogonalLoop=1;jettySize=auto;html=1;fontColor=#0a0a0a;endArrow=open;endFill=0;dashed=1;" parent="1" source="KANtHKgbLBjqC6QlcRJz-2" target="KANtHKgbLBjqC6QlcRJz-8" edge="1">
          <mxGeometry relative="1" as="geometry">
            <mxPoint x="250" y="388" as="sourcePoint" />
          </mxGeometry>
        </mxCell>
        <mxCell id="inVMOR2Yq0cUtfoW24WQ-3" value="" style="edgeStyle=none;shape=connector;rounded=0;orthogonalLoop=1;jettySize=auto;html=1;labelBackgroundColor=default;strokeColor=default;fontFamily=Helvetica;fontSize=11;fontColor=#0a0a0a;endArrow=open;endFill=0;dashed=1;" parent="1" source="KANtHKgbLBjqC6QlcRJz-2" target="inVMOR2Yq0cUtfoW24WQ-2" edge="1">
          <mxGeometry relative="1" as="geometry">
            <mxPoint x="285" y="390" as="sourcePoint" />
          </mxGeometry>
        </mxCell>
        <mxCell id="KANtHKgbLBjqC6QlcRJz-2" value="" style="whiteSpace=wrap;html=1;rounded=1;shadow=1;strokeWidth=1;fillColor=#dae8fc;strokeColor=#6c8ebf;" parent="1" vertex="1">
          <mxGeometry x="250" y="320" width="70" height="60" as="geometry" />
        </mxCell>
        <mxCell id="inVMOR2Yq0cUtfoW24WQ-9" value="" style="edgeStyle=none;shape=connector;rounded=0;orthogonalLoop=1;jettySize=auto;html=1;labelBackgroundColor=default;strokeColor=default;fontFamily=Helvetica;fontSize=11;fontColor=#0a0a0a;endArrow=open;endFill=0;dashed=1;" parent="1" source="KANtHKgbLBjqC6QlcRJz-4" target="inVMOR2Yq0cUtfoW24WQ-8" edge="1">
          <mxGeometry relative="1" as="geometry">
            <mxPoint x="414" y="390" as="sourcePoint" />
          </mxGeometry>
        </mxCell>
        <mxCell id="KANtHKgbLBjqC6QlcRJz-4" value="" style="whiteSpace=wrap;html=1;rounded=1;shadow=1;strokeWidth=1;fillColor=#dae8fc;strokeColor=#6c8ebf;" parent="1" vertex="1">
          <mxGeometry x="379" y="320" width="70" height="60" as="geometry" />
        </mxCell>
        <mxCell id="inVMOR2Yq0cUtfoW24WQ-5" value="" style="edgeStyle=none;shape=connector;rounded=0;orthogonalLoop=1;jettySize=auto;html=1;labelBackgroundColor=default;strokeColor=default;fontFamily=Helvetica;fontSize=11;fontColor=#0a0a0a;endArrow=open;endFill=0;dashed=1;" parent="1" source="KANtHKgbLBjqC6QlcRJz-6" target="inVMOR2Yq0cUtfoW24WQ-4" edge="1">
          <mxGeometry relative="1" as="geometry">
            <mxPoint x="588.75" y="390" as="sourcePoint" />
          </mxGeometry>
        </mxCell>
        <mxCell id="inVMOR2Yq0cUtfoW24WQ-7" value="" style="edgeStyle=none;shape=connector;rounded=0;orthogonalLoop=1;jettySize=auto;html=1;labelBackgroundColor=default;strokeColor=default;fontFamily=Helvetica;fontSize=11;fontColor=#0a0a0a;endArrow=open;endFill=0;dashed=1;exitX=0.5;exitY=1;exitDx=0;exitDy=0;" parent="1" source="KANtHKgbLBjqC6QlcRJz-6" target="inVMOR2Yq0cUtfoW24WQ-6" edge="1">
          <mxGeometry relative="1" as="geometry">
            <mxPoint x="555" y="390" as="sourcePoint" />
          </mxGeometry>
        </mxCell>
        <mxCell id="KANtHKgbLBjqC6QlcRJz-6" value="" style="whiteSpace=wrap;html=1;rounded=1;shadow=1;strokeWidth=1;fillColor=#dae8fc;strokeColor=#6c8ebf;" parent="1" vertex="1">
          <mxGeometry x="520" y="320" width="70" height="60" as="geometry" />
        </mxCell>
        <mxCell id="KANtHKgbLBjqC6QlcRJz-8" value="" style="whiteSpace=wrap;html=1;fontColor=#333333;rounded=1;shadow=1;strokeWidth=1;fillColor=#f5f5f5;strokeColor=#666666;" parent="1" vertex="1">
          <mxGeometry x="150" y="420" width="70" height="60" as="geometry" />
        </mxCell>
        <mxCell id="inVMOR2Yq0cUtfoW24WQ-2" value="" style="whiteSpace=wrap;html=1;fontColor=#333333;rounded=1;shadow=1;strokeWidth=1;fillColor=#f5f5f5;strokeColor=#666666;" parent="1" vertex="1">
          <mxGeometry x="250" y="420" width="70" height="60" as="geometry" />
        </mxCell>
        <mxCell id="inVMOR2Yq0cUtfoW24WQ-4" value="" style="whiteSpace=wrap;html=1;fontColor=#333333;rounded=1;shadow=1;strokeWidth=1;fillColor=#f5f5f5;strokeColor=#666666;" parent="1" vertex="1">
          <mxGeometry x="610" y="420" width="70" height="60" as="geometry" />
        </mxCell>
        <mxCell id="inVMOR2Yq0cUtfoW24WQ-6" value="" style="whiteSpace=wrap;html=1;fontColor=#333333;rounded=1;shadow=1;strokeWidth=1;fillColor=#f5f5f5;strokeColor=#666666;" parent="1" vertex="1">
          <mxGeometry x="520" y="420" width="70" height="60" as="geometry" />
        </mxCell>
        <mxCell id="inVMOR2Yq0cUtfoW24WQ-8" value="" style="whiteSpace=wrap;html=1;fontColor=#333333;rounded=1;shadow=1;strokeWidth=1;fillColor=#f5f5f5;strokeColor=#666666;" parent="1" vertex="1">
          <mxGeometry x="379" y="420" width="70" height="60" as="geometry" />
        </mxCell>
        <mxCell id="inVMOR2Yq0cUtfoW24WQ-28" value="" style="rounded=0;orthogonalLoop=1;jettySize=auto;html=1;fontColor=#0a0a0a;dashed=1;endArrow=open;endFill=0;entryX=0.5;entryY=0;entryDx=0;entryDy=0;" parent="1" source="inVMOR2Yq0cUtfoW24WQ-31" target="inVMOR2Yq0cUtfoW24WQ-45" edge="1">
          <mxGeometry relative="1" as="geometry" />
        </mxCell>
        <mxCell id="inVMOR2Yq0cUtfoW24WQ-29" style="edgeStyle=orthogonalEdgeStyle;rounded=0;orthogonalLoop=1;jettySize=auto;html=1;fontColor=#0a0a0a;dashed=1;endArrow=open;endFill=0;" parent="1" source="inVMOR2Yq0cUtfoW24WQ-31" edge="1">
          <mxGeometry relative="1" as="geometry">
            <mxPoint x="414" y="660" as="targetPoint" />
          </mxGeometry>
        </mxCell>
        <mxCell id="inVMOR2Yq0cUtfoW24WQ-30" style="rounded=0;orthogonalLoop=1;jettySize=auto;html=1;fontColor=#0a0a0a;dashed=1;endArrow=open;endFill=0;" parent="1" source="inVMOR2Yq0cUtfoW24WQ-31" edge="1">
          <mxGeometry relative="1" as="geometry">
            <mxPoint x="520" y="665.177304964539" as="targetPoint" />
          </mxGeometry>
        </mxCell>
        <mxCell id="inVMOR2Yq0cUtfoW24WQ-31" value="Object Under Test" style="rounded=1;whiteSpace=wrap;html=1;shadow=1;strokeWidth=1;fillColor=#d5e8d4;strokeColor=#82b366;" parent="1" vertex="1">
          <mxGeometry x="354" y="560" width="120" height="60" as="geometry" />
        </mxCell>
        <mxCell id="inVMOR2Yq0cUtfoW24WQ-32" value="" style="rounded=0;orthogonalLoop=1;jettySize=auto;html=1;fontColor=#0a0a0a;endArrow=open;endFill=0;dashed=1;" parent="1" source="inVMOR2Yq0cUtfoW24WQ-34" target="inVMOR2Yq0cUtfoW24WQ-40" edge="1">
          <mxGeometry relative="1" as="geometry">
            <mxPoint x="250" y="728" as="sourcePoint" />
          </mxGeometry>
        </mxCell>
        <mxCell id="inVMOR2Yq0cUtfoW24WQ-33" value="" style="edgeStyle=none;shape=connector;rounded=0;orthogonalLoop=1;jettySize=auto;html=1;labelBackgroundColor=default;strokeColor=default;fontFamily=Helvetica;fontSize=11;fontColor=#0a0a0a;endArrow=open;endFill=0;dashed=1;" parent="1" source="inVMOR2Yq0cUtfoW24WQ-34" target="inVMOR2Yq0cUtfoW24WQ-41" edge="1">
          <mxGeometry relative="1" as="geometry">
            <mxPoint x="285" y="730" as="sourcePoint" />
          </mxGeometry>
        </mxCell>
        <mxCell id="inVMOR2Yq0cUtfoW24WQ-34" value="" style="whiteSpace=wrap;html=1;rounded=1;shadow=1;strokeWidth=1;fillColor=#dae8fc;strokeColor=#6c8ebf;" parent="1" vertex="1">
          <mxGeometry x="250" y="680" width="70" height="40" as="geometry" />
        </mxCell>
        <mxCell id="inVMOR2Yq0cUtfoW24WQ-35" value="" style="edgeStyle=none;shape=connector;rounded=0;orthogonalLoop=1;jettySize=auto;html=1;labelBackgroundColor=default;strokeColor=default;fontFamily=Helvetica;fontSize=11;fontColor=#0a0a0a;endArrow=open;endFill=0;dashed=1;" parent="1" target="inVMOR2Yq0cUtfoW24WQ-44" edge="1">
          <mxGeometry relative="1" as="geometry">
            <mxPoint x="414" y="720" as="sourcePoint" />
          </mxGeometry>
        </mxCell>
        <mxCell id="inVMOR2Yq0cUtfoW24WQ-37" value="" style="edgeStyle=none;shape=connector;rounded=0;orthogonalLoop=1;jettySize=auto;html=1;labelBackgroundColor=default;strokeColor=default;fontFamily=Helvetica;fontSize=11;fontColor=#0a0a0a;endArrow=open;endFill=0;dashed=1;" parent="1" target="inVMOR2Yq0cUtfoW24WQ-42" edge="1">
          <mxGeometry relative="1" as="geometry">
            <mxPoint x="582" y="720" as="sourcePoint" />
          </mxGeometry>
        </mxCell>
        <mxCell id="inVMOR2Yq0cUtfoW24WQ-38" value="" style="edgeStyle=none;shape=connector;rounded=0;orthogonalLoop=1;jettySize=auto;html=1;labelBackgroundColor=default;strokeColor=default;fontFamily=Helvetica;fontSize=11;fontColor=#0a0a0a;endArrow=open;endFill=0;dashed=1;exitX=0.5;exitY=1;exitDx=0;exitDy=0;" parent="1" target="inVMOR2Yq0cUtfoW24WQ-43" edge="1">
          <mxGeometry relative="1" as="geometry">
            <mxPoint x="555" y="720" as="sourcePoint" />
          </mxGeometry>
        </mxCell>
        <mxCell id="inVMOR2Yq0cUtfoW24WQ-40" value="" style="whiteSpace=wrap;html=1;fontColor=#333333;rounded=1;shadow=1;strokeWidth=1;fillColor=#f5f5f5;strokeColor=#666666;" parent="1" vertex="1">
          <mxGeometry x="150" y="760" width="70" height="60" as="geometry" />
        </mxCell>
        <mxCell id="inVMOR2Yq0cUtfoW24WQ-41" value="" style="whiteSpace=wrap;html=1;fontColor=#333333;rounded=1;shadow=1;strokeWidth=1;fillColor=#f5f5f5;strokeColor=#666666;" parent="1" vertex="1">
          <mxGeometry x="250" y="760" width="70" height="60" as="geometry" />
        </mxCell>
        <mxCell id="inVMOR2Yq0cUtfoW24WQ-42" value="" style="whiteSpace=wrap;html=1;fontColor=#333333;rounded=1;shadow=1;strokeWidth=1;fillColor=#f5f5f5;strokeColor=#666666;" parent="1" vertex="1">
          <mxGeometry x="610" y="760" width="70" height="60" as="geometry" />
        </mxCell>
        <mxCell id="inVMOR2Yq0cUtfoW24WQ-43" value="" style="whiteSpace=wrap;html=1;fontColor=#333333;rounded=1;shadow=1;strokeWidth=1;fillColor=#f5f5f5;strokeColor=#666666;" parent="1" vertex="1">
          <mxGeometry x="520" y="760" width="70" height="60" as="geometry" />
        </mxCell>
        <mxCell id="inVMOR2Yq0cUtfoW24WQ-44" value="" style="whiteSpace=wrap;html=1;fontColor=#333333;rounded=1;shadow=1;strokeWidth=1;fillColor=#f5f5f5;strokeColor=#666666;" parent="1" vertex="1">
          <mxGeometry x="379" y="760" width="70" height="60" as="geometry" />
        </mxCell>
        <mxCell id="inVMOR2Yq0cUtfoW24WQ-45" value="" style="whiteSpace=wrap;html=1;rounded=1;shadow=1;strokeWidth=1;fillColor=#dae8fc;strokeColor=#6c8ebf;" parent="1" vertex="1">
          <mxGeometry x="250" y="660" width="70" height="10" as="geometry" />
        </mxCell>
        <mxCell id="inVMOR2Yq0cUtfoW24WQ-47" value="" style="whiteSpace=wrap;html=1;rounded=1;shadow=1;strokeWidth=1;fillColor=#dae8fc;strokeColor=#6c8ebf;" parent="1" vertex="1">
          <mxGeometry x="379" y="680" width="70" height="40" as="geometry" />
        </mxCell>
        <mxCell id="inVMOR2Yq0cUtfoW24WQ-48" value="" style="whiteSpace=wrap;html=1;rounded=1;shadow=1;strokeWidth=1;fillColor=#dae8fc;strokeColor=#6c8ebf;" parent="1" vertex="1">
          <mxGeometry x="379" y="660" width="70" height="10" as="geometry" />
        </mxCell>
      </root>
    </mxGraphModel>
  </diagram>
  <diagram id="pJ3GWBOTV8kznOu0dA08" name="hierarchy-slide-test">
    <mxGraphModel dx="1408" dy="971" grid="1" gridSize="10" guides="1" tooltips="1" connect="1" arrows="1" fold="1" page="1" pageScale="1" pageWidth="1169" pageHeight="827" math="0" shadow="0">
      <root>
        <mxCell id="0" />
        <mxCell id="1" parent="0" />
        <mxCell id="fL344oPfGnd69lacCE0P-111" value="Production" style="rounded=0;whiteSpace=wrap;html=1;shadow=1;dashed=1;strokeWidth=1;labelPosition=center;verticalLabelPosition=top;align=center;verticalAlign=bottom;fontStyle=3;fontSize=13;strokeColor=none;" parent="1" vertex="1">
          <mxGeometry x="80" y="824" width="590" height="416" as="geometry" />
        </mxCell>
        <mxCell id="fL344oPfGnd69lacCE0P-112" value="Testing" style="rounded=0;whiteSpace=wrap;html=1;shadow=1;dashed=1;strokeWidth=1;fillColor=#DAEDD9;strokeColor=none;labelPosition=center;verticalLabelPosition=top;align=center;verticalAlign=bottom;fontStyle=3;fontSize=13;" parent="1" vertex="1">
          <mxGeometry x="670" y="824" width="370" height="416" as="geometry" />
        </mxCell>
        <mxCell id="fL344oPfGnd69lacCE0P-110" value="Production" style="rounded=0;whiteSpace=wrap;html=1;shadow=0;dashed=1;strokeWidth=1;labelPosition=center;verticalLabelPosition=top;align=center;verticalAlign=bottom;fontStyle=3;fontSize=13;strokeColor=none;" parent="1" vertex="1">
          <mxGeometry x="300" y="384" width="370" height="336" as="geometry" />
        </mxCell>
        <mxCell id="fL344oPfGnd69lacCE0P-109" value="Testing" style="rounded=0;whiteSpace=wrap;html=1;shadow=0;dashed=1;strokeWidth=1;fillColor=#DAEDD9;strokeColor=none;labelPosition=center;verticalLabelPosition=top;align=center;verticalAlign=bottom;fontStyle=3;fontSize=13;" parent="1" vertex="1">
          <mxGeometry x="670" y="384" width="370" height="336" as="geometry" />
        </mxCell>
        <mxCell id="fL344oPfGnd69lacCE0P-1" value="Class Under Tests" style="rounded=1;whiteSpace=wrap;html=1;labelPosition=center;verticalLabelPosition=top;align=center;verticalAlign=bottom;shadow=1;" parent="1" vertex="1">
          <mxGeometry x="80" y="80" width="130" height="210" as="geometry" />
        </mxCell>
        <mxCell id="fL344oPfGnd69lacCE0P-2" value="def ..." style="rounded=1;whiteSpace=wrap;html=1;fillColor=#dae8fc;strokeColor=#6c8ebf;shadow=1;" parent="1" vertex="1">
          <mxGeometry x="90" y="100" width="110" height="20" as="geometry" />
        </mxCell>
        <mxCell id="fL344oPfGnd69lacCE0P-8" value="def ..." style="rounded=1;whiteSpace=wrap;html=1;fillColor=#dae8fc;strokeColor=#6c8ebf;shadow=1;" parent="1" vertex="1">
          <mxGeometry x="90" y="130" width="110" height="20" as="geometry" />
        </mxCell>
        <mxCell id="fL344oPfGnd69lacCE0P-9" value="def hard(self)" style="rounded=1;whiteSpace=wrap;html=1;fillColor=#f8cecc;strokeColor=#b85450;shadow=1;" parent="1" vertex="1">
          <mxGeometry x="90" y="160" width="110" height="20" as="geometry" />
        </mxCell>
        <mxCell id="fL344oPfGnd69lacCE0P-10" value="def ..." style="rounded=1;whiteSpace=wrap;html=1;fillColor=#dae8fc;strokeColor=#6c8ebf;shadow=1;" parent="1" vertex="1">
          <mxGeometry x="90" y="190" width="110" height="20" as="geometry" />
        </mxCell>
        <mxCell id="fL344oPfGnd69lacCE0P-11" value="def ..." style="rounded=1;whiteSpace=wrap;html=1;fillColor=#dae8fc;strokeColor=#6c8ebf;shadow=1;" parent="1" vertex="1">
          <mxGeometry x="90" y="220" width="110" height="20" as="geometry" />
        </mxCell>
        <mxCell id="fL344oPfGnd69lacCE0P-12" value="def ..." style="rounded=1;whiteSpace=wrap;html=1;fillColor=#dae8fc;strokeColor=#6c8ebf;shadow=1;" parent="1" vertex="1">
          <mxGeometry x="90" y="250" width="110" height="20" as="geometry" />
        </mxCell>
        <mxCell id="fL344oPfGnd69lacCE0P-15" style="edgeStyle=orthogonalEdgeStyle;rounded=0;orthogonalLoop=1;jettySize=auto;html=1;entryX=1;entryY=0.25;entryDx=0;entryDy=0;" parent="1" source="fL344oPfGnd69lacCE0P-13" target="fL344oPfGnd69lacCE0P-9" edge="1">
          <mxGeometry relative="1" as="geometry" />
        </mxCell>
        <mxCell id="fL344oPfGnd69lacCE0P-13" value="Hard part to test" style="text;html=1;strokeColor=none;fillColor=none;align=center;verticalAlign=middle;whiteSpace=wrap;rounded=0;shadow=1;" parent="1" vertex="1">
          <mxGeometry x="250" y="150" width="60" height="30" as="geometry" />
        </mxCell>
        <mxCell id="fL344oPfGnd69lacCE0P-27" value="Class Under Tests" style="rounded=1;whiteSpace=wrap;html=1;labelPosition=center;verticalLabelPosition=top;align=center;verticalAlign=bottom;shadow=1;" parent="1" vertex="1">
          <mxGeometry x="440" y="80" width="130" height="270" as="geometry" />
        </mxCell>
        <mxCell id="fL344oPfGnd69lacCE0P-28" value="def ..." style="rounded=1;whiteSpace=wrap;html=1;fillColor=#dae8fc;strokeColor=#6c8ebf;shadow=1;" parent="1" vertex="1">
          <mxGeometry x="450" y="100" width="110" height="20" as="geometry" />
        </mxCell>
        <mxCell id="fL344oPfGnd69lacCE0P-29" value="def ..." style="rounded=1;whiteSpace=wrap;html=1;fillColor=#dae8fc;strokeColor=#6c8ebf;shadow=1;" parent="1" vertex="1">
          <mxGeometry x="450" y="130" width="110" height="20" as="geometry" />
        </mxCell>
        <mxCell id="fL344oPfGnd69lacCE0P-30" value="def hard(self)" style="rounded=1;whiteSpace=wrap;html=1;fillColor=#ffe6cc;strokeColor=#d79b00;shadow=1;verticalAlign=top;" parent="1" vertex="1">
          <mxGeometry x="450" y="160" width="110" height="80" as="geometry" />
        </mxCell>
        <mxCell id="fL344oPfGnd69lacCE0P-31" value="def ..." style="rounded=1;whiteSpace=wrap;html=1;fillColor=#dae8fc;strokeColor=#6c8ebf;shadow=1;" parent="1" vertex="1">
          <mxGeometry x="450" y="250" width="110" height="20" as="geometry" />
        </mxCell>
        <mxCell id="fL344oPfGnd69lacCE0P-32" value="def ..." style="rounded=1;whiteSpace=wrap;html=1;fillColor=#dae8fc;strokeColor=#6c8ebf;shadow=1;" parent="1" vertex="1">
          <mxGeometry x="450" y="280" width="110" height="20" as="geometry" />
        </mxCell>
        <mxCell id="fL344oPfGnd69lacCE0P-33" value="def ..." style="rounded=1;whiteSpace=wrap;html=1;fillColor=#dae8fc;strokeColor=#6c8ebf;shadow=1;" parent="1" vertex="1">
          <mxGeometry x="450" y="310" width="110" height="20" as="geometry" />
        </mxCell>
        <mxCell id="fL344oPfGnd69lacCE0P-34" style="edgeStyle=orthogonalEdgeStyle;rounded=0;orthogonalLoop=1;jettySize=auto;html=1;entryX=1;entryY=0.5;entryDx=0;entryDy=0;" parent="1" source="fL344oPfGnd69lacCE0P-35" target="fL344oPfGnd69lacCE0P-36" edge="1">
          <mxGeometry relative="1" as="geometry" />
        </mxCell>
        <mxCell id="fL344oPfGnd69lacCE0P-35" value="Hard part to test" style="text;html=1;strokeColor=none;fillColor=none;align=center;verticalAlign=middle;whiteSpace=wrap;rounded=0;shadow=1;" parent="1" vertex="1">
          <mxGeometry x="660" y="190" width="60" height="30" as="geometry" />
        </mxCell>
        <mxCell id="fL344oPfGnd69lacCE0P-36" value="very_hard&lt;br&gt;" style="rounded=1;whiteSpace=wrap;html=1;fillColor=#f8cecc;strokeColor=#b85450;shadow=1;" parent="1" vertex="1">
          <mxGeometry x="475" y="190" width="110" height="30" as="geometry" />
        </mxCell>
        <mxCell id="fL344oPfGnd69lacCE0P-37" value="Class Under Tests" style="rounded=1;whiteSpace=wrap;html=1;labelPosition=center;verticalLabelPosition=top;align=center;verticalAlign=bottom;shadow=1;" parent="1" vertex="1">
          <mxGeometry x="840" y="80" width="130" height="250" as="geometry" />
        </mxCell>
        <mxCell id="fL344oPfGnd69lacCE0P-38" value="def ..." style="rounded=1;whiteSpace=wrap;html=1;fillColor=#dae8fc;strokeColor=#6c8ebf;shadow=1;" parent="1" vertex="1">
          <mxGeometry x="850" y="100" width="110" height="20" as="geometry" />
        </mxCell>
        <mxCell id="fL344oPfGnd69lacCE0P-39" value="def ..." style="rounded=1;whiteSpace=wrap;html=1;fillColor=#dae8fc;strokeColor=#6c8ebf;shadow=1;" parent="1" vertex="1">
          <mxGeometry x="850" y="130" width="110" height="20" as="geometry" />
        </mxCell>
        <mxCell id="fL344oPfGnd69lacCE0P-48" style="edgeStyle=orthogonalEdgeStyle;orthogonalLoop=1;jettySize=auto;html=1;entryX=0;entryY=0.5;entryDx=0;entryDy=0;curved=1;" parent="1" source="fL344oPfGnd69lacCE0P-40" target="fL344oPfGnd69lacCE0P-46" edge="1">
          <mxGeometry relative="1" as="geometry">
            <Array as="points">
              <mxPoint x="810" y="170" />
              <mxPoint x="810" y="200" />
            </Array>
          </mxGeometry>
        </mxCell>
        <mxCell id="fL344oPfGnd69lacCE0P-40" value="def simple(self)" style="rounded=1;whiteSpace=wrap;html=1;fillColor=#ffe6cc;strokeColor=#d79b00;shadow=1;verticalAlign=middle;" parent="1" vertex="1">
          <mxGeometry x="850" y="160" width="110" height="20" as="geometry" />
        </mxCell>
        <mxCell id="fL344oPfGnd69lacCE0P-41" value="def ..." style="rounded=1;whiteSpace=wrap;html=1;fillColor=#dae8fc;strokeColor=#6c8ebf;shadow=1;" parent="1" vertex="1">
          <mxGeometry x="850" y="230" width="110" height="20" as="geometry" />
        </mxCell>
        <mxCell id="fL344oPfGnd69lacCE0P-42" value="def ..." style="rounded=1;whiteSpace=wrap;html=1;fillColor=#dae8fc;strokeColor=#6c8ebf;shadow=1;" parent="1" vertex="1">
          <mxGeometry x="850" y="260" width="110" height="20" as="geometry" />
        </mxCell>
        <mxCell id="fL344oPfGnd69lacCE0P-43" value="def ..." style="rounded=1;whiteSpace=wrap;html=1;fillColor=#dae8fc;strokeColor=#6c8ebf;shadow=1;" parent="1" vertex="1">
          <mxGeometry x="850" y="290" width="110" height="20" as="geometry" />
        </mxCell>
        <mxCell id="fL344oPfGnd69lacCE0P-44" style="edgeStyle=orthogonalEdgeStyle;rounded=0;orthogonalLoop=1;jettySize=auto;html=1;entryX=1;entryY=0.5;entryDx=0;entryDy=0;" parent="1" source="fL344oPfGnd69lacCE0P-45" target="fL344oPfGnd69lacCE0P-46" edge="1">
          <mxGeometry relative="1" as="geometry" />
        </mxCell>
        <mxCell id="fL344oPfGnd69lacCE0P-45" value="Hard part to test" style="text;html=1;strokeColor=none;fillColor=none;align=center;verticalAlign=middle;whiteSpace=wrap;rounded=0;shadow=1;" parent="1" vertex="1">
          <mxGeometry x="1060" y="182.5" width="60" height="35" as="geometry" />
        </mxCell>
        <mxCell id="fL344oPfGnd69lacCE0P-46" value="def very_hard(self)" style="rounded=1;whiteSpace=wrap;html=1;fillColor=#f8cecc;strokeColor=#b85450;shadow=1;" parent="1" vertex="1">
          <mxGeometry x="890" y="190" width="110" height="20" as="geometry" />
        </mxCell>
        <mxCell id="fL344oPfGnd69lacCE0P-49" value="Class Under Tests" style="rounded=1;whiteSpace=wrap;html=1;labelPosition=center;verticalLabelPosition=top;align=center;verticalAlign=bottom;shadow=1;" parent="1" vertex="1">
          <mxGeometry x="440" y="440" width="130" height="250" as="geometry" />
        </mxCell>
        <mxCell id="fL344oPfGnd69lacCE0P-50" value="def ..." style="rounded=1;whiteSpace=wrap;html=1;fillColor=#dae8fc;strokeColor=#6c8ebf;shadow=1;" parent="1" vertex="1">
          <mxGeometry x="450" y="460" width="110" height="20" as="geometry" />
        </mxCell>
        <mxCell id="fL344oPfGnd69lacCE0P-51" value="def ..." style="rounded=1;whiteSpace=wrap;html=1;fillColor=#dae8fc;strokeColor=#6c8ebf;shadow=1;" parent="1" vertex="1">
          <mxGeometry x="450" y="490" width="110" height="20" as="geometry" />
        </mxCell>
        <mxCell id="fL344oPfGnd69lacCE0P-52" style="edgeStyle=orthogonalEdgeStyle;orthogonalLoop=1;jettySize=auto;html=1;entryX=0;entryY=0.5;entryDx=0;entryDy=0;curved=1;" parent="1" source="fL344oPfGnd69lacCE0P-53" target="fL344oPfGnd69lacCE0P-58" edge="1">
          <mxGeometry relative="1" as="geometry">
            <Array as="points">
              <mxPoint x="410" y="530" />
              <mxPoint x="410" y="560" />
            </Array>
          </mxGeometry>
        </mxCell>
        <mxCell id="fL344oPfGnd69lacCE0P-53" value="def simple(self)" style="rounded=1;whiteSpace=wrap;html=1;fillColor=#ffe6cc;strokeColor=#d79b00;shadow=1;verticalAlign=middle;" parent="1" vertex="1">
          <mxGeometry x="450" y="520" width="110" height="20" as="geometry" />
        </mxCell>
        <mxCell id="fL344oPfGnd69lacCE0P-54" value="def ..." style="rounded=1;whiteSpace=wrap;html=1;fillColor=#dae8fc;strokeColor=#6c8ebf;shadow=1;" parent="1" vertex="1">
          <mxGeometry x="450" y="590" width="110" height="20" as="geometry" />
        </mxCell>
        <mxCell id="fL344oPfGnd69lacCE0P-55" value="def ..." style="rounded=1;whiteSpace=wrap;html=1;fillColor=#dae8fc;strokeColor=#6c8ebf;shadow=1;" parent="1" vertex="1">
          <mxGeometry x="450" y="620" width="110" height="20" as="geometry" />
        </mxCell>
        <mxCell id="fL344oPfGnd69lacCE0P-56" value="def ..." style="rounded=1;whiteSpace=wrap;html=1;fillColor=#dae8fc;strokeColor=#6c8ebf;shadow=1;" parent="1" vertex="1">
          <mxGeometry x="450" y="650" width="110" height="20" as="geometry" />
        </mxCell>
        <mxCell id="fL344oPfGnd69lacCE0P-58" value="def very_hard(self)" style="rounded=1;whiteSpace=wrap;html=1;fillColor=#f8cecc;strokeColor=#b85450;shadow=1;" parent="1" vertex="1">
          <mxGeometry x="490" y="550" width="110" height="20" as="geometry" />
        </mxCell>
        <mxCell id="fL344oPfGnd69lacCE0P-59" value="Override Class For Tests" style="rounded=1;whiteSpace=wrap;html=1;labelPosition=center;verticalLabelPosition=top;align=center;verticalAlign=bottom;shadow=1;" parent="1" vertex="1">
          <mxGeometry x="760" y="440" width="130" height="250" as="geometry" />
        </mxCell>
        <mxCell id="fL344oPfGnd69lacCE0P-60" value="def ..." style="rounded=1;whiteSpace=wrap;html=1;fillColor=#dae8fc;strokeColor=#6c8ebf;shadow=1;" parent="1" vertex="1">
          <mxGeometry x="770" y="460" width="110" height="20" as="geometry" />
        </mxCell>
        <mxCell id="fL344oPfGnd69lacCE0P-61" value="def ..." style="rounded=1;whiteSpace=wrap;html=1;fillColor=#dae8fc;strokeColor=#6c8ebf;shadow=1;" parent="1" vertex="1">
          <mxGeometry x="770" y="490" width="110" height="20" as="geometry" />
        </mxCell>
        <mxCell id="fL344oPfGnd69lacCE0P-62" style="edgeStyle=orthogonalEdgeStyle;orthogonalLoop=1;jettySize=auto;html=1;entryX=0;entryY=0.5;entryDx=0;entryDy=0;curved=1;" parent="1" source="fL344oPfGnd69lacCE0P-63" target="fL344oPfGnd69lacCE0P-67" edge="1">
          <mxGeometry relative="1" as="geometry">
            <Array as="points">
              <mxPoint x="730" y="530" />
              <mxPoint x="730" y="560" />
            </Array>
          </mxGeometry>
        </mxCell>
        <mxCell id="fL344oPfGnd69lacCE0P-63" value="def simple(self)" style="rounded=1;whiteSpace=wrap;html=1;fillColor=#ffe6cc;strokeColor=#d79b00;shadow=1;verticalAlign=middle;" parent="1" vertex="1">
          <mxGeometry x="770" y="520" width="110" height="20" as="geometry" />
        </mxCell>
        <mxCell id="fL344oPfGnd69lacCE0P-64" value="def ..." style="rounded=1;whiteSpace=wrap;html=1;fillColor=#dae8fc;strokeColor=#6c8ebf;shadow=1;" parent="1" vertex="1">
          <mxGeometry x="770" y="590" width="110" height="20" as="geometry" />
        </mxCell>
        <mxCell id="fL344oPfGnd69lacCE0P-65" value="def ..." style="rounded=1;whiteSpace=wrap;html=1;fillColor=#dae8fc;strokeColor=#6c8ebf;shadow=1;" parent="1" vertex="1">
          <mxGeometry x="770" y="620" width="110" height="20" as="geometry" />
        </mxCell>
        <mxCell id="fL344oPfGnd69lacCE0P-66" value="def ..." style="rounded=1;whiteSpace=wrap;html=1;fillColor=#dae8fc;strokeColor=#6c8ebf;shadow=1;" parent="1" vertex="1">
          <mxGeometry x="770" y="650" width="110" height="20" as="geometry" />
        </mxCell>
        <mxCell id="fL344oPfGnd69lacCE0P-67" value="def very_hard(self)" style="rounded=1;whiteSpace=wrap;html=1;fillColor=#f5f5f5;strokeColor=#666666;shadow=1;fontColor=#333333;" parent="1" vertex="1">
          <mxGeometry x="810" y="550" width="110" height="20" as="geometry" />
        </mxCell>
        <mxCell id="fL344oPfGnd69lacCE0P-68" value="Extends" style="endArrow=block;endSize=16;endFill=0;html=1;curved=1;exitX=0;exitY=0.25;exitDx=0;exitDy=0;entryX=1;entryY=0.25;entryDx=0;entryDy=0;" parent="1" source="fL344oPfGnd69lacCE0P-59" target="fL344oPfGnd69lacCE0P-49" edge="1">
          <mxGeometry width="160" relative="1" as="geometry">
            <mxPoint x="520" y="380" as="sourcePoint" />
            <mxPoint x="680" y="380" as="targetPoint" />
          </mxGeometry>
        </mxCell>
        <mxCell id="fL344oPfGnd69lacCE0P-69" value="Mocked" style="text;html=1;strokeColor=none;fillColor=none;align=center;verticalAlign=middle;whiteSpace=wrap;rounded=0;shadow=1;" parent="1" vertex="1">
          <mxGeometry x="980" y="542.5" width="60" height="35" as="geometry" />
        </mxCell>
        <mxCell id="fL344oPfGnd69lacCE0P-70" style="edgeStyle=orthogonalEdgeStyle;rounded=0;orthogonalLoop=1;jettySize=auto;html=1;entryX=1;entryY=0.5;entryDx=0;entryDy=0;" parent="1" source="fL344oPfGnd69lacCE0P-69" edge="1">
          <mxGeometry relative="1" as="geometry">
            <mxPoint x="920" y="560" as="targetPoint" />
          </mxGeometry>
        </mxCell>
        <mxCell id="fL344oPfGnd69lacCE0P-71" value="Class Under Tests" style="rounded=1;whiteSpace=wrap;html=1;labelPosition=center;verticalLabelPosition=top;align=center;verticalAlign=bottom;shadow=1;" parent="1" vertex="1">
          <mxGeometry x="440" y="870" width="130" height="250" as="geometry" />
        </mxCell>
        <mxCell id="fL344oPfGnd69lacCE0P-72" value="def ..." style="rounded=1;whiteSpace=wrap;html=1;fillColor=#dae8fc;strokeColor=#6c8ebf;shadow=1;" parent="1" vertex="1">
          <mxGeometry x="450" y="890" width="110" height="20" as="geometry" />
        </mxCell>
        <mxCell id="fL344oPfGnd69lacCE0P-73" value="def ..." style="rounded=1;whiteSpace=wrap;html=1;fillColor=#dae8fc;strokeColor=#6c8ebf;shadow=1;" parent="1" vertex="1">
          <mxGeometry x="450" y="920" width="110" height="20" as="geometry" />
        </mxCell>
        <mxCell id="fL344oPfGnd69lacCE0P-74" style="edgeStyle=orthogonalEdgeStyle;orthogonalLoop=1;jettySize=auto;html=1;entryX=0;entryY=0.5;entryDx=0;entryDy=0;curved=1;" parent="1" source="fL344oPfGnd69lacCE0P-75" target="fL344oPfGnd69lacCE0P-79" edge="1">
          <mxGeometry relative="1" as="geometry">
            <Array as="points">
              <mxPoint x="410" y="960" />
              <mxPoint x="410" y="990" />
            </Array>
          </mxGeometry>
        </mxCell>
        <mxCell id="fL344oPfGnd69lacCE0P-75" value="def simple(self)" style="rounded=1;whiteSpace=wrap;html=1;fillColor=#ffe6cc;strokeColor=#d79b00;shadow=1;verticalAlign=middle;" parent="1" vertex="1">
          <mxGeometry x="450" y="950" width="110" height="20" as="geometry" />
        </mxCell>
        <mxCell id="fL344oPfGnd69lacCE0P-76" value="def ..." style="rounded=1;whiteSpace=wrap;html=1;fillColor=#dae8fc;strokeColor=#6c8ebf;shadow=1;" parent="1" vertex="1">
          <mxGeometry x="450" y="1020" width="110" height="20" as="geometry" />
        </mxCell>
        <mxCell id="fL344oPfGnd69lacCE0P-77" value="def ..." style="rounded=1;whiteSpace=wrap;html=1;fillColor=#dae8fc;strokeColor=#6c8ebf;shadow=1;" parent="1" vertex="1">
          <mxGeometry x="450" y="1050" width="110" height="20" as="geometry" />
        </mxCell>
        <mxCell id="fL344oPfGnd69lacCE0P-78" value="def ..." style="rounded=1;whiteSpace=wrap;html=1;fillColor=#dae8fc;strokeColor=#6c8ebf;shadow=1;" parent="1" vertex="1">
          <mxGeometry x="450" y="1080" width="110" height="20" as="geometry" />
        </mxCell>
        <mxCell id="fL344oPfGnd69lacCE0P-79" value="def very_hard(self)" style="rounded=1;whiteSpace=wrap;html=1;fillColor=#f8cecc;strokeColor=#b85450;shadow=1;" parent="1" vertex="1">
          <mxGeometry x="490" y="980" width="110" height="20" as="geometry" />
        </mxCell>
        <mxCell id="fL344oPfGnd69lacCE0P-80" value="Abstract Upper Class" style="rounded=1;whiteSpace=wrap;html=1;labelPosition=center;verticalLabelPosition=top;align=center;verticalAlign=bottom;shadow=1;dashed=1;" parent="1" vertex="1">
          <mxGeometry x="130" y="870" width="130" height="250" as="geometry" />
        </mxCell>
        <mxCell id="fL344oPfGnd69lacCE0P-81" value="def ..." style="rounded=1;whiteSpace=wrap;html=1;fillColor=#dae8fc;strokeColor=#6c8ebf;shadow=1;" parent="1" vertex="1">
          <mxGeometry x="140" y="890" width="110" height="20" as="geometry" />
        </mxCell>
        <mxCell id="fL344oPfGnd69lacCE0P-82" value="def ..." style="rounded=1;whiteSpace=wrap;html=1;fillColor=#dae8fc;strokeColor=#6c8ebf;shadow=1;" parent="1" vertex="1">
          <mxGeometry x="140" y="920" width="110" height="20" as="geometry" />
        </mxCell>
        <mxCell id="fL344oPfGnd69lacCE0P-83" style="edgeStyle=orthogonalEdgeStyle;orthogonalLoop=1;jettySize=auto;html=1;entryX=0;entryY=0.5;entryDx=0;entryDy=0;curved=1;" parent="1" source="fL344oPfGnd69lacCE0P-84" edge="1">
          <mxGeometry relative="1" as="geometry">
            <mxPoint x="180" y="990" as="targetPoint" />
            <Array as="points">
              <mxPoint x="100" y="960" />
              <mxPoint x="100" y="990" />
            </Array>
          </mxGeometry>
        </mxCell>
        <mxCell id="fL344oPfGnd69lacCE0P-84" value="def simple(self)" style="rounded=1;whiteSpace=wrap;html=1;fillColor=#ffe6cc;strokeColor=#d79b00;shadow=1;verticalAlign=middle;" parent="1" vertex="1">
          <mxGeometry x="140" y="950" width="110" height="20" as="geometry" />
        </mxCell>
        <mxCell id="fL344oPfGnd69lacCE0P-85" value="def ..." style="rounded=1;whiteSpace=wrap;html=1;fillColor=#dae8fc;strokeColor=#6c8ebf;shadow=1;" parent="1" vertex="1">
          <mxGeometry x="140" y="1030" width="110" height="20" as="geometry" />
        </mxCell>
        <mxCell id="fL344oPfGnd69lacCE0P-86" value="def ..." style="rounded=1;whiteSpace=wrap;html=1;fillColor=#dae8fc;strokeColor=#6c8ebf;shadow=1;" parent="1" vertex="1">
          <mxGeometry x="140" y="1060" width="110" height="20" as="geometry" />
        </mxCell>
        <mxCell id="fL344oPfGnd69lacCE0P-87" value="def ..." style="rounded=1;whiteSpace=wrap;html=1;fillColor=#dae8fc;strokeColor=#6c8ebf;shadow=1;" parent="1" vertex="1">
          <mxGeometry x="140" y="1090" width="110" height="20" as="geometry" />
        </mxCell>
        <mxCell id="fL344oPfGnd69lacCE0P-88" value="Extends" style="endArrow=block;endSize=16;endFill=0;html=1;curved=1;exitX=0;exitY=0.25;exitDx=0;exitDy=0;entryX=1;entryY=0.25;entryDx=0;entryDy=0;" parent="1" source="fL344oPfGnd69lacCE0P-71" target="fL344oPfGnd69lacCE0P-80" edge="1">
          <mxGeometry width="160" relative="1" as="geometry">
            <mxPoint x="740" y="622.5" as="sourcePoint" />
            <mxPoint x="550" y="622.5" as="targetPoint" />
          </mxGeometry>
        </mxCell>
        <mxCell id="fL344oPfGnd69lacCE0P-89" value="&lt;b&gt;@abstractmethod&lt;/b&gt;&lt;br&gt;def very_hard(self)" style="rounded=1;whiteSpace=wrap;html=1;fillColor=#f5f5f5;strokeColor=#666666;shadow=1;dashed=1;fontColor=#333333;strokeWidth=1;dashPattern=1 2;align=left;spacingLeft=5;" parent="1" vertex="1">
          <mxGeometry x="180" y="980" width="130" height="40" as="geometry" />
        </mxCell>
        <mxCell id="fL344oPfGnd69lacCE0P-90" value="Override Upper Class For Tests" style="rounded=1;whiteSpace=wrap;html=1;labelPosition=center;verticalLabelPosition=top;align=center;verticalAlign=bottom;shadow=1;dashed=1;" parent="1" vertex="1">
          <mxGeometry x="760" y="870" width="130" height="250" as="geometry" />
        </mxCell>
        <mxCell id="fL344oPfGnd69lacCE0P-91" value="def ..." style="rounded=1;whiteSpace=wrap;html=1;fillColor=#dae8fc;strokeColor=#6c8ebf;shadow=1;" parent="1" vertex="1">
          <mxGeometry x="770" y="890" width="110" height="20" as="geometry" />
        </mxCell>
        <mxCell id="fL344oPfGnd69lacCE0P-92" value="def ..." style="rounded=1;whiteSpace=wrap;html=1;fillColor=#dae8fc;strokeColor=#6c8ebf;shadow=1;" parent="1" vertex="1">
          <mxGeometry x="770" y="920" width="110" height="20" as="geometry" />
        </mxCell>
        <mxCell id="fL344oPfGnd69lacCE0P-93" style="edgeStyle=orthogonalEdgeStyle;orthogonalLoop=1;jettySize=auto;html=1;entryX=0;entryY=0.5;entryDx=0;entryDy=0;curved=1;" parent="1" source="fL344oPfGnd69lacCE0P-94" target="fL344oPfGnd69lacCE0P-98" edge="1">
          <mxGeometry relative="1" as="geometry">
            <Array as="points">
              <mxPoint x="730" y="960" />
              <mxPoint x="730" y="990" />
            </Array>
          </mxGeometry>
        </mxCell>
        <mxCell id="fL344oPfGnd69lacCE0P-94" value="def simple(self)" style="rounded=1;whiteSpace=wrap;html=1;fillColor=#ffe6cc;strokeColor=#d79b00;shadow=1;verticalAlign=middle;" parent="1" vertex="1">
          <mxGeometry x="770" y="950" width="110" height="20" as="geometry" />
        </mxCell>
        <mxCell id="fL344oPfGnd69lacCE0P-95" value="def ..." style="rounded=1;whiteSpace=wrap;html=1;fillColor=#dae8fc;strokeColor=#6c8ebf;shadow=1;" parent="1" vertex="1">
          <mxGeometry x="770" y="1020" width="110" height="20" as="geometry" />
        </mxCell>
        <mxCell id="fL344oPfGnd69lacCE0P-96" value="def ..." style="rounded=1;whiteSpace=wrap;html=1;fillColor=#dae8fc;strokeColor=#6c8ebf;shadow=1;" parent="1" vertex="1">
          <mxGeometry x="770" y="1050" width="110" height="20" as="geometry" />
        </mxCell>
        <mxCell id="fL344oPfGnd69lacCE0P-97" value="def ..." style="rounded=1;whiteSpace=wrap;html=1;fillColor=#dae8fc;strokeColor=#6c8ebf;shadow=1;" parent="1" vertex="1">
          <mxGeometry x="770" y="1080" width="110" height="20" as="geometry" />
        </mxCell>
        <mxCell id="fL344oPfGnd69lacCE0P-98" value="def very_hard(self)" style="rounded=1;whiteSpace=wrap;html=1;fillColor=#f5f5f5;strokeColor=#666666;shadow=1;fontColor=#333333;" parent="1" vertex="1">
          <mxGeometry x="810" y="980" width="110" height="20" as="geometry" />
        </mxCell>
        <mxCell id="fL344oPfGnd69lacCE0P-99" value="Extends" style="endArrow=block;endSize=16;endFill=0;html=1;exitX=0.5;exitY=1;exitDx=0;exitDy=0;entryX=0.5;entryY=1;entryDx=0;entryDy=0;rounded=1;edgeStyle=orthogonalEdgeStyle;" parent="1" source="fL344oPfGnd69lacCE0P-90" target="fL344oPfGnd69lacCE0P-80" edge="1">
          <mxGeometry width="160" relative="1" as="geometry">
            <mxPoint x="200" y="1100" as="sourcePoint" />
            <mxPoint x="250" y="1222.5" as="targetPoint" />
            <Array as="points">
              <mxPoint x="825" y="1170" />
              <mxPoint x="195" y="1170" />
            </Array>
          </mxGeometry>
        </mxCell>
        <mxCell id="fL344oPfGnd69lacCE0P-100" value="Don&#39;t care" style="text;html=1;strokeColor=none;fillColor=none;align=center;verticalAlign=middle;whiteSpace=wrap;rounded=0;shadow=1;" parent="1" vertex="1">
          <mxGeometry x="980" y="972.5" width="60" height="35" as="geometry" />
        </mxCell>
        <mxCell id="fL344oPfGnd69lacCE0P-101" style="edgeStyle=orthogonalEdgeStyle;rounded=0;orthogonalLoop=1;jettySize=auto;html=1;entryX=1;entryY=0.5;entryDx=0;entryDy=0;" parent="1" source="fL344oPfGnd69lacCE0P-100" edge="1">
          <mxGeometry relative="1" as="geometry">
            <mxPoint x="920" y="990" as="targetPoint" />
          </mxGeometry>
        </mxCell>
        <mxCell id="fL344oPfGnd69lacCE0P-102" value="" style="endArrow=none;html=1;strokeWidth=1;rounded=1;exitX=1;exitY=0.5;exitDx=0;exitDy=0;fillColor=#f8cecc;strokeColor=#b85450;" parent="1" source="fL344oPfGnd69lacCE0P-58" target="fL344oPfGnd69lacCE0P-67" edge="1">
          <mxGeometry width="50" height="50" relative="1" as="geometry">
            <mxPoint x="610" y="600" as="sourcePoint" />
            <mxPoint x="660" y="550" as="targetPoint" />
          </mxGeometry>
        </mxCell>
        <mxCell id="fL344oPfGnd69lacCE0P-103" value="Override" style="edgeLabel;html=1;align=center;verticalAlign=middle;resizable=0;points=[];" parent="fL344oPfGnd69lacCE0P-102" vertex="1" connectable="0">
          <mxGeometry x="-0.2845" y="2" relative="1" as="geometry">
            <mxPoint as="offset" />
          </mxGeometry>
        </mxCell>
        <mxCell id="fL344oPfGnd69lacCE0P-107" value="Specialisation" style="html=1;shadow=1;dashed=0;align=center;verticalAlign=middle;shape=mxgraph.arrows2.arrow;dy=0;dx=30;notch=30;rounded=1;strokeWidth=1;fillColor=#b1ddf0;strokeColor=#10739e;" parent="1" vertex="1">
          <mxGeometry x="590" y="400" width="150" height="40" as="geometry" />
        </mxCell>
        <mxCell id="fL344oPfGnd69lacCE0P-108" value="Generalization" style="html=1;shadow=1;dashed=0;align=center;verticalAlign=middle;shape=mxgraph.arrows2.arrow;dy=0;dx=30;notch=30;rounded=1;strokeWidth=1;fillColor=#b1ddf0;strokeColor=#10739e;flipH=1;" parent="1" vertex="1">
          <mxGeometry x="280" y="830" width="150" height="40" as="geometry" />
        </mxCell>
        <mxCell id="fL344oPfGnd69lacCE0P-113" value="Specialisation" style="html=1;shadow=1;dashed=0;align=center;verticalAlign=middle;shape=mxgraph.arrows2.arrow;dy=0;dx=30;notch=30;rounded=1;strokeWidth=1;fillColor=#b1ddf0;strokeColor=#10739e;" parent="1" vertex="1">
          <mxGeometry x="600" y="1190" width="150" height="40" as="geometry" />
        </mxCell>
      </root>
    </mxGraphModel>
  </diagram>
  <diagram id="eNEoGsH70bZLpzlCVlzL" name="Page-7">
    <mxGraphModel dx="1408" dy="971" grid="1" gridSize="10" guides="1" tooltips="1" connect="1" arrows="1" fold="1" page="1" pageScale="1" pageWidth="1169" pageHeight="827" math="0" shadow="0">
      <root>
        <mxCell id="0" />
        <mxCell id="1" parent="0" />
      </root>
    </mxGraphModel>
  </diagram>
  <diagram id="dYJw0RQNsdkGvKlw_eaz" name="approval">
    <mxGraphModel dx="1434" dy="884" grid="1" gridSize="10" guides="1" tooltips="1" connect="1" arrows="1" fold="1" page="1" pageScale="1" pageWidth="827" pageHeight="1169" math="0" shadow="0">
      <root>
        <mxCell id="0" />
        <mxCell id="1" parent="0" />
        <mxCell id="sTRjfC33EfXkP0M-uur4-4" value="Verify(...)" style="rounded=1;whiteSpace=wrap;html=1;strokeColor=default;fontFamily=Lucida Console;fontSize=15;fillColor=default;labelPosition=center;verticalLabelPosition=bottom;align=center;verticalAlign=top;shadow=1;" vertex="1" parent="1">
          <mxGeometry x="80" y="310" width="180" height="160" as="geometry" />
        </mxCell>
        <mxCell id="JXNXqcSz6TlROYNEtKl0-6" value="" style="edgeStyle=orthogonalEdgeStyle;rounded=0;orthogonalLoop=1;jettySize=auto;html=1;" parent="1" source="JXNXqcSz6TlROYNEtKl0-4" target="JXNXqcSz6TlROYNEtKl0-5" edge="1">
          <mxGeometry relative="1" as="geometry" />
        </mxCell>
        <mxCell id="JXNXqcSz6TlROYNEtKl0-4" value="Mettre en place le contexte du test" style="rounded=1;whiteSpace=wrap;html=1;fillColor=#f5f5f5;strokeColor=#666666;fontColor=#333333;shadow=1;" parent="1" vertex="1">
          <mxGeometry x="90" y="160" width="160" height="60" as="geometry" />
        </mxCell>
        <mxCell id="JXNXqcSz6TlROYNEtKl0-8" value="" style="edgeStyle=orthogonalEdgeStyle;rounded=0;orthogonalLoop=1;jettySize=auto;html=1;" parent="1" source="JXNXqcSz6TlROYNEtKl0-5" target="JXNXqcSz6TlROYNEtKl0-7" edge="1">
          <mxGeometry relative="1" as="geometry" />
        </mxCell>
        <mxCell id="JXNXqcSz6TlROYNEtKl0-5" value="Invoquer l&#39;objet sous test" style="rounded=1;whiteSpace=wrap;html=1;fillColor=#f5f5f5;strokeColor=#666666;fontColor=#333333;shadow=1;" parent="1" vertex="1">
          <mxGeometry x="90" y="240" width="160" height="60" as="geometry" />
        </mxCell>
        <mxCell id="JXNXqcSz6TlROYNEtKl0-10" value="" style="edgeStyle=orthogonalEdgeStyle;rounded=0;orthogonalLoop=1;jettySize=auto;html=1;" parent="1" source="JXNXqcSz6TlROYNEtKl0-7" target="JXNXqcSz6TlROYNEtKl0-9" edge="1">
          <mxGeometry relative="1" as="geometry" />
        </mxCell>
        <mxCell id="JXNXqcSz6TlROYNEtKl0-7" value="Créer une sortie texte &lt;b&gt;représentative&lt;/b&gt;" style="rounded=1;whiteSpace=wrap;html=1;fillColor=#dae8fc;strokeColor=#6c8ebf;shadow=1;" parent="1" vertex="1">
          <mxGeometry x="90" y="320" width="160" height="60" as="geometry" />
        </mxCell>
        <mxCell id="JXNXqcSz6TlROYNEtKl0-22" value="" style="edgeStyle=none;rounded=0;orthogonalLoop=1;jettySize=auto;html=1;" parent="1" source="JXNXqcSz6TlROYNEtKl0-9" target="JXNXqcSz6TlROYNEtKl0-21" edge="1">
          <mxGeometry relative="1" as="geometry" />
        </mxCell>
        <mxCell id="JXNXqcSz6TlROYNEtKl0-24" value="" style="edgeStyle=none;rounded=0;orthogonalLoop=1;jettySize=auto;html=1;" parent="1" source="JXNXqcSz6TlROYNEtKl0-9" target="JXNXqcSz6TlROYNEtKl0-23" edge="1">
          <mxGeometry relative="1" as="geometry" />
        </mxCell>
        <mxCell id="JXNXqcSz6TlROYNEtKl0-25" value="" style="edgeStyle=none;rounded=0;orthogonalLoop=1;jettySize=auto;html=1;" parent="1" source="JXNXqcSz6TlROYNEtKl0-9" target="JXNXqcSz6TlROYNEtKl0-21" edge="1">
          <mxGeometry relative="1" as="geometry" />
        </mxCell>
        <mxCell id="JXNXqcSz6TlROYNEtKl0-27" value="" style="edgeStyle=none;rounded=0;orthogonalLoop=1;jettySize=auto;html=1;" parent="1" source="JXNXqcSz6TlROYNEtKl0-9" target="JXNXqcSz6TlROYNEtKl0-26" edge="1">
          <mxGeometry relative="1" as="geometry" />
        </mxCell>
        <mxCell id="JXNXqcSz6TlROYNEtKl0-9" value="Comparer avec le fichier APPROVED" style="rounded=1;whiteSpace=wrap;html=1;fillColor=#dae8fc;strokeColor=#6c8ebf;shadow=1;" parent="1" vertex="1">
          <mxGeometry x="90" y="400" width="160" height="60" as="geometry" />
        </mxCell>
        <mxCell id="JXNXqcSz6TlROYNEtKl0-20" value="" style="edgeStyle=none;rounded=0;orthogonalLoop=1;jettySize=auto;html=1;" parent="1" source="JXNXqcSz6TlROYNEtKl0-23" target="JXNXqcSz6TlROYNEtKl0-19" edge="1">
          <mxGeometry relative="1" as="geometry" />
        </mxCell>
        <mxCell id="JXNXqcSz6TlROYNEtKl0-11" value="Echec" style="rounded=1;whiteSpace=wrap;html=1;fillColor=#f8cecc;strokeColor=#b85450;shadow=1;" parent="1" vertex="1">
          <mxGeometry x="520" y="400" width="90" height="60" as="geometry" />
        </mxCell>
        <mxCell id="JXNXqcSz6TlROYNEtKl0-17" value="Succés" style="rounded=1;whiteSpace=wrap;html=1;fillColor=#d5e8d4;strokeColor=#82b366;shadow=1;" parent="1" vertex="1">
          <mxGeometry x="520" y="320" width="90" height="60" as="geometry" />
        </mxCell>
        <mxCell id="sTRjfC33EfXkP0M-uur4-5" style="edgeStyle=orthogonalEdgeStyle;rounded=1;orthogonalLoop=1;jettySize=auto;html=1;fontFamily=Lucida Console;fontSize=15;" edge="1" parent="1" source="JXNXqcSz6TlROYNEtKl0-19" target="JXNXqcSz6TlROYNEtKl0-11">
          <mxGeometry relative="1" as="geometry" />
        </mxCell>
        <mxCell id="JXNXqcSz6TlROYNEtKl0-19" value="Créer APPROVED avec la sortie actuelle" style="rounded=1;whiteSpace=wrap;html=1;fillColor=#ffe6cc;strokeColor=#d79b00;shadow=1;" parent="1" vertex="1">
          <mxGeometry x="320" y="560" width="160" height="60" as="geometry" />
        </mxCell>
        <mxCell id="JXNXqcSz6TlROYNEtKl0-29" style="edgeStyle=none;rounded=0;orthogonalLoop=1;jettySize=auto;html=1;" parent="1" source="JXNXqcSz6TlROYNEtKl0-21" target="JXNXqcSz6TlROYNEtKl0-11" edge="1">
          <mxGeometry relative="1" as="geometry" />
        </mxCell>
        <mxCell id="JXNXqcSz6TlROYNEtKl0-21" value="Différences" style="rounded=1;whiteSpace=wrap;html=1;fillColor=#f8cecc;strokeColor=#b85450;shadow=1;" parent="1" vertex="1">
          <mxGeometry x="320" y="400" width="160" height="60" as="geometry" />
        </mxCell>
        <mxCell id="JXNXqcSz6TlROYNEtKl0-23" value="Pas de fichier APPROVED" style="rounded=1;whiteSpace=wrap;html=1;fillColor=#ffe6cc;strokeColor=#d79b00;shadow=1;" parent="1" vertex="1">
          <mxGeometry x="320" y="480" width="160" height="60" as="geometry" />
        </mxCell>
        <mxCell id="JXNXqcSz6TlROYNEtKl0-30" style="edgeStyle=none;rounded=0;orthogonalLoop=1;jettySize=auto;html=1;" parent="1" source="JXNXqcSz6TlROYNEtKl0-26" target="JXNXqcSz6TlROYNEtKl0-17" edge="1">
          <mxGeometry relative="1" as="geometry" />
        </mxCell>
        <mxCell id="JXNXqcSz6TlROYNEtKl0-26" value="Aucune différence" style="rounded=1;whiteSpace=wrap;html=1;fillColor=#d5e8d4;strokeColor=#82b366;shadow=1;" parent="1" vertex="1">
          <mxGeometry x="320" y="320" width="160" height="60" as="geometry" />
        </mxCell>
        <mxCell id="sTRjfC33EfXkP0M-uur4-1" value="Given" style="text;html=1;align=center;verticalAlign=middle;whiteSpace=wrap;rounded=1;fontSize=15;fontStyle=2;strokeColor=default;fillColor=default;shadow=1;" vertex="1" parent="1">
          <mxGeometry x="10" y="175" width="60" height="30" as="geometry" />
        </mxCell>
        <mxCell id="sTRjfC33EfXkP0M-uur4-2" value="When" style="text;html=1;align=center;verticalAlign=middle;whiteSpace=wrap;rounded=1;fontSize=15;fontStyle=2;strokeColor=default;fillColor=default;shadow=1;" vertex="1" parent="1">
          <mxGeometry x="10" y="255" width="60" height="30" as="geometry" />
        </mxCell>
        <mxCell id="sTRjfC33EfXkP0M-uur4-3" value="Then" style="text;html=1;align=center;verticalAlign=middle;whiteSpace=wrap;rounded=1;fontSize=15;fontStyle=2;strokeColor=default;fillColor=default;shadow=1;" vertex="1" parent="1">
          <mxGeometry x="10" y="330" width="60" height="30" as="geometry" />
        </mxCell>
      </root>
    </mxGraphModel>
  </diagram>
  <diagram id="jubWKEkjg_6IfGCZhclk" name="srp">
    <mxGraphModel dx="1408" dy="971" grid="1" gridSize="10" guides="1" tooltips="1" connect="1" arrows="1" fold="1" page="1" pageScale="1" pageWidth="827" pageHeight="1169" math="0" shadow="0">
      <root>
        <mxCell id="0" />
        <mxCell id="1" parent="0" />
        <mxCell id="U7gWWJuZJVyANHnSznwT-54" value="Job" style="rounded=1;whiteSpace=wrap;html=1;shadow=1;labelPosition=center;verticalLabelPosition=top;align=center;verticalAlign=bottom;" parent="1" vertex="1">
          <mxGeometry x="560" y="1190" width="160" height="80" as="geometry" />
        </mxCell>
        <mxCell id="U7gWWJuZJVyANHnSznwT-52" value="Email" style="rounded=1;whiteSpace=wrap;html=1;shadow=1;labelPosition=center;verticalLabelPosition=top;align=center;verticalAlign=bottom;" parent="1" vertex="1">
          <mxGeometry x="560" y="1000" width="160" height="50" as="geometry" />
        </mxCell>
        <mxCell id="U7gWWJuZJVyANHnSznwT-51" value="Phone" style="rounded=1;whiteSpace=wrap;html=1;shadow=1;labelPosition=center;verticalLabelPosition=top;align=center;verticalAlign=bottom;" parent="1" vertex="1">
          <mxGeometry x="560" y="920" width="160" height="50" as="geometry" />
        </mxCell>
        <mxCell id="U7gWWJuZJVyANHnSznwT-50" value="Address" style="rounded=1;whiteSpace=wrap;html=1;shadow=1;labelPosition=center;verticalLabelPosition=top;align=center;verticalAlign=bottom;" parent="1" vertex="1">
          <mxGeometry x="560" y="830" width="160" height="50" as="geometry" />
        </mxCell>
        <mxCell id="U7gWWJuZJVyANHnSznwT-49" value="Person" style="rounded=1;whiteSpace=wrap;html=1;shadow=1;labelPosition=center;verticalLabelPosition=top;align=center;verticalAlign=bottom;" parent="1" vertex="1">
          <mxGeometry x="560" y="680" width="160" height="120" as="geometry" />
        </mxCell>
        <mxCell id="U7gWWJuZJVyANHnSznwT-1" value="&lt;div&gt;&amp;nbsp; &amp;nbsp; name: str&lt;/div&gt;&lt;div&gt;&amp;nbsp; &amp;nbsp; age: int&lt;/div&gt;&lt;div&gt;&amp;nbsp; &amp;nbsp; gender: str&lt;/div&gt;&lt;div&gt;&amp;nbsp; &amp;nbsp; address: str&lt;/div&gt;&lt;div&gt;&amp;nbsp; &amp;nbsp; phone_number: str&lt;/div&gt;&lt;div&gt;&amp;nbsp; &amp;nbsp; email: str&lt;/div&gt;&lt;div&gt;&amp;nbsp; &amp;nbsp; company_name: str&lt;/div&gt;&lt;div&gt;&amp;nbsp; &amp;nbsp; company_address: str&lt;/div&gt;&lt;div&gt;&amp;nbsp; &amp;nbsp; job_title: str&lt;/div&gt;&lt;div&gt;&amp;nbsp; &amp;nbsp; job_description: str&lt;/div&gt;" style="rounded=1;whiteSpace=wrap;html=1;align=left;shadow=1;" parent="1" vertex="1">
          <mxGeometry x="80" y="120" width="160" height="190" as="geometry" />
        </mxCell>
        <mxCell id="U7gWWJuZJVyANHnSznwT-2" value="&lt;div&gt;&amp;nbsp; &amp;nbsp; def send_email(self, message: str) -&amp;gt; None: ...&lt;/div&gt;&lt;div&gt;&amp;nbsp; &amp;nbsp; def call_by_phone(self) -&amp;gt; None: ...&lt;/div&gt;&lt;div&gt;&amp;nbsp; &amp;nbsp; def change_job_title(self, new_title: str) -&amp;gt; None: ...&lt;/div&gt;&lt;div&gt;&amp;nbsp; &amp;nbsp; def update_address(self, new_address: str) -&amp;gt; None: ...&lt;/div&gt;&lt;div&gt;&amp;nbsp; &amp;nbsp; def get_personal_info(self) -&amp;gt; str: ...&lt;/div&gt;&lt;div&gt;&amp;nbsp; &amp;nbsp; def get_company_info(self) -&amp;gt; str: ...&lt;/div&gt;&lt;div&gt;&amp;nbsp; &amp;nbsp; def update_personal_info(self, name: str, age: int, gender: str, address: str, phone_number: str, email: str) -&amp;gt; None: ...&lt;/div&gt;&lt;div&gt;&amp;nbsp; &amp;nbsp; def update_company_info(self, company_name: str, company_address: str, job_title: str, job_description: str) -&amp;gt; None: ...&lt;/div&gt;&lt;div&gt;&amp;nbsp; &amp;nbsp; def calculate_salary(self) -&amp;gt; float: ...&lt;/div&gt;&lt;div&gt;&amp;nbsp; &amp;nbsp; def hire_employee(self, employee_info: dict) -&amp;gt; None: ...&lt;/div&gt;&lt;div&gt;&amp;nbsp; &amp;nbsp; def fire_employee(self, employee_id: int) -&amp;gt; None: ..&lt;/div&gt;" style="rounded=1;whiteSpace=wrap;html=1;align=left;shadow=1;" parent="1" vertex="1">
          <mxGeometry x="80" y="340" width="700" height="250" as="geometry" />
        </mxCell>
        <mxCell id="U7gWWJuZJVyANHnSznwT-17" style="rounded=0;orthogonalLoop=1;jettySize=auto;html=1;entryX=0;entryY=0.5;entryDx=0;entryDy=0;exitX=1;exitY=0.5;exitDx=0;exitDy=0;" parent="1" source="U7gWWJuZJVyANHnSznwT-3" target="U7gWWJuZJVyANHnSznwT-13" edge="1">
          <mxGeometry relative="1" as="geometry" />
        </mxCell>
        <mxCell id="U7gWWJuZJVyANHnSznwT-3" value="&lt;div&gt;&amp;nbsp; &amp;nbsp; name: str&lt;/div&gt;&lt;div&gt;&amp;nbsp; &amp;nbsp; age: int&lt;/div&gt;&lt;div&gt;&amp;nbsp; &amp;nbsp; gender: str&lt;/div&gt;" style="rounded=1;whiteSpace=wrap;html=1;align=left;fillColor=#dae8fc;strokeColor=#6c8ebf;shadow=1;" parent="1" vertex="1">
          <mxGeometry x="920" y="120" width="160" height="60" as="geometry" />
        </mxCell>
        <mxCell id="U7gWWJuZJVyANHnSznwT-18" style="edgeStyle=none;rounded=0;orthogonalLoop=1;jettySize=auto;html=1;entryX=0;entryY=0.5;entryDx=0;entryDy=0;exitX=1;exitY=0.75;exitDx=0;exitDy=0;" parent="1" source="U7gWWJuZJVyANHnSznwT-4" target="U7gWWJuZJVyANHnSznwT-13" edge="1">
          <mxGeometry relative="1" as="geometry" />
        </mxCell>
        <mxCell id="U7gWWJuZJVyANHnSznwT-20" style="edgeStyle=none;rounded=0;orthogonalLoop=1;jettySize=auto;html=1;entryX=0;entryY=0.5;entryDx=0;entryDy=0;" parent="1" source="U7gWWJuZJVyANHnSznwT-4" target="U7gWWJuZJVyANHnSznwT-12" edge="1">
          <mxGeometry relative="1" as="geometry" />
        </mxCell>
        <mxCell id="U7gWWJuZJVyANHnSznwT-4" value="&lt;div&gt;&lt;span style=&quot;background-color: initial;&quot;&gt;&amp;nbsp; &amp;nbsp; address: str&lt;/span&gt;&lt;/div&gt;" style="rounded=1;whiteSpace=wrap;html=1;align=left;fillColor=#d5e8d4;strokeColor=#82b366;shadow=1;" parent="1" vertex="1">
          <mxGeometry x="921" y="190" width="160" height="30" as="geometry" />
        </mxCell>
        <mxCell id="U7gWWJuZJVyANHnSznwT-19" style="edgeStyle=none;rounded=0;orthogonalLoop=1;jettySize=auto;html=1;entryX=0;entryY=0.5;entryDx=0;entryDy=0;exitX=1;exitY=0.5;exitDx=0;exitDy=0;" parent="1" source="U7gWWJuZJVyANHnSznwT-5" target="U7gWWJuZJVyANHnSznwT-13" edge="1">
          <mxGeometry relative="1" as="geometry" />
        </mxCell>
        <mxCell id="U7gWWJuZJVyANHnSznwT-24" style="edgeStyle=none;rounded=0;orthogonalLoop=1;jettySize=auto;html=1;entryX=0;entryY=0.5;entryDx=0;entryDy=0;exitX=1;exitY=0.5;exitDx=0;exitDy=0;" parent="1" source="U7gWWJuZJVyANHnSznwT-5" target="U7gWWJuZJVyANHnSznwT-10" edge="1">
          <mxGeometry relative="1" as="geometry" />
        </mxCell>
        <mxCell id="U7gWWJuZJVyANHnSznwT-5" value="&lt;div&gt;&lt;span style=&quot;background-color: initial;&quot;&gt;&amp;nbsp; &amp;nbsp; phone_number: str&lt;/span&gt;&lt;/div&gt;" style="rounded=1;whiteSpace=wrap;html=1;align=left;fillColor=#ffe6cc;strokeColor=#d79b00;shadow=1;" parent="1" vertex="1">
          <mxGeometry x="921" y="230" width="160" height="30" as="geometry" />
        </mxCell>
        <mxCell id="U7gWWJuZJVyANHnSznwT-21" style="edgeStyle=none;rounded=0;orthogonalLoop=1;jettySize=auto;html=1;entryX=0;entryY=0.5;entryDx=0;entryDy=0;exitX=1;exitY=0.5;exitDx=0;exitDy=0;" parent="1" source="U7gWWJuZJVyANHnSznwT-6" target="U7gWWJuZJVyANHnSznwT-9" edge="1">
          <mxGeometry relative="1" as="geometry" />
        </mxCell>
        <mxCell id="U7gWWJuZJVyANHnSznwT-55" style="edgeStyle=none;rounded=0;orthogonalLoop=1;jettySize=auto;html=1;entryX=0;entryY=0.5;entryDx=0;entryDy=0;" parent="1" source="U7gWWJuZJVyANHnSznwT-6" target="U7gWWJuZJVyANHnSznwT-13" edge="1">
          <mxGeometry relative="1" as="geometry" />
        </mxCell>
        <mxCell id="U7gWWJuZJVyANHnSznwT-6" value="&lt;div&gt;&lt;span style=&quot;background-color: initial;&quot;&gt;&amp;nbsp;&lt;/span&gt;&lt;span style=&quot;background-color: initial;&quot;&gt;&amp;nbsp; &amp;nbsp; email: str&lt;/span&gt;&lt;span style=&quot;background-color: initial;&quot;&gt;&amp;nbsp;&lt;/span&gt;&lt;br&gt;&lt;/div&gt;" style="rounded=1;whiteSpace=wrap;html=1;align=left;fillColor=#fff2cc;strokeColor=#d6b656;shadow=1;" parent="1" vertex="1">
          <mxGeometry x="921" y="270" width="160" height="30" as="geometry" />
        </mxCell>
        <mxCell id="U7gWWJuZJVyANHnSznwT-22" style="edgeStyle=none;rounded=0;orthogonalLoop=1;jettySize=auto;html=1;entryX=0;entryY=0.5;entryDx=0;entryDy=0;" parent="1" source="U7gWWJuZJVyANHnSznwT-7" target="U7gWWJuZJVyANHnSznwT-14" edge="1">
          <mxGeometry relative="1" as="geometry" />
        </mxCell>
        <mxCell id="U7gWWJuZJVyANHnSznwT-7" value="&lt;div&gt;&lt;span style=&quot;background-color: initial;&quot;&gt;&amp;nbsp; &amp;nbsp; company_name: str&lt;/span&gt;&lt;br&gt;&lt;/div&gt;&lt;div&gt;&amp;nbsp; &amp;nbsp; company_address: str&lt;span style=&quot;background-color: initial;&quot;&gt;&amp;nbsp;&lt;/span&gt;&lt;/div&gt;" style="rounded=1;whiteSpace=wrap;html=1;align=left;fillColor=#f8cecc;strokeColor=#b85450;shadow=1;" parent="1" vertex="1">
          <mxGeometry x="921" y="310" width="160" height="60" as="geometry" />
        </mxCell>
        <mxCell id="U7gWWJuZJVyANHnSznwT-23" style="edgeStyle=none;rounded=0;orthogonalLoop=1;jettySize=auto;html=1;entryX=0;entryY=0.5;entryDx=0;entryDy=0;exitX=1;exitY=0.5;exitDx=0;exitDy=0;" parent="1" source="U7gWWJuZJVyANHnSznwT-8" target="U7gWWJuZJVyANHnSznwT-11" edge="1">
          <mxGeometry relative="1" as="geometry" />
        </mxCell>
        <mxCell id="U7gWWJuZJVyANHnSznwT-25" style="edgeStyle=none;rounded=0;orthogonalLoop=1;jettySize=auto;html=1;entryX=0;entryY=0.5;entryDx=0;entryDy=0;exitX=1;exitY=0.25;exitDx=0;exitDy=0;" parent="1" source="U7gWWJuZJVyANHnSznwT-8" target="U7gWWJuZJVyANHnSznwT-14" edge="1">
          <mxGeometry relative="1" as="geometry" />
        </mxCell>
        <mxCell id="U7gWWJuZJVyANHnSznwT-8" value="&lt;div&gt;&lt;span style=&quot;background-color: initial;&quot;&gt;&amp;nbsp; &amp;nbsp; job_title: str&lt;/span&gt;&lt;br&gt;&lt;/div&gt;&lt;div&gt;&amp;nbsp; &amp;nbsp; job_description: str&lt;/div&gt;" style="rounded=1;whiteSpace=wrap;html=1;align=left;fillColor=#e1d5e7;strokeColor=#9673a6;shadow=1;" parent="1" vertex="1">
          <mxGeometry x="921" y="380" width="160" height="40" as="geometry" />
        </mxCell>
        <mxCell id="U7gWWJuZJVyANHnSznwT-9" value="&lt;div&gt;&amp;nbsp; &amp;nbsp; def send_email(self, message: str) -&amp;gt; None: ...&lt;/div&gt;" style="rounded=1;whiteSpace=wrap;html=1;align=left;shadow=1;fillColor=#fff2cc;strokeColor=#d6b656;" parent="1" vertex="1">
          <mxGeometry x="1200" y="120" width="700" height="30" as="geometry" />
        </mxCell>
        <mxCell id="U7gWWJuZJVyANHnSznwT-10" value="&lt;div&gt;&lt;span style=&quot;background-color: initial;&quot;&gt;&amp;nbsp; &amp;nbsp; def call_by_phone(self) -&amp;gt; None: ...&lt;/span&gt;&lt;/div&gt;" style="rounded=1;whiteSpace=wrap;html=1;align=left;shadow=1;fillColor=#ffe6cc;strokeColor=#d79b00;" parent="1" vertex="1">
          <mxGeometry x="1200" y="200" width="700" height="30" as="geometry" />
        </mxCell>
        <mxCell id="U7gWWJuZJVyANHnSznwT-11" value="&lt;div&gt;&lt;span style=&quot;background-color: initial;&quot;&gt;&amp;nbsp; &amp;nbsp; def change_job_title(self, new_title: str) -&amp;gt; None: ...&lt;/span&gt;&lt;/div&gt;" style="rounded=1;whiteSpace=wrap;html=1;align=left;shadow=1;fillColor=#e1d5e7;strokeColor=#9673a6;" parent="1" vertex="1">
          <mxGeometry x="1200" y="240" width="700" height="30" as="geometry" />
        </mxCell>
        <mxCell id="U7gWWJuZJVyANHnSznwT-12" value="&lt;div&gt;&lt;span style=&quot;background-color: initial;&quot;&gt;&amp;nbsp; &amp;nbsp; def update_address(self, new_address: str) -&amp;gt; None: ...&lt;/span&gt;&lt;/div&gt;" style="rounded=1;whiteSpace=wrap;html=1;align=left;shadow=1;fillColor=#d5e8d4;strokeColor=#82b366;" parent="1" vertex="1">
          <mxGeometry x="1200" y="160" width="700" height="30" as="geometry" />
        </mxCell>
        <mxCell id="U7gWWJuZJVyANHnSznwT-13" value="&lt;span style=&quot;background-color: initial;&quot;&gt;&amp;nbsp; &amp;nbsp; def get_personal_info(self) -&amp;gt; str: ...&lt;br&gt;&lt;/span&gt;&amp;nbsp; &amp;nbsp; def update_personal_info(self, name: str, age: int, gender: str, address: str, phone_number: str, email: str) -&amp;gt; None: ...&lt;span style=&quot;background-color: initial;&quot;&gt;&lt;br&gt;&lt;/span&gt;" style="rounded=1;whiteSpace=wrap;html=1;align=left;shadow=1;fillColor=#e51400;fontColor=#ffffff;strokeColor=#B20000;" parent="1" vertex="1">
          <mxGeometry x="1200" y="280" width="700" height="40" as="geometry" />
        </mxCell>
        <mxCell id="U7gWWJuZJVyANHnSznwT-14" value="&lt;div&gt;&lt;span style=&quot;background-color: initial;&quot;&gt;&amp;nbsp; &amp;nbsp; def get_company_info(self) -&amp;gt; str: ...&lt;/span&gt;&lt;/div&gt;&lt;div&gt;&lt;div style=&quot;border-color: var(--border-color);&quot;&gt;&amp;nbsp; &amp;nbsp; def update_company_info(self, company_name: str, company_address: str, job_title: str, job_description: str) -&amp;gt; None: ...&lt;/div&gt;&lt;/div&gt;" style="rounded=1;whiteSpace=wrap;html=1;align=left;shadow=1;fillColor=#f8cecc;strokeColor=#b85450;" parent="1" vertex="1">
          <mxGeometry x="1200" y="330" width="700" height="40" as="geometry" />
        </mxCell>
        <mxCell id="U7gWWJuZJVyANHnSznwT-15" value="&lt;div&gt;&lt;span style=&quot;background-color: initial;&quot;&gt;&amp;nbsp; &amp;nbsp; def calculate_salary(self) -&amp;gt; float: ...&lt;/span&gt;&lt;/div&gt;" style="rounded=1;whiteSpace=wrap;html=1;align=left;shadow=1;fillColor=#76608a;fontColor=#ffffff;strokeColor=#432D57;" parent="1" vertex="1">
          <mxGeometry x="1200" y="380" width="700" height="30" as="geometry" />
        </mxCell>
        <mxCell id="U7gWWJuZJVyANHnSznwT-16" value="&lt;div style=&quot;border-color: var(--border-color);&quot;&gt;&amp;nbsp; &amp;nbsp; def hire_employee(self, employee_info: dict) -&amp;gt; None: ...&lt;/div&gt;&lt;div style=&quot;border-color: var(--border-color);&quot;&gt;&amp;nbsp; &amp;nbsp; def fire_employee(self, employee_id: int) -&amp;gt; None: ..&lt;/div&gt;" style="rounded=1;whiteSpace=wrap;html=1;align=left;shadow=1;fillColor=#647687;fontColor=#ffffff;strokeColor=#314354;" parent="1" vertex="1">
          <mxGeometry x="1200" y="420" width="700" height="40" as="geometry" />
        </mxCell>
        <mxCell id="U7gWWJuZJVyANHnSznwT-26" style="rounded=0;orthogonalLoop=1;jettySize=auto;html=1;entryX=0;entryY=0.5;entryDx=0;entryDy=0;exitX=1;exitY=0.5;exitDx=0;exitDy=0;" parent="1" source="U7gWWJuZJVyANHnSznwT-27" target="U7gWWJuZJVyANHnSznwT-45" edge="1">
          <mxGeometry relative="1" as="geometry" />
        </mxCell>
        <mxCell id="U7gWWJuZJVyANHnSznwT-27" value="&lt;div&gt;&amp;nbsp; &amp;nbsp; name: str&lt;/div&gt;&lt;div&gt;&amp;nbsp; &amp;nbsp; age: int&lt;/div&gt;&lt;div&gt;&amp;nbsp; &amp;nbsp; gender: str&lt;/div&gt;" style="rounded=1;whiteSpace=wrap;html=1;align=left;fillColor=#dae8fc;strokeColor=#6c8ebf;shadow=1;" parent="1" vertex="1">
          <mxGeometry x="580" y="705" width="160" height="60" as="geometry" />
        </mxCell>
        <mxCell id="U7gWWJuZJVyANHnSznwT-28" style="edgeStyle=none;rounded=0;orthogonalLoop=1;jettySize=auto;html=1;entryX=0;entryY=0.5;entryDx=0;entryDy=0;exitX=1;exitY=0.75;exitDx=0;exitDy=0;" parent="1" source="U7gWWJuZJVyANHnSznwT-30" target="U7gWWJuZJVyANHnSznwT-45" edge="1">
          <mxGeometry relative="1" as="geometry" />
        </mxCell>
        <mxCell id="U7gWWJuZJVyANHnSznwT-29" style="edgeStyle=none;rounded=0;orthogonalLoop=1;jettySize=auto;html=1;entryX=0;entryY=0.5;entryDx=0;entryDy=0;" parent="1" source="U7gWWJuZJVyANHnSznwT-30" target="U7gWWJuZJVyANHnSznwT-44" edge="1">
          <mxGeometry relative="1" as="geometry" />
        </mxCell>
        <mxCell id="U7gWWJuZJVyANHnSznwT-30" value="&lt;div&gt;&lt;span style=&quot;background-color: initial;&quot;&gt;&amp;nbsp; &amp;nbsp; address: str&lt;/span&gt;&lt;/div&gt;" style="rounded=1;whiteSpace=wrap;html=1;align=left;fillColor=#d5e8d4;strokeColor=#82b366;shadow=1;" parent="1" vertex="1">
          <mxGeometry x="580" y="840" width="160" height="30" as="geometry" />
        </mxCell>
        <mxCell id="U7gWWJuZJVyANHnSznwT-31" style="edgeStyle=none;rounded=0;orthogonalLoop=1;jettySize=auto;html=1;entryX=0;entryY=0.5;entryDx=0;entryDy=0;exitX=1;exitY=0.5;exitDx=0;exitDy=0;" parent="1" source="U7gWWJuZJVyANHnSznwT-33" target="U7gWWJuZJVyANHnSznwT-45" edge="1">
          <mxGeometry relative="1" as="geometry" />
        </mxCell>
        <mxCell id="U7gWWJuZJVyANHnSznwT-32" style="edgeStyle=none;rounded=0;orthogonalLoop=1;jettySize=auto;html=1;entryX=0;entryY=0.5;entryDx=0;entryDy=0;exitX=1;exitY=0.5;exitDx=0;exitDy=0;" parent="1" source="U7gWWJuZJVyANHnSznwT-33" target="U7gWWJuZJVyANHnSznwT-42" edge="1">
          <mxGeometry relative="1" as="geometry" />
        </mxCell>
        <mxCell id="U7gWWJuZJVyANHnSznwT-33" value="&lt;div&gt;&lt;span style=&quot;background-color: initial;&quot;&gt;&amp;nbsp; &amp;nbsp; phone_number: str&lt;/span&gt;&lt;/div&gt;" style="rounded=1;whiteSpace=wrap;html=1;align=left;fillColor=#ffe6cc;strokeColor=#d79b00;shadow=1;" parent="1" vertex="1">
          <mxGeometry x="580" y="930" width="160" height="30" as="geometry" />
        </mxCell>
        <mxCell id="U7gWWJuZJVyANHnSznwT-34" style="edgeStyle=none;rounded=0;orthogonalLoop=1;jettySize=auto;html=1;entryX=0;entryY=0.5;entryDx=0;entryDy=0;exitX=1;exitY=0.5;exitDx=0;exitDy=0;" parent="1" source="U7gWWJuZJVyANHnSznwT-35" target="U7gWWJuZJVyANHnSznwT-41" edge="1">
          <mxGeometry relative="1" as="geometry" />
        </mxCell>
        <mxCell id="U7gWWJuZJVyANHnSznwT-56" style="edgeStyle=none;rounded=0;orthogonalLoop=1;jettySize=auto;html=1;entryX=0;entryY=0.5;entryDx=0;entryDy=0;exitX=1;exitY=0.5;exitDx=0;exitDy=0;" parent="1" source="U7gWWJuZJVyANHnSznwT-35" target="U7gWWJuZJVyANHnSznwT-45" edge="1">
          <mxGeometry relative="1" as="geometry" />
        </mxCell>
        <mxCell id="U7gWWJuZJVyANHnSznwT-35" value="&lt;div&gt;&lt;span style=&quot;background-color: initial;&quot;&gt;&amp;nbsp;&lt;/span&gt;&lt;span style=&quot;background-color: initial;&quot;&gt;&amp;nbsp; &amp;nbsp; email: str&lt;/span&gt;&lt;span style=&quot;background-color: initial;&quot;&gt;&amp;nbsp;&lt;/span&gt;&lt;br&gt;&lt;/div&gt;" style="rounded=1;whiteSpace=wrap;html=1;align=left;fillColor=#fff2cc;strokeColor=#d6b656;shadow=1;" parent="1" vertex="1">
          <mxGeometry x="580" y="1010" width="160" height="30" as="geometry" />
        </mxCell>
        <mxCell id="U7gWWJuZJVyANHnSznwT-36" style="edgeStyle=none;rounded=0;orthogonalLoop=1;jettySize=auto;html=1;entryX=0;entryY=0.5;entryDx=0;entryDy=0;" parent="1" source="U7gWWJuZJVyANHnSznwT-37" target="U7gWWJuZJVyANHnSznwT-46" edge="1">
          <mxGeometry relative="1" as="geometry" />
        </mxCell>
        <mxCell id="U7gWWJuZJVyANHnSznwT-38" style="edgeStyle=none;rounded=0;orthogonalLoop=1;jettySize=auto;html=1;entryX=0;entryY=0.5;entryDx=0;entryDy=0;exitX=1;exitY=0.5;exitDx=0;exitDy=0;" parent="1" source="U7gWWJuZJVyANHnSznwT-40" target="U7gWWJuZJVyANHnSznwT-43" edge="1">
          <mxGeometry relative="1" as="geometry" />
        </mxCell>
        <mxCell id="U7gWWJuZJVyANHnSznwT-39" style="edgeStyle=none;rounded=0;orthogonalLoop=1;jettySize=auto;html=1;entryX=0;entryY=0.5;entryDx=0;entryDy=0;exitX=1;exitY=0.25;exitDx=0;exitDy=0;" parent="1" source="U7gWWJuZJVyANHnSznwT-40" target="U7gWWJuZJVyANHnSznwT-46" edge="1">
          <mxGeometry relative="1" as="geometry" />
        </mxCell>
        <mxCell id="U7gWWJuZJVyANHnSznwT-40" value="&lt;div&gt;&lt;span style=&quot;background-color: initial;&quot;&gt;&amp;nbsp; &amp;nbsp; job_title: str&lt;/span&gt;&lt;br&gt;&lt;/div&gt;&lt;div&gt;&amp;nbsp; &amp;nbsp; job_description: str&lt;/div&gt;" style="rounded=1;whiteSpace=wrap;html=1;align=left;fillColor=#e1d5e7;strokeColor=#9673a6;shadow=1;" parent="1" vertex="1">
          <mxGeometry x="580" y="1200" width="160" height="40" as="geometry" />
        </mxCell>
        <mxCell id="U7gWWJuZJVyANHnSznwT-41" value="&lt;div&gt;&amp;nbsp; &amp;nbsp; def send_email(self, message: str) -&amp;gt; None: ...&lt;/div&gt;" style="rounded=1;whiteSpace=wrap;html=1;align=left;shadow=1;fillColor=#fff2cc;strokeColor=#d6b656;" parent="1" vertex="1">
          <mxGeometry x="921" y="1010" width="700" height="30" as="geometry" />
        </mxCell>
        <mxCell id="U7gWWJuZJVyANHnSznwT-42" value="&lt;div&gt;&lt;span style=&quot;background-color: initial;&quot;&gt;&amp;nbsp; &amp;nbsp; def call_by_phone(self) -&amp;gt; None: ...&lt;/span&gt;&lt;/div&gt;" style="rounded=1;whiteSpace=wrap;html=1;align=left;shadow=1;fillColor=#ffe6cc;strokeColor=#d79b00;" parent="1" vertex="1">
          <mxGeometry x="921" y="930" width="700" height="30" as="geometry" />
        </mxCell>
        <mxCell id="U7gWWJuZJVyANHnSznwT-43" value="&lt;div&gt;&lt;span style=&quot;background-color: initial;&quot;&gt;&amp;nbsp; &amp;nbsp; def change_job_title(self, new_title: str) -&amp;gt; None: ...&lt;/span&gt;&lt;/div&gt;" style="rounded=1;whiteSpace=wrap;html=1;align=left;shadow=1;fillColor=#e1d5e7;strokeColor=#9673a6;" parent="1" vertex="1">
          <mxGeometry x="921" y="1200" width="700" height="30" as="geometry" />
        </mxCell>
        <mxCell id="U7gWWJuZJVyANHnSznwT-44" value="&lt;div&gt;&lt;span style=&quot;background-color: initial;&quot;&gt;&amp;nbsp; &amp;nbsp; def update_address(self, new_address: str) -&amp;gt; None: ...&lt;/span&gt;&lt;/div&gt;" style="rounded=1;whiteSpace=wrap;html=1;align=left;shadow=1;fillColor=#d5e8d4;strokeColor=#82b366;" parent="1" vertex="1">
          <mxGeometry x="921" y="840" width="700" height="30" as="geometry" />
        </mxCell>
        <mxCell id="U7gWWJuZJVyANHnSznwT-45" value="&lt;span style=&quot;background-color: initial;&quot;&gt;&amp;nbsp; &amp;nbsp; def get_personal_info(self) -&amp;gt; str: ...&lt;br&gt;&lt;/span&gt;&amp;nbsp; &amp;nbsp; def update_personal_info(self, name: str, age: int, gender: str, address: str, phone_number: str, email: str) -&amp;gt; None: ...&lt;span style=&quot;background-color: initial;&quot;&gt;&lt;br&gt;&lt;/span&gt;" style="rounded=1;whiteSpace=wrap;html=1;align=left;shadow=1;fillColor=#e51400;fontColor=#ffffff;strokeColor=#B20000;" parent="1" vertex="1">
          <mxGeometry x="921" y="740" width="700" height="40" as="geometry" />
        </mxCell>
        <mxCell id="U7gWWJuZJVyANHnSznwT-46" value="&lt;div&gt;&lt;span style=&quot;background-color: initial;&quot;&gt;&amp;nbsp; &amp;nbsp; def get_company_info(self) -&amp;gt; str: ...&lt;/span&gt;&lt;/div&gt;&lt;div&gt;&lt;div style=&quot;border-color: var(--border-color);&quot;&gt;&amp;nbsp; &amp;nbsp; def update_company_info(self, company_name: str, company_address: str, job_title: str, job_description: str) -&amp;gt; None: ...&lt;/div&gt;&lt;/div&gt;" style="rounded=1;whiteSpace=wrap;html=1;align=left;shadow=1;fillColor=#f8cecc;strokeColor=#b85450;" parent="1" vertex="1">
          <mxGeometry x="920" y="1150" width="700" height="40" as="geometry" />
        </mxCell>
        <mxCell id="U7gWWJuZJVyANHnSznwT-47" value="&lt;div&gt;&lt;span style=&quot;background-color: initial;&quot;&gt;&amp;nbsp; &amp;nbsp; def calculate_salary(self) -&amp;gt; float: ...&lt;/span&gt;&lt;/div&gt;" style="rounded=1;whiteSpace=wrap;html=1;align=left;shadow=1;fillColor=#76608a;fontColor=#ffffff;strokeColor=#432D57;" parent="1" vertex="1">
          <mxGeometry x="1050" y="1060" width="700" height="30" as="geometry" />
        </mxCell>
        <mxCell id="U7gWWJuZJVyANHnSznwT-48" value="&lt;div style=&quot;border-color: var(--border-color);&quot;&gt;&amp;nbsp; &amp;nbsp; def hire_employee(self, employee_info: dict) -&amp;gt; None: ...&lt;/div&gt;&lt;div style=&quot;border-color: var(--border-color);&quot;&gt;&amp;nbsp; &amp;nbsp; def fire_employee(self, employee_id: int) -&amp;gt; None: ..&lt;/div&gt;" style="rounded=1;whiteSpace=wrap;html=1;align=left;shadow=1;fillColor=#647687;fontColor=#ffffff;strokeColor=#314354;" parent="1" vertex="1">
          <mxGeometry x="1050" y="1100" width="700" height="40" as="geometry" />
        </mxCell>
        <mxCell id="U7gWWJuZJVyANHnSznwT-53" value="Company" style="rounded=1;whiteSpace=wrap;html=1;shadow=1;labelPosition=center;verticalLabelPosition=top;align=center;verticalAlign=bottom;" parent="1" vertex="1">
          <mxGeometry x="560" y="1080" width="160" height="80" as="geometry" />
        </mxCell>
        <mxCell id="U7gWWJuZJVyANHnSznwT-37" value="&lt;div&gt;&lt;span style=&quot;background-color: initial;&quot;&gt;&amp;nbsp; &amp;nbsp; company_name: str&lt;/span&gt;&lt;br&gt;&lt;/div&gt;&lt;div&gt;&amp;nbsp; &amp;nbsp; company_address: str&lt;span style=&quot;background-color: initial;&quot;&gt;&amp;nbsp;&lt;/span&gt;&lt;/div&gt;" style="rounded=1;whiteSpace=wrap;html=1;align=left;fillColor=#f8cecc;strokeColor=#b85450;shadow=1;" parent="1" vertex="1">
          <mxGeometry x="580" y="1090" width="160" height="60" as="geometry" />
        </mxCell>
        <mxCell id="U7gWWJuZJVyANHnSznwT-58" style="edgeStyle=none;rounded=0;orthogonalLoop=1;jettySize=auto;html=1;" parent="1" source="U7gWWJuZJVyANHnSznwT-57" target="U7gWWJuZJVyANHnSznwT-47" edge="1">
          <mxGeometry relative="1" as="geometry" />
        </mxCell>
        <mxCell id="U7gWWJuZJVyANHnSznwT-57" value="?" style="text;html=1;strokeColor=none;fillColor=none;align=center;verticalAlign=middle;whiteSpace=wrap;rounded=0;shadow=1;" parent="1" vertex="1">
          <mxGeometry x="920" y="1060" width="60" height="30" as="geometry" />
        </mxCell>
        <mxCell id="U7gWWJuZJVyANHnSznwT-60" style="edgeStyle=none;rounded=0;orthogonalLoop=1;jettySize=auto;html=1;" parent="1" source="U7gWWJuZJVyANHnSznwT-59" target="U7gWWJuZJVyANHnSznwT-48" edge="1">
          <mxGeometry relative="1" as="geometry" />
        </mxCell>
        <mxCell id="U7gWWJuZJVyANHnSznwT-59" value="?" style="text;html=1;strokeColor=none;fillColor=none;align=center;verticalAlign=middle;whiteSpace=wrap;rounded=0;shadow=1;" parent="1" vertex="1">
          <mxGeometry x="921" y="1105" width="60" height="30" as="geometry" />
        </mxCell>
        <mxCell id="U7gWWJuZJVyANHnSznwT-61" value="People" style="rounded=1;whiteSpace=wrap;html=1;shadow=1;labelPosition=center;verticalLabelPosition=top;align=center;verticalAlign=bottom;fillColor=#f5f5f5;fontColor=#333333;strokeColor=#666666;" parent="1" vertex="1">
          <mxGeometry x="520" y="1320" width="200" height="660" as="geometry" />
        </mxCell>
        <mxCell id="U7gWWJuZJVyANHnSznwT-62" value="Email" style="rounded=1;whiteSpace=wrap;html=1;shadow=1;labelPosition=center;verticalLabelPosition=top;align=center;verticalAlign=bottom;" parent="1" vertex="1">
          <mxGeometry x="580" y="1670" width="160" height="50" as="geometry" />
        </mxCell>
        <mxCell id="U7gWWJuZJVyANHnSznwT-63" value="Phone" style="rounded=1;whiteSpace=wrap;html=1;shadow=1;labelPosition=center;verticalLabelPosition=top;align=center;verticalAlign=bottom;" parent="1" vertex="1">
          <mxGeometry x="580" y="1590" width="160" height="50" as="geometry" />
        </mxCell>
        <mxCell id="U7gWWJuZJVyANHnSznwT-64" value="Address" style="rounded=1;whiteSpace=wrap;html=1;shadow=1;labelPosition=center;verticalLabelPosition=top;align=center;verticalAlign=bottom;" parent="1" vertex="1">
          <mxGeometry x="580" y="1500" width="160" height="50" as="geometry" />
        </mxCell>
        <mxCell id="U7gWWJuZJVyANHnSznwT-65" value="Person" style="rounded=1;whiteSpace=wrap;html=1;shadow=1;labelPosition=center;verticalLabelPosition=top;align=center;verticalAlign=bottom;" parent="1" vertex="1">
          <mxGeometry x="580" y="1350" width="160" height="120" as="geometry" />
        </mxCell>
        <mxCell id="U7gWWJuZJVyANHnSznwT-66" style="rounded=0;orthogonalLoop=1;jettySize=auto;html=1;entryX=0;entryY=0.5;entryDx=0;entryDy=0;exitX=1;exitY=0.5;exitDx=0;exitDy=0;" parent="1" source="U7gWWJuZJVyANHnSznwT-67" target="U7gWWJuZJVyANHnSznwT-80" edge="1">
          <mxGeometry relative="1" as="geometry" />
        </mxCell>
        <mxCell id="U7gWWJuZJVyANHnSznwT-67" value="&lt;div&gt;&amp;nbsp; &amp;nbsp; name: str&lt;/div&gt;&lt;div&gt;&amp;nbsp; &amp;nbsp; age: int&lt;/div&gt;&lt;div&gt;&amp;nbsp; &amp;nbsp; gender: str&lt;/div&gt;" style="rounded=1;whiteSpace=wrap;html=1;align=left;fillColor=#dae8fc;strokeColor=#6c8ebf;shadow=1;" parent="1" vertex="1">
          <mxGeometry x="600" y="1375" width="160" height="60" as="geometry" />
        </mxCell>
        <mxCell id="U7gWWJuZJVyANHnSznwT-68" style="edgeStyle=none;rounded=0;orthogonalLoop=1;jettySize=auto;html=1;entryX=0;entryY=0.5;entryDx=0;entryDy=0;exitX=1;exitY=0.75;exitDx=0;exitDy=0;" parent="1" source="U7gWWJuZJVyANHnSznwT-70" target="U7gWWJuZJVyANHnSznwT-80" edge="1">
          <mxGeometry relative="1" as="geometry" />
        </mxCell>
        <mxCell id="U7gWWJuZJVyANHnSznwT-69" style="edgeStyle=none;rounded=0;orthogonalLoop=1;jettySize=auto;html=1;entryX=0;entryY=0.5;entryDx=0;entryDy=0;" parent="1" source="U7gWWJuZJVyANHnSznwT-70" target="U7gWWJuZJVyANHnSznwT-79" edge="1">
          <mxGeometry relative="1" as="geometry" />
        </mxCell>
        <mxCell id="U7gWWJuZJVyANHnSznwT-70" value="&lt;div&gt;&lt;span style=&quot;background-color: initial;&quot;&gt;&amp;nbsp; &amp;nbsp; address: str&lt;/span&gt;&lt;/div&gt;" style="rounded=1;whiteSpace=wrap;html=1;align=left;fillColor=#d5e8d4;strokeColor=#82b366;shadow=1;" parent="1" vertex="1">
          <mxGeometry x="600" y="1510" width="160" height="30" as="geometry" />
        </mxCell>
        <mxCell id="U7gWWJuZJVyANHnSznwT-71" style="edgeStyle=none;rounded=0;orthogonalLoop=1;jettySize=auto;html=1;entryX=0;entryY=0.5;entryDx=0;entryDy=0;exitX=1;exitY=0.5;exitDx=0;exitDy=0;" parent="1" source="U7gWWJuZJVyANHnSznwT-73" target="U7gWWJuZJVyANHnSznwT-80" edge="1">
          <mxGeometry relative="1" as="geometry" />
        </mxCell>
        <mxCell id="U7gWWJuZJVyANHnSznwT-72" style="edgeStyle=none;rounded=0;orthogonalLoop=1;jettySize=auto;html=1;entryX=0;entryY=0.5;entryDx=0;entryDy=0;exitX=1;exitY=0.5;exitDx=0;exitDy=0;" parent="1" source="U7gWWJuZJVyANHnSznwT-73" target="U7gWWJuZJVyANHnSznwT-78" edge="1">
          <mxGeometry relative="1" as="geometry" />
        </mxCell>
        <mxCell id="U7gWWJuZJVyANHnSznwT-73" value="&lt;div&gt;&lt;span style=&quot;background-color: initial;&quot;&gt;&amp;nbsp; &amp;nbsp; phone_number: str&lt;/span&gt;&lt;/div&gt;" style="rounded=1;whiteSpace=wrap;html=1;align=left;fillColor=#ffe6cc;strokeColor=#d79b00;shadow=1;" parent="1" vertex="1">
          <mxGeometry x="600" y="1600" width="160" height="30" as="geometry" />
        </mxCell>
        <mxCell id="U7gWWJuZJVyANHnSznwT-74" style="edgeStyle=none;rounded=0;orthogonalLoop=1;jettySize=auto;html=1;entryX=0;entryY=0.5;entryDx=0;entryDy=0;exitX=1;exitY=0.5;exitDx=0;exitDy=0;" parent="1" source="U7gWWJuZJVyANHnSznwT-76" target="U7gWWJuZJVyANHnSznwT-77" edge="1">
          <mxGeometry relative="1" as="geometry" />
        </mxCell>
        <mxCell id="U7gWWJuZJVyANHnSznwT-75" style="edgeStyle=none;rounded=0;orthogonalLoop=1;jettySize=auto;html=1;entryX=0;entryY=0.5;entryDx=0;entryDy=0;exitX=1;exitY=0.5;exitDx=0;exitDy=0;" parent="1" source="U7gWWJuZJVyANHnSznwT-76" target="U7gWWJuZJVyANHnSznwT-80" edge="1">
          <mxGeometry relative="1" as="geometry" />
        </mxCell>
        <mxCell id="U7gWWJuZJVyANHnSznwT-76" value="&lt;div&gt;&lt;span style=&quot;background-color: initial;&quot;&gt;&amp;nbsp;&lt;/span&gt;&lt;span style=&quot;background-color: initial;&quot;&gt;&amp;nbsp; &amp;nbsp; email: str&lt;/span&gt;&lt;span style=&quot;background-color: initial;&quot;&gt;&amp;nbsp;&lt;/span&gt;&lt;br&gt;&lt;/div&gt;" style="rounded=1;whiteSpace=wrap;html=1;align=left;fillColor=#fff2cc;strokeColor=#d6b656;shadow=1;" parent="1" vertex="1">
          <mxGeometry x="600" y="1680" width="160" height="30" as="geometry" />
        </mxCell>
        <mxCell id="U7gWWJuZJVyANHnSznwT-77" value="&lt;div&gt;&amp;nbsp; &amp;nbsp; def send_email(self, message: str) -&amp;gt; None: ...&lt;/div&gt;" style="rounded=1;whiteSpace=wrap;html=1;align=left;shadow=1;fillColor=#fff2cc;strokeColor=#d6b656;" parent="1" vertex="1">
          <mxGeometry x="941" y="1680" width="700" height="30" as="geometry" />
        </mxCell>
        <mxCell id="U7gWWJuZJVyANHnSznwT-78" value="&lt;div&gt;&lt;span style=&quot;background-color: initial;&quot;&gt;&amp;nbsp; &amp;nbsp; def call_by_phone(self) -&amp;gt; None: ...&lt;/span&gt;&lt;/div&gt;" style="rounded=1;whiteSpace=wrap;html=1;align=left;shadow=1;fillColor=#ffe6cc;strokeColor=#d79b00;" parent="1" vertex="1">
          <mxGeometry x="941" y="1600" width="700" height="30" as="geometry" />
        </mxCell>
        <mxCell id="U7gWWJuZJVyANHnSznwT-79" value="&lt;div&gt;&lt;span style=&quot;background-color: initial;&quot;&gt;&amp;nbsp; &amp;nbsp; def update_address(self, new_address: str) -&amp;gt; None: ...&lt;/span&gt;&lt;/div&gt;" style="rounded=1;whiteSpace=wrap;html=1;align=left;shadow=1;fillColor=#d5e8d4;strokeColor=#82b366;" parent="1" vertex="1">
          <mxGeometry x="941" y="1510" width="700" height="30" as="geometry" />
        </mxCell>
        <mxCell id="U7gWWJuZJVyANHnSznwT-80" value="&lt;span style=&quot;background-color: initial;&quot;&gt;&amp;nbsp; &amp;nbsp; def get_personal_info(self) -&amp;gt; str: ...&lt;br&gt;&lt;/span&gt;&amp;nbsp; &amp;nbsp; def update_personal_info(self, name: str, age: int, gender: str, address: str, phone_number: str, email: str) -&amp;gt; None: ...&lt;span style=&quot;background-color: initial;&quot;&gt;&lt;br&gt;&lt;/span&gt;" style="rounded=1;whiteSpace=wrap;html=1;align=left;shadow=1;fillColor=#e51400;fontColor=#ffffff;strokeColor=#B20000;" parent="1" vertex="1">
          <mxGeometry x="941" y="1410" width="700" height="40" as="geometry" />
        </mxCell>
        <mxCell id="U7gWWJuZJVyANHnSznwT-81" value="Job" style="rounded=1;whiteSpace=wrap;html=1;shadow=1;labelPosition=center;verticalLabelPosition=top;align=center;verticalAlign=bottom;" parent="1" vertex="1">
          <mxGeometry x="580" y="1860" width="160" height="80" as="geometry" />
        </mxCell>
        <mxCell id="U7gWWJuZJVyANHnSznwT-82" style="edgeStyle=none;rounded=0;orthogonalLoop=1;jettySize=auto;html=1;entryX=0;entryY=0.5;entryDx=0;entryDy=0;" parent="1" source="U7gWWJuZJVyANHnSznwT-89" target="U7gWWJuZJVyANHnSznwT-87" edge="1">
          <mxGeometry relative="1" as="geometry" />
        </mxCell>
        <mxCell id="U7gWWJuZJVyANHnSznwT-83" style="edgeStyle=none;rounded=0;orthogonalLoop=1;jettySize=auto;html=1;entryX=0;entryY=0.5;entryDx=0;entryDy=0;exitX=1;exitY=0.5;exitDx=0;exitDy=0;" parent="1" source="U7gWWJuZJVyANHnSznwT-85" target="U7gWWJuZJVyANHnSznwT-86" edge="1">
          <mxGeometry relative="1" as="geometry" />
        </mxCell>
        <mxCell id="U7gWWJuZJVyANHnSznwT-84" style="edgeStyle=none;rounded=0;orthogonalLoop=1;jettySize=auto;html=1;entryX=0;entryY=0.5;entryDx=0;entryDy=0;exitX=1;exitY=0.25;exitDx=0;exitDy=0;" parent="1" source="U7gWWJuZJVyANHnSznwT-85" target="U7gWWJuZJVyANHnSznwT-87" edge="1">
          <mxGeometry relative="1" as="geometry" />
        </mxCell>
        <mxCell id="U7gWWJuZJVyANHnSznwT-85" value="&lt;div&gt;&lt;span style=&quot;background-color: initial;&quot;&gt;&amp;nbsp; &amp;nbsp; job_title: str&lt;/span&gt;&lt;br&gt;&lt;/div&gt;&lt;div&gt;&amp;nbsp; &amp;nbsp; job_description: str&lt;/div&gt;" style="rounded=1;whiteSpace=wrap;html=1;align=left;fillColor=#e1d5e7;strokeColor=#9673a6;shadow=1;" parent="1" vertex="1">
          <mxGeometry x="600" y="1870" width="160" height="40" as="geometry" />
        </mxCell>
        <mxCell id="U7gWWJuZJVyANHnSznwT-86" value="&lt;div&gt;&lt;span style=&quot;background-color: initial;&quot;&gt;&amp;nbsp; &amp;nbsp; def change_job_title(self, new_title: str) -&amp;gt; None: ...&lt;/span&gt;&lt;/div&gt;" style="rounded=1;whiteSpace=wrap;html=1;align=left;shadow=1;fillColor=#e1d5e7;strokeColor=#9673a6;" parent="1" vertex="1">
          <mxGeometry x="941" y="1840" width="700" height="30" as="geometry" />
        </mxCell>
        <mxCell id="U7gWWJuZJVyANHnSznwT-87" value="&lt;div&gt;&lt;span style=&quot;background-color: initial;&quot;&gt;&amp;nbsp; &amp;nbsp; def get_company_info(self) -&amp;gt; str: ...&lt;/span&gt;&lt;/div&gt;&lt;div&gt;&lt;div style=&quot;border-color: var(--border-color);&quot;&gt;&amp;nbsp; &amp;nbsp; def update_company_info(self, company_name: str, company_address: str, job_title: str, job_description: str) -&amp;gt; None: ...&lt;/div&gt;&lt;/div&gt;" style="rounded=1;whiteSpace=wrap;html=1;align=left;shadow=1;fillColor=#f8cecc;strokeColor=#b85450;" parent="1" vertex="1">
          <mxGeometry x="940" y="1790" width="700" height="40" as="geometry" />
        </mxCell>
        <mxCell id="U7gWWJuZJVyANHnSznwT-88" value="Company" style="rounded=1;whiteSpace=wrap;html=1;shadow=1;labelPosition=center;verticalLabelPosition=top;align=center;verticalAlign=bottom;" parent="1" vertex="1">
          <mxGeometry x="580" y="1750" width="160" height="80" as="geometry" />
        </mxCell>
        <mxCell id="U7gWWJuZJVyANHnSznwT-89" value="&lt;div&gt;&lt;span style=&quot;background-color: initial;&quot;&gt;&amp;nbsp; &amp;nbsp; company_name: str&lt;/span&gt;&lt;br&gt;&lt;/div&gt;&lt;div&gt;&amp;nbsp; &amp;nbsp; company_address: str&lt;span style=&quot;background-color: initial;&quot;&gt;&amp;nbsp;&lt;/span&gt;&lt;/div&gt;" style="rounded=1;whiteSpace=wrap;html=1;align=left;fillColor=#f8cecc;strokeColor=#b85450;shadow=1;" parent="1" vertex="1">
          <mxGeometry x="600" y="1760" width="160" height="60" as="geometry" />
        </mxCell>
        <mxCell id="U7gWWJuZJVyANHnSznwT-93" value="&lt;div&gt;&lt;span style=&quot;background-color: initial;&quot;&gt;&amp;nbsp; &amp;nbsp; def calculate_salary(self) -&amp;gt; float: ...&lt;/span&gt;&lt;/div&gt;" style="rounded=1;whiteSpace=wrap;html=1;align=left;shadow=1;fillColor=#76608a;fontColor=#ffffff;strokeColor=#432D57;" parent="1" vertex="1">
          <mxGeometry x="941" y="1910" width="700" height="30" as="geometry" />
        </mxCell>
        <mxCell id="U7gWWJuZJVyANHnSznwT-94" value="&lt;div style=&quot;border-color: var(--border-color);&quot;&gt;&amp;nbsp; &amp;nbsp; def hire_employee(self, employee_info: dict) -&amp;gt; None: ...&lt;/div&gt;&lt;div style=&quot;border-color: var(--border-color);&quot;&gt;&amp;nbsp; &amp;nbsp; def fire_employee(self, employee_id: int) -&amp;gt; None: ..&lt;/div&gt;" style="rounded=1;whiteSpace=wrap;html=1;align=left;shadow=1;fillColor=#647687;fontColor=#ffffff;strokeColor=#314354;" parent="1" vertex="1">
          <mxGeometry x="941" y="1950" width="700" height="40" as="geometry" />
        </mxCell>
        <mxCell id="U7gWWJuZJVyANHnSznwT-95" style="edgeStyle=none;rounded=0;orthogonalLoop=1;jettySize=auto;html=1;entryX=0;entryY=0.5;entryDx=0;entryDy=0;exitX=0.99;exitY=0.974;exitDx=0;exitDy=0;exitPerimeter=0;" parent="1" source="U7gWWJuZJVyANHnSznwT-61" target="U7gWWJuZJVyANHnSznwT-93" edge="1">
          <mxGeometry relative="1" as="geometry">
            <mxPoint x="730" y="1960" as="sourcePoint" />
          </mxGeometry>
        </mxCell>
        <mxCell id="U7gWWJuZJVyANHnSznwT-96" style="edgeStyle=none;rounded=0;orthogonalLoop=1;jettySize=auto;html=1;exitX=0.99;exitY=0.98;exitDx=0;exitDy=0;exitPerimeter=0;" parent="1" source="U7gWWJuZJVyANHnSznwT-61" target="U7gWWJuZJVyANHnSznwT-94" edge="1">
          <mxGeometry relative="1" as="geometry">
            <mxPoint x="872" y="2010" as="sourcePoint" />
          </mxGeometry>
        </mxCell>
        <mxCell id="U7gWWJuZJVyANHnSznwT-98" value="&lt;div&gt;&amp;nbsp; &amp;nbsp; name: str&lt;/div&gt;&lt;div&gt;&amp;nbsp; &amp;nbsp; age: int&lt;/div&gt;&lt;div&gt;&amp;nbsp; &amp;nbsp; gender: str&lt;/div&gt;" style="rounded=1;whiteSpace=wrap;html=1;align=left;fillColor=#dae8fc;strokeColor=#6c8ebf;shadow=1;" parent="1" vertex="1">
          <mxGeometry x="2000" y="120" width="160" height="60" as="geometry" />
        </mxCell>
        <mxCell id="U7gWWJuZJVyANHnSznwT-101" value="&lt;div&gt;&lt;span style=&quot;background-color: initial;&quot;&gt;&amp;nbsp; &amp;nbsp; address: str&lt;/span&gt;&lt;/div&gt;" style="rounded=1;whiteSpace=wrap;html=1;align=left;fillColor=#d5e8d4;strokeColor=#82b366;shadow=1;" parent="1" vertex="1">
          <mxGeometry x="2001" y="190" width="160" height="30" as="geometry" />
        </mxCell>
        <mxCell id="U7gWWJuZJVyANHnSznwT-104" value="&lt;div&gt;&lt;span style=&quot;background-color: initial;&quot;&gt;&amp;nbsp; &amp;nbsp; phone_number: str&lt;/span&gt;&lt;/div&gt;" style="rounded=1;whiteSpace=wrap;html=1;align=left;fillColor=#ffe6cc;strokeColor=#d79b00;shadow=1;" parent="1" vertex="1">
          <mxGeometry x="2001" y="230" width="160" height="30" as="geometry" />
        </mxCell>
        <mxCell id="U7gWWJuZJVyANHnSznwT-107" value="&lt;div&gt;&lt;span style=&quot;background-color: initial;&quot;&gt;&amp;nbsp;&lt;/span&gt;&lt;span style=&quot;background-color: initial;&quot;&gt;&amp;nbsp; &amp;nbsp; email: str&lt;/span&gt;&lt;span style=&quot;background-color: initial;&quot;&gt;&amp;nbsp;&lt;/span&gt;&lt;br&gt;&lt;/div&gt;" style="rounded=1;whiteSpace=wrap;html=1;align=left;fillColor=#fff2cc;strokeColor=#d6b656;shadow=1;" parent="1" vertex="1">
          <mxGeometry x="2001" y="270" width="160" height="30" as="geometry" />
        </mxCell>
        <mxCell id="U7gWWJuZJVyANHnSznwT-109" value="&lt;div&gt;&lt;span style=&quot;background-color: initial;&quot;&gt;&amp;nbsp; &amp;nbsp; company_name: str&lt;/span&gt;&lt;br&gt;&lt;/div&gt;&lt;div&gt;&amp;nbsp; &amp;nbsp; company_address: str&lt;span style=&quot;background-color: initial;&quot;&gt;&amp;nbsp;&lt;/span&gt;&lt;/div&gt;" style="rounded=1;whiteSpace=wrap;html=1;align=left;fillColor=#f8cecc;strokeColor=#b85450;shadow=1;" parent="1" vertex="1">
          <mxGeometry x="2001" y="310" width="160" height="60" as="geometry" />
        </mxCell>
        <mxCell id="U7gWWJuZJVyANHnSznwT-112" value="&lt;div&gt;&lt;span style=&quot;background-color: initial;&quot;&gt;&amp;nbsp; &amp;nbsp; job_title: str&lt;/span&gt;&lt;br&gt;&lt;/div&gt;&lt;div&gt;&amp;nbsp; &amp;nbsp; job_description: str&lt;/div&gt;" style="rounded=1;whiteSpace=wrap;html=1;align=left;fillColor=#e1d5e7;strokeColor=#9673a6;shadow=1;" parent="1" vertex="1">
          <mxGeometry x="2001" y="380" width="160" height="40" as="geometry" />
        </mxCell>
        <mxCell id="U7gWWJuZJVyANHnSznwT-113" value="&lt;div&gt;&amp;nbsp; &amp;nbsp; def send_email(self, message: str) -&amp;gt; None: ...&lt;/div&gt;" style="rounded=1;whiteSpace=wrap;html=1;align=left;shadow=1;fillColor=#fff2cc;strokeColor=#d6b656;" parent="1" vertex="1">
          <mxGeometry x="2280" y="120" width="700" height="30" as="geometry" />
        </mxCell>
        <mxCell id="U7gWWJuZJVyANHnSznwT-114" value="&lt;div&gt;&lt;span style=&quot;background-color: initial;&quot;&gt;&amp;nbsp; &amp;nbsp; def call_by_phone(self) -&amp;gt; None: ...&lt;/span&gt;&lt;/div&gt;" style="rounded=1;whiteSpace=wrap;html=1;align=left;shadow=1;fillColor=#ffe6cc;strokeColor=#d79b00;" parent="1" vertex="1">
          <mxGeometry x="2280" y="200" width="700" height="30" as="geometry" />
        </mxCell>
        <mxCell id="U7gWWJuZJVyANHnSznwT-115" value="&lt;div&gt;&lt;span style=&quot;background-color: initial;&quot;&gt;&amp;nbsp; &amp;nbsp; def change_job_title(self, new_title: str) -&amp;gt; None: ...&lt;/span&gt;&lt;/div&gt;" style="rounded=1;whiteSpace=wrap;html=1;align=left;shadow=1;fillColor=#e1d5e7;strokeColor=#9673a6;" parent="1" vertex="1">
          <mxGeometry x="2280" y="240" width="700" height="30" as="geometry" />
        </mxCell>
        <mxCell id="U7gWWJuZJVyANHnSznwT-116" value="&lt;div&gt;&lt;span style=&quot;background-color: initial;&quot;&gt;&amp;nbsp; &amp;nbsp; def update_address(self, new_address: str) -&amp;gt; None: ...&lt;/span&gt;&lt;/div&gt;" style="rounded=1;whiteSpace=wrap;html=1;align=left;shadow=1;fillColor=#d5e8d4;strokeColor=#82b366;" parent="1" vertex="1">
          <mxGeometry x="2280" y="160" width="700" height="30" as="geometry" />
        </mxCell>
        <mxCell id="U7gWWJuZJVyANHnSznwT-117" value="&lt;span style=&quot;background-color: initial;&quot;&gt;&amp;nbsp; &amp;nbsp; def get_personal_info(self) -&amp;gt; str: ...&lt;br&gt;&lt;/span&gt;&amp;nbsp; &amp;nbsp; def update_personal_info(self, name: str, age: int, gender: str, address: str, phone_number: str, email: str) -&amp;gt; None: ...&lt;span style=&quot;background-color: initial;&quot;&gt;&lt;br&gt;&lt;/span&gt;" style="rounded=1;whiteSpace=wrap;html=1;align=left;shadow=1;fillColor=#e51400;fontColor=#ffffff;strokeColor=#B20000;" parent="1" vertex="1">
          <mxGeometry x="2280" y="280" width="700" height="40" as="geometry" />
        </mxCell>
        <mxCell id="U7gWWJuZJVyANHnSznwT-118" value="&lt;div&gt;&lt;span style=&quot;background-color: initial;&quot;&gt;&amp;nbsp; &amp;nbsp; def get_company_info(self) -&amp;gt; str: ...&lt;/span&gt;&lt;/div&gt;&lt;div&gt;&lt;div style=&quot;border-color: var(--border-color);&quot;&gt;&amp;nbsp; &amp;nbsp; def update_company_info(self, company_name: str, company_address: str, job_title: str, job_description: str) -&amp;gt; None: ...&lt;/div&gt;&lt;/div&gt;" style="rounded=1;whiteSpace=wrap;html=1;align=left;shadow=1;fillColor=#f8cecc;strokeColor=#b85450;" parent="1" vertex="1">
          <mxGeometry x="2280" y="330" width="700" height="40" as="geometry" />
        </mxCell>
        <mxCell id="U7gWWJuZJVyANHnSznwT-119" value="&lt;div&gt;&lt;span style=&quot;background-color: initial;&quot;&gt;&amp;nbsp; &amp;nbsp; def calculate_salary(self) -&amp;gt; float: ...&lt;/span&gt;&lt;/div&gt;" style="rounded=1;whiteSpace=wrap;html=1;align=left;shadow=1;fillColor=#76608a;fontColor=#ffffff;strokeColor=#432D57;" parent="1" vertex="1">
          <mxGeometry x="2280" y="380" width="700" height="30" as="geometry" />
        </mxCell>
        <mxCell id="U7gWWJuZJVyANHnSznwT-120" value="&lt;div style=&quot;border-color: var(--border-color);&quot;&gt;&amp;nbsp; &amp;nbsp; def hire_employee(self, employee_info: dict) -&amp;gt; None: ...&lt;/div&gt;&lt;div style=&quot;border-color: var(--border-color);&quot;&gt;&amp;nbsp; &amp;nbsp; def fire_employee(self, employee_id: int) -&amp;gt; None: ..&lt;/div&gt;" style="rounded=1;whiteSpace=wrap;html=1;align=left;shadow=1;fillColor=#647687;fontColor=#ffffff;strokeColor=#314354;" parent="1" vertex="1">
          <mxGeometry x="2280" y="420" width="700" height="40" as="geometry" />
        </mxCell>
        <mxCell id="U7gWWJuZJVyANHnSznwT-121" value="People" style="swimlane;fontStyle=1;align=center;verticalAlign=top;childLayout=stackLayout;horizontal=1;startSize=26;horizontalStack=0;resizeParent=1;resizeParentMax=0;resizeLast=0;collapsible=1;marginBottom=0;shadow=1;fillColor=#f5f5f5;fontColor=#333333;strokeColor=#666666;" parent="1" vertex="1">
          <mxGeometry x="1830" y="1590" width="160" height="34" as="geometry" />
        </mxCell>
        <mxCell id="U7gWWJuZJVyANHnSznwT-123" value="" style="line;strokeWidth=1;fillColor=none;align=left;verticalAlign=middle;spacingTop=-1;spacingLeft=3;spacingRight=3;rotatable=0;labelPosition=right;points=[];portConstraint=eastwest;strokeColor=inherit;shadow=1;" parent="U7gWWJuZJVyANHnSznwT-121" vertex="1">
          <mxGeometry y="26" width="160" height="8" as="geometry" />
        </mxCell>
        <mxCell id="U7gWWJuZJVyANHnSznwT-125" value="Person" style="swimlane;fontStyle=1;align=center;verticalAlign=top;childLayout=stackLayout;horizontal=1;startSize=26;horizontalStack=0;resizeParent=1;resizeParentMax=0;resizeLast=0;collapsible=1;marginBottom=0;shadow=1;fillColor=#dae8fc;strokeColor=#6c8ebf;" parent="1" vertex="1">
          <mxGeometry x="2068" y="1470" width="160" height="34" as="geometry" />
        </mxCell>
        <mxCell id="U7gWWJuZJVyANHnSznwT-126" value="" style="line;strokeWidth=1;fillColor=none;align=left;verticalAlign=middle;spacingTop=-1;spacingLeft=3;spacingRight=3;rotatable=0;labelPosition=right;points=[];portConstraint=eastwest;strokeColor=inherit;shadow=1;" parent="U7gWWJuZJVyANHnSznwT-125" vertex="1">
          <mxGeometry y="26" width="160" height="8" as="geometry" />
        </mxCell>
        <mxCell id="U7gWWJuZJVyANHnSznwT-127" value="Address" style="swimlane;fontStyle=1;align=center;verticalAlign=top;childLayout=stackLayout;horizontal=1;startSize=26;horizontalStack=0;resizeParent=1;resizeParentMax=0;resizeLast=0;collapsible=1;marginBottom=0;shadow=1;fillColor=#d5e8d4;strokeColor=#82b366;" parent="1" vertex="1">
          <mxGeometry x="2068" y="1516" width="160" height="34" as="geometry" />
        </mxCell>
        <mxCell id="U7gWWJuZJVyANHnSznwT-128" value="" style="line;strokeWidth=1;fillColor=none;align=left;verticalAlign=middle;spacingTop=-1;spacingLeft=3;spacingRight=3;rotatable=0;labelPosition=right;points=[];portConstraint=eastwest;strokeColor=inherit;shadow=1;" parent="U7gWWJuZJVyANHnSznwT-127" vertex="1">
          <mxGeometry y="26" width="160" height="8" as="geometry" />
        </mxCell>
        <mxCell id="U7gWWJuZJVyANHnSznwT-129" value="Phone" style="swimlane;fontStyle=1;align=center;verticalAlign=top;childLayout=stackLayout;horizontal=1;startSize=26;horizontalStack=0;resizeParent=1;resizeParentMax=0;resizeLast=0;collapsible=1;marginBottom=0;shadow=1;fillColor=#ffe6cc;strokeColor=#d79b00;" parent="1" vertex="1">
          <mxGeometry x="2068" y="1566" width="160" height="34" as="geometry" />
        </mxCell>
        <mxCell id="U7gWWJuZJVyANHnSznwT-130" value="" style="line;strokeWidth=1;fillColor=none;align=left;verticalAlign=middle;spacingTop=-1;spacingLeft=3;spacingRight=3;rotatable=0;labelPosition=right;points=[];portConstraint=eastwest;strokeColor=inherit;shadow=1;" parent="U7gWWJuZJVyANHnSznwT-129" vertex="1">
          <mxGeometry y="26" width="160" height="8" as="geometry" />
        </mxCell>
        <mxCell id="U7gWWJuZJVyANHnSznwT-131" value="Email" style="swimlane;fontStyle=1;align=center;verticalAlign=top;childLayout=stackLayout;horizontal=1;startSize=26;horizontalStack=0;resizeParent=1;resizeParentMax=0;resizeLast=0;collapsible=1;marginBottom=0;shadow=1;fillColor=#fff2cc;strokeColor=#d6b656;" parent="1" vertex="1">
          <mxGeometry x="2068" y="1620" width="160" height="34" as="geometry" />
        </mxCell>
        <mxCell id="U7gWWJuZJVyANHnSznwT-132" value="" style="line;strokeWidth=1;fillColor=none;align=left;verticalAlign=middle;spacingTop=-1;spacingLeft=3;spacingRight=3;rotatable=0;labelPosition=right;points=[];portConstraint=eastwest;strokeColor=inherit;shadow=1;" parent="U7gWWJuZJVyANHnSznwT-131" vertex="1">
          <mxGeometry y="26" width="160" height="8" as="geometry" />
        </mxCell>
        <mxCell id="U7gWWJuZJVyANHnSznwT-133" value="Company" style="swimlane;fontStyle=1;align=center;verticalAlign=top;childLayout=stackLayout;horizontal=1;startSize=26;horizontalStack=0;resizeParent=1;resizeParentMax=0;resizeLast=0;collapsible=1;marginBottom=0;shadow=1;fillColor=#f8cecc;strokeColor=#b85450;" parent="1" vertex="1">
          <mxGeometry x="2068" y="1670" width="160" height="34" as="geometry" />
        </mxCell>
        <mxCell id="U7gWWJuZJVyANHnSznwT-134" value="" style="line;strokeWidth=1;fillColor=none;align=left;verticalAlign=middle;spacingTop=-1;spacingLeft=3;spacingRight=3;rotatable=0;labelPosition=right;points=[];portConstraint=eastwest;strokeColor=inherit;shadow=1;" parent="U7gWWJuZJVyANHnSznwT-133" vertex="1">
          <mxGeometry y="26" width="160" height="8" as="geometry" />
        </mxCell>
        <mxCell id="U7gWWJuZJVyANHnSznwT-135" value="Job" style="swimlane;fontStyle=1;align=center;verticalAlign=top;childLayout=stackLayout;horizontal=1;startSize=26;horizontalStack=0;resizeParent=1;resizeParentMax=0;resizeLast=0;collapsible=1;marginBottom=0;shadow=1;fillColor=#e1d5e7;strokeColor=#9673a6;" parent="1" vertex="1">
          <mxGeometry x="2068" y="1720" width="160" height="34" as="geometry" />
        </mxCell>
        <mxCell id="U7gWWJuZJVyANHnSznwT-136" value="" style="line;strokeWidth=1;fillColor=none;align=left;verticalAlign=middle;spacingTop=-1;spacingLeft=3;spacingRight=3;rotatable=0;labelPosition=right;points=[];portConstraint=eastwest;strokeColor=inherit;shadow=1;" parent="U7gWWJuZJVyANHnSznwT-135" vertex="1">
          <mxGeometry y="26" width="160" height="8" as="geometry" />
        </mxCell>
        <mxCell id="U7gWWJuZJVyANHnSznwT-137" value="1" style="endArrow=open;html=1;endSize=12;startArrow=diamondThin;startSize=14;startFill=1;edgeStyle=orthogonalEdgeStyle;align=left;verticalAlign=bottom;rounded=0;entryX=0;entryY=0.5;entryDx=0;entryDy=0;" parent="1" source="U7gWWJuZJVyANHnSznwT-121" target="U7gWWJuZJVyANHnSznwT-125" edge="1">
          <mxGeometry x="-1" y="3" relative="1" as="geometry">
            <mxPoint x="1830" y="1520" as="sourcePoint" />
            <mxPoint x="1990" y="1520" as="targetPoint" />
          </mxGeometry>
        </mxCell>
        <mxCell id="U7gWWJuZJVyANHnSznwT-138" value="1" style="endArrow=open;html=1;endSize=12;startArrow=diamondThin;startSize=14;startFill=1;edgeStyle=orthogonalEdgeStyle;align=left;verticalAlign=bottom;rounded=0;entryX=0;entryY=0.25;entryDx=0;entryDy=0;exitX=1;exitY=0.5;exitDx=0;exitDy=0;" parent="1" source="U7gWWJuZJVyANHnSznwT-121" target="U7gWWJuZJVyANHnSznwT-127" edge="1">
          <mxGeometry x="-1" y="3" relative="1" as="geometry">
            <mxPoint x="2000" y="1617" as="sourcePoint" />
            <mxPoint x="2078" y="1497" as="targetPoint" />
          </mxGeometry>
        </mxCell>
        <mxCell id="U7gWWJuZJVyANHnSznwT-139" value="1" style="endArrow=open;html=1;endSize=12;startArrow=diamondThin;startSize=14;startFill=1;edgeStyle=orthogonalEdgeStyle;align=left;verticalAlign=bottom;rounded=0;entryX=0;entryY=0.5;entryDx=0;entryDy=0;exitX=1;exitY=0.5;exitDx=0;exitDy=0;" parent="1" source="U7gWWJuZJVyANHnSznwT-121" target="U7gWWJuZJVyANHnSznwT-129" edge="1">
          <mxGeometry x="-1" y="3" relative="1" as="geometry">
            <mxPoint x="2000" y="1617" as="sourcePoint" />
            <mxPoint x="2078" y="1534.5" as="targetPoint" />
          </mxGeometry>
        </mxCell>
        <mxCell id="U7gWWJuZJVyANHnSznwT-140" value="1" style="endArrow=open;html=1;endSize=12;startArrow=diamondThin;startSize=14;startFill=1;edgeStyle=orthogonalEdgeStyle;align=left;verticalAlign=bottom;rounded=0;entryX=0;entryY=0.5;entryDx=0;entryDy=0;" parent="1" source="U7gWWJuZJVyANHnSznwT-121" target="U7gWWJuZJVyANHnSznwT-131" edge="1">
          <mxGeometry x="-1" y="3" relative="1" as="geometry">
            <mxPoint x="2000" y="1617" as="sourcePoint" />
            <mxPoint x="2078" y="1593" as="targetPoint" />
          </mxGeometry>
        </mxCell>
        <mxCell id="U7gWWJuZJVyANHnSznwT-141" value="1" style="endArrow=open;html=1;endSize=12;startArrow=diamondThin;startSize=14;startFill=1;edgeStyle=orthogonalEdgeStyle;align=left;verticalAlign=bottom;rounded=0;entryX=0;entryY=0.5;entryDx=0;entryDy=0;exitX=1;exitY=0.5;exitDx=0;exitDy=0;" parent="1" source="U7gWWJuZJVyANHnSznwT-121" target="U7gWWJuZJVyANHnSznwT-133" edge="1">
          <mxGeometry x="-1" y="3" relative="1" as="geometry">
            <mxPoint x="2000" y="1617" as="sourcePoint" />
            <mxPoint x="2078" y="1647" as="targetPoint" />
          </mxGeometry>
        </mxCell>
        <mxCell id="U7gWWJuZJVyANHnSznwT-142" value="1" style="endArrow=open;html=1;endSize=12;startArrow=diamondThin;startSize=14;startFill=1;edgeStyle=orthogonalEdgeStyle;align=left;verticalAlign=bottom;rounded=0;entryX=0;entryY=0.5;entryDx=0;entryDy=0;" parent="1" source="U7gWWJuZJVyANHnSznwT-121" target="U7gWWJuZJVyANHnSznwT-135" edge="1">
          <mxGeometry x="-1" y="3" relative="1" as="geometry">
            <mxPoint x="2000" y="1617" as="sourcePoint" />
            <mxPoint x="2078" y="1697" as="targetPoint" />
          </mxGeometry>
        </mxCell>
      </root>
    </mxGraphModel>
  </diagram>
  <diagram id="WWE9uFCaFiM9Dw-KbNxu" name="Page-10">
    <mxGraphModel dx="1408" dy="971" grid="1" gridSize="10" guides="1" tooltips="1" connect="1" arrows="1" fold="1" page="1" pageScale="1" pageWidth="827" pageHeight="1169" math="0" shadow="0">
      <root>
        <mxCell id="0" />
        <mxCell id="1" parent="0" />
        <mxCell id="w6Pl9qellSACmRMv3hPe-1" value="property 1" style="rounded=1;whiteSpace=wrap;html=1;shadow=1;fillColor=#dae8fc;strokeColor=#6c8ebf;" parent="1" vertex="1">
          <mxGeometry x="120" y="160" width="80" height="30" as="geometry" />
        </mxCell>
        <mxCell id="w6Pl9qellSACmRMv3hPe-2" value="property 2" style="rounded=1;whiteSpace=wrap;html=1;shadow=1;fillColor=#dae8fc;strokeColor=#6c8ebf;" parent="1" vertex="1">
          <mxGeometry x="120" y="210" width="80" height="30" as="geometry" />
        </mxCell>
        <mxCell id="w6Pl9qellSACmRMv3hPe-3" value="property 3" style="rounded=1;whiteSpace=wrap;html=1;shadow=1;fillColor=#dae8fc;strokeColor=#6c8ebf;" parent="1" vertex="1">
          <mxGeometry x="390" y="180" width="80" height="30" as="geometry" />
        </mxCell>
        <mxCell id="w6Pl9qellSACmRMv3hPe-4" value="property 4" style="rounded=1;whiteSpace=wrap;html=1;shadow=1;fillColor=#dae8fc;strokeColor=#6c8ebf;" parent="1" vertex="1">
          <mxGeometry x="400" y="320" width="80" height="30" as="geometry" />
        </mxCell>
        <mxCell id="w6Pl9qellSACmRMv3hPe-5" value="property 5" style="rounded=1;whiteSpace=wrap;html=1;shadow=1;fillColor=#dae8fc;strokeColor=#6c8ebf;" parent="1" vertex="1">
          <mxGeometry x="790" y="125" width="80" height="30" as="geometry" />
        </mxCell>
        <mxCell id="w6Pl9qellSACmRMv3hPe-6" value="property 6" style="rounded=1;whiteSpace=wrap;html=1;shadow=1;fillColor=#dae8fc;strokeColor=#6c8ebf;" parent="1" vertex="1">
          <mxGeometry x="510" y="130" width="80" height="30" as="geometry" />
        </mxCell>
        <mxCell id="w6Pl9qellSACmRMv3hPe-7" value="property 7" style="rounded=1;whiteSpace=wrap;html=1;shadow=1;fillColor=#dae8fc;strokeColor=#6c8ebf;" parent="1" vertex="1">
          <mxGeometry x="630" y="130" width="80" height="30" as="geometry" />
        </mxCell>
        <mxCell id="w6Pl9qellSACmRMv3hPe-8" value="method 1" style="rounded=1;whiteSpace=wrap;html=1;shadow=1;fillColor=#f8cecc;strokeColor=#b85450;" parent="1" vertex="1">
          <mxGeometry x="280" y="120" width="80" height="30" as="geometry" />
        </mxCell>
        <mxCell id="w6Pl9qellSACmRMv3hPe-9" value="method 2" style="rounded=1;whiteSpace=wrap;html=1;shadow=1;fillColor=#f8cecc;strokeColor=#b85450;" parent="1" vertex="1">
          <mxGeometry x="410" y="250" width="80" height="30" as="geometry" />
        </mxCell>
        <mxCell id="w6Pl9qellSACmRMv3hPe-10" value="method 3" style="rounded=1;whiteSpace=wrap;html=1;shadow=1;fillColor=#f8cecc;strokeColor=#b85450;" parent="1" vertex="1">
          <mxGeometry x="240" y="280" width="80" height="30" as="geometry" />
        </mxCell>
        <mxCell id="w6Pl9qellSACmRMv3hPe-11" value="method 4" style="rounded=1;whiteSpace=wrap;html=1;shadow=1;fillColor=#f8cecc;strokeColor=#b85450;" parent="1" vertex="1">
          <mxGeometry x="580" y="300" width="80" height="30" as="geometry" />
        </mxCell>
        <mxCell id="w6Pl9qellSACmRMv3hPe-12" value="method 5" style="rounded=1;whiteSpace=wrap;html=1;shadow=1;fillColor=#f8cecc;strokeColor=#b85450;" parent="1" vertex="1">
          <mxGeometry x="750" y="250" width="80" height="30" as="geometry" />
        </mxCell>
        <mxCell id="w6Pl9qellSACmRMv3hPe-13" value="method 6" style="rounded=1;whiteSpace=wrap;html=1;shadow=1;fillColor=#f8cecc;strokeColor=#b85450;" parent="1" vertex="1">
          <mxGeometry x="110" y="330" width="80" height="30" as="geometry" />
        </mxCell>
        <mxCell id="w6Pl9qellSACmRMv3hPe-14" value="method 7" style="rounded=1;whiteSpace=wrap;html=1;shadow=1;fillColor=#f8cecc;strokeColor=#b85450;" parent="1" vertex="1">
          <mxGeometry x="630" y="50" width="80" height="30" as="geometry" />
        </mxCell>
      </root>
    </mxGraphModel>
  </diagram>
  <diagram id="DiLPJLcq52Ct3b7sxKRS" name="Repository">
    <mxGraphModel dx="2954" dy="1203" grid="1" gridSize="10" guides="1" tooltips="1" connect="1" arrows="1" fold="1" page="1" pageScale="1" pageWidth="827" pageHeight="1169" math="0" shadow="0">
      <root>
        <mxCell id="0" />
        <mxCell id="1" parent="0" />
        <mxCell id="VH-Dg-llkLFxNwHJI8jG-29" value="cities.views" style="shape=module;align=left;spacingLeft=20;align=center;verticalAlign=top;shadow=1;fillColor=#dae8fc;strokeColor=#6c8ebf;gradientDirection=east;" vertex="1" parent="1">
          <mxGeometry x="1260" y="500" width="160" height="200" as="geometry" />
        </mxCell>
        <mxCell id="VH-Dg-llkLFxNwHJI8jG-28" value="cities.controllers" style="shape=module;align=left;spacingLeft=20;align=center;verticalAlign=top;shadow=1;fillColor=#dae8fc;strokeColor=#6c8ebf;gradientDirection=east;" vertex="1" parent="1">
          <mxGeometry x="1450" y="500" width="160" height="200" as="geometry" />
        </mxCell>
        <mxCell id="DaSMT_uNDwRVqXkCBsfM-25" value="cities.api.Store" style="shape=module;align=left;spacingLeft=20;align=center;verticalAlign=top;shadow=1;fillColor=#dae8fc;strokeColor=#6c8ebf;gradientColor=#FFCCCC;gradientDirection=east;" parent="1" vertex="1">
          <mxGeometry x="380" y="480" width="180" height="100" as="geometry" />
        </mxCell>
        <mxCell id="DaSMT_uNDwRVqXkCBsfM-18" value="cities" style="shape=module;align=left;spacingLeft=20;align=center;verticalAlign=top;shadow=1;fillColor=#dae8fc;strokeColor=#6c8ebf;gradientDirection=east;" parent="1" vertex="1">
          <mxGeometry x="140" y="480" width="160" height="200" as="geometry" />
        </mxCell>
        <mxCell id="DaSMT_uNDwRVqXkCBsfM-12" value="cities" style="shape=module;align=left;spacingLeft=20;align=center;verticalAlign=top;shadow=1;fillColor=#dae8fc;strokeColor=#6c8ebf;gradientColor=none;gradientDirection=east;" parent="1" vertex="1">
          <mxGeometry x="140" y="120" width="160" height="100" as="geometry" />
        </mxCell>
        <mxCell id="DaSMT_uNDwRVqXkCBsfM-6" value="CityService" style="html=1;shadow=1;" parent="1" vertex="1">
          <mxGeometry x="170" y="150" width="110" height="50" as="geometry" />
        </mxCell>
        <mxCell id="DaSMT_uNDwRVqXkCBsfM-7" value="«interface»&lt;br&gt;&lt;b&gt;CityRepository&lt;/b&gt;" style="html=1;" parent="1" vertex="1">
          <mxGeometry x="165" y="610" width="110" height="50" as="geometry" />
        </mxCell>
        <mxCell id="DaSMT_uNDwRVqXkCBsfM-8" value="api" style="shape=module;align=left;spacingLeft=20;align=center;verticalAlign=top;shadow=1;fillColor=#f8cecc;strokeColor=#b85450;" parent="1" vertex="1">
          <mxGeometry x="370" y="120" width="150" height="100" as="geometry" />
        </mxCell>
        <mxCell id="DaSMT_uNDwRVqXkCBsfM-9" value="api.Store" style="html=1;shadow=1;" parent="1" vertex="1">
          <mxGeometry x="400" y="150" width="110" height="50" as="geometry" />
        </mxCell>
        <mxCell id="DaSMT_uNDwRVqXkCBsfM-11" value="Use" style="endArrow=open;endSize=12;dashed=1;html=1;rounded=0;exitX=1;exitY=0.5;exitDx=0;exitDy=0;" parent="1" source="DaSMT_uNDwRVqXkCBsfM-6" target="DaSMT_uNDwRVqXkCBsfM-9" edge="1">
          <mxGeometry width="160" relative="1" as="geometry">
            <mxPoint x="330" y="390" as="sourcePoint" />
            <mxPoint x="490" y="390" as="targetPoint" />
          </mxGeometry>
        </mxCell>
        <mxCell id="DaSMT_uNDwRVqXkCBsfM-13" value="cities" style="shape=module;align=left;spacingLeft=20;align=center;verticalAlign=top;shadow=1;fillColor=#dae8fc;strokeColor=#6c8ebf;gradientColor=#FFCCCC;gradientDirection=east;" parent="1" vertex="1">
          <mxGeometry x="140" y="280" width="160" height="100" as="geometry" />
        </mxCell>
        <mxCell id="DaSMT_uNDwRVqXkCBsfM-14" value="CityService" style="html=1;shadow=1;" parent="1" vertex="1">
          <mxGeometry x="170" y="310" width="110" height="50" as="geometry" />
        </mxCell>
        <mxCell id="DaSMT_uNDwRVqXkCBsfM-15" value="api" style="shape=module;align=left;spacingLeft=20;align=center;verticalAlign=top;shadow=1;fillColor=#f8cecc;strokeColor=#b85450;" parent="1" vertex="1">
          <mxGeometry x="370" y="280" width="150" height="100" as="geometry" />
        </mxCell>
        <mxCell id="DaSMT_uNDwRVqXkCBsfM-16" value="api.Store" style="html=1;shadow=1;" parent="1" vertex="1">
          <mxGeometry x="400" y="310" width="110" height="50" as="geometry" />
        </mxCell>
        <mxCell id="DaSMT_uNDwRVqXkCBsfM-17" value="Use" style="endArrow=open;endSize=12;dashed=1;html=1;rounded=0;exitX=1;exitY=0.5;exitDx=0;exitDy=0;" parent="1" source="DaSMT_uNDwRVqXkCBsfM-14" target="DaSMT_uNDwRVqXkCBsfM-16" edge="1">
          <mxGeometry width="160" relative="1" as="geometry">
            <mxPoint x="330" y="550" as="sourcePoint" />
            <mxPoint x="490" y="550" as="targetPoint" />
          </mxGeometry>
        </mxCell>
        <mxCell id="DaSMT_uNDwRVqXkCBsfM-19" value="CityService" style="html=1;shadow=1;" parent="1" vertex="1">
          <mxGeometry x="170" y="510" width="110" height="50" as="geometry" />
        </mxCell>
        <mxCell id="DaSMT_uNDwRVqXkCBsfM-20" value="api" style="shape=module;align=left;spacingLeft=20;align=center;verticalAlign=top;shadow=1;fillColor=#f8cecc;strokeColor=#b85450;" parent="1" vertex="1">
          <mxGeometry x="630" y="480" width="150" height="100" as="geometry" />
        </mxCell>
        <mxCell id="DaSMT_uNDwRVqXkCBsfM-21" value="api.Store" style="html=1;shadow=1;" parent="1" vertex="1">
          <mxGeometry x="660" y="510" width="110" height="50" as="geometry" />
        </mxCell>
        <mxCell id="DaSMT_uNDwRVqXkCBsfM-22" value="Use" style="endArrow=open;endSize=12;dashed=1;html=1;rounded=0;" parent="1" source="DaSMT_uNDwRVqXkCBsfM-19" target="DaSMT_uNDwRVqXkCBsfM-7" edge="1">
          <mxGeometry width="160" relative="1" as="geometry">
            <mxPoint x="330" y="750" as="sourcePoint" />
            <mxPoint x="490" y="750" as="targetPoint" />
          </mxGeometry>
        </mxCell>
        <mxCell id="DaSMT_uNDwRVqXkCBsfM-23" value="StoreApiCityRepository" style="html=1;shadow=1;" parent="1" vertex="1">
          <mxGeometry x="410" y="510" width="140" height="50" as="geometry" />
        </mxCell>
        <mxCell id="DaSMT_uNDwRVqXkCBsfM-24" value="" style="endArrow=block;dashed=1;endFill=0;endSize=12;html=1;rounded=1;edgeStyle=orthogonalEdgeStyle;entryX=1;entryY=0.25;entryDx=0;entryDy=0;" parent="1" source="DaSMT_uNDwRVqXkCBsfM-23" target="DaSMT_uNDwRVqXkCBsfM-7" edge="1">
          <mxGeometry width="160" relative="1" as="geometry">
            <mxPoint x="330" y="390" as="sourcePoint" />
            <mxPoint x="490" y="390" as="targetPoint" />
          </mxGeometry>
        </mxCell>
        <mxCell id="DaSMT_uNDwRVqXkCBsfM-26" value="Use" style="endArrow=open;endSize=12;dashed=1;html=1;rounded=0;exitX=1;exitY=0.5;exitDx=0;exitDy=0;" parent="1" source="DaSMT_uNDwRVqXkCBsfM-23" target="DaSMT_uNDwRVqXkCBsfM-21" edge="1">
          <mxGeometry width="160" relative="1" as="geometry">
            <mxPoint x="275" y="470" as="sourcePoint" />
            <mxPoint x="275" y="520" as="targetPoint" />
          </mxGeometry>
        </mxCell>
        <mxCell id="DaSMT_uNDwRVqXkCBsfM-27" value="cities.mongodb" style="shape=module;align=left;spacingLeft=20;align=center;verticalAlign=top;shadow=1;fillColor=#dae8fc;strokeColor=#6c8ebf;gradientColor=#FFCC99;gradientDirection=east;" parent="1" vertex="1">
          <mxGeometry x="380" y="610" width="180" height="100" as="geometry" />
        </mxCell>
        <mxCell id="DaSMT_uNDwRVqXkCBsfM-28" value="mongodb" style="shape=module;align=left;spacingLeft=20;align=center;verticalAlign=top;shadow=1;fillColor=#ffe6cc;strokeColor=#d79b00;" parent="1" vertex="1">
          <mxGeometry x="630" y="610" width="150" height="100" as="geometry" />
        </mxCell>
        <mxCell id="DaSMT_uNDwRVqXkCBsfM-29" value="Mongo" style="html=1;shadow=1;" parent="1" vertex="1">
          <mxGeometry x="660" y="640" width="110" height="50" as="geometry" />
        </mxCell>
        <mxCell id="DaSMT_uNDwRVqXkCBsfM-30" value="MongoCityRepository" style="html=1;shadow=1;" parent="1" vertex="1">
          <mxGeometry x="410" y="640" width="140" height="50" as="geometry" />
        </mxCell>
        <mxCell id="DaSMT_uNDwRVqXkCBsfM-31" value="Use" style="endArrow=open;endSize=12;dashed=1;html=1;rounded=0;exitX=1;exitY=0.5;exitDx=0;exitDy=0;" parent="1" source="DaSMT_uNDwRVqXkCBsfM-30" target="DaSMT_uNDwRVqXkCBsfM-29" edge="1">
          <mxGeometry width="160" relative="1" as="geometry">
            <mxPoint x="275" y="600" as="sourcePoint" />
            <mxPoint x="275" y="650" as="targetPoint" />
          </mxGeometry>
        </mxCell>
        <mxCell id="DaSMT_uNDwRVqXkCBsfM-32" value="" style="endArrow=block;dashed=1;endFill=0;endSize=12;html=1;rounded=1;exitX=0;exitY=0.5;exitDx=0;exitDy=0;edgeStyle=orthogonalEdgeStyle;" parent="1" source="DaSMT_uNDwRVqXkCBsfM-30" target="DaSMT_uNDwRVqXkCBsfM-7" edge="1">
          <mxGeometry width="160" relative="1" as="geometry">
            <mxPoint x="380" y="645" as="sourcePoint" />
            <mxPoint x="290" y="645" as="targetPoint" />
          </mxGeometry>
        </mxCell>
        <mxCell id="DaSMT_uNDwRVqXkCBsfM-36" value="cities.inmemory" style="shape=module;align=left;spacingLeft=20;align=center;verticalAlign=top;shadow=1;fillColor=#dae8fc;strokeColor=#6c8ebf;gradientDirection=east;" parent="1" vertex="1">
          <mxGeometry x="120" y="760" width="180" height="100" as="geometry" />
        </mxCell>
        <mxCell id="DaSMT_uNDwRVqXkCBsfM-39" value="InMemoryCityRepository" style="html=1;shadow=1;" parent="1" vertex="1">
          <mxGeometry x="150" y="790" width="140" height="50" as="geometry" />
        </mxCell>
        <mxCell id="DaSMT_uNDwRVqXkCBsfM-41" value="cities.testing" style="shape=module;align=left;spacingLeft=20;align=center;verticalAlign=top;shadow=1;fillColor=#dae8fc;strokeColor=#6c8ebf;gradientDirection=east;" parent="1" vertex="1">
          <mxGeometry x="120" y="880" width="180" height="100" as="geometry" />
        </mxCell>
        <mxCell id="DaSMT_uNDwRVqXkCBsfM-42" value="ForTestCityRepository" style="html=1;shadow=1;fillColor=#d5e8d4;strokeColor=#82b366;" parent="1" vertex="1">
          <mxGeometry x="150" y="910" width="140" height="50" as="geometry" />
        </mxCell>
        <mxCell id="DaSMT_uNDwRVqXkCBsfM-43" value="" style="endArrow=block;dashed=1;endFill=0;endSize=12;html=1;edgeStyle=orthogonalEdgeStyle;entryX=0.5;entryY=1;entryDx=0;entryDy=0;exitX=1;exitY=0.5;exitDx=0;exitDy=0;rounded=1;" parent="1" source="DaSMT_uNDwRVqXkCBsfM-39" target="DaSMT_uNDwRVqXkCBsfM-7" edge="1">
          <mxGeometry width="160" relative="1" as="geometry">
            <mxPoint x="420" y="675" as="sourcePoint" />
            <mxPoint x="285" y="645" as="targetPoint" />
            <Array as="points">
              <mxPoint x="310" y="815" />
              <mxPoint x="310" y="725" />
              <mxPoint x="220" y="725" />
            </Array>
          </mxGeometry>
        </mxCell>
        <mxCell id="DaSMT_uNDwRVqXkCBsfM-44" value="" style="endArrow=block;dashed=1;endFill=0;endSize=12;html=1;edgeStyle=orthogonalEdgeStyle;exitX=1;exitY=0.5;exitDx=0;exitDy=0;entryX=0.75;entryY=1;entryDx=0;entryDy=0;rounded=1;" parent="1" source="DaSMT_uNDwRVqXkCBsfM-42" target="DaSMT_uNDwRVqXkCBsfM-7" edge="1">
          <mxGeometry width="160" relative="1" as="geometry">
            <mxPoint x="230" y="760" as="sourcePoint" />
            <mxPoint x="230" y="670" as="targetPoint" />
            <Array as="points">
              <mxPoint x="330" y="935" />
              <mxPoint x="330" y="700" />
              <mxPoint x="248" y="700" />
            </Array>
          </mxGeometry>
        </mxCell>
        <mxCell id="VH-Dg-llkLFxNwHJI8jG-2" value="cities.services" style="shape=module;align=left;spacingLeft=20;align=center;verticalAlign=top;shadow=1;fillColor=#dae8fc;strokeColor=#6c8ebf;gradientDirection=east;" vertex="1" parent="1">
          <mxGeometry x="1640" y="500" width="160" height="200" as="geometry" />
        </mxCell>
        <mxCell id="VH-Dg-llkLFxNwHJI8jG-3" value="«interface»&lt;br&gt;&lt;b&gt;CityRepository&lt;/b&gt;" style="html=1;" vertex="1" parent="1">
          <mxGeometry x="1675" y="630" width="110" height="50" as="geometry" />
        </mxCell>
        <mxCell id="VH-Dg-llkLFxNwHJI8jG-4" value="CityService" style="html=1;shadow=1;" vertex="1" parent="1">
          <mxGeometry x="1675" y="530" width="110" height="50" as="geometry" />
        </mxCell>
        <mxCell id="VH-Dg-llkLFxNwHJI8jG-7" value="Use" style="endArrow=open;endSize=12;dashed=1;html=1;rounded=0;" edge="1" source="VH-Dg-llkLFxNwHJI8jG-4" target="VH-Dg-llkLFxNwHJI8jG-3" parent="1">
          <mxGeometry width="160" relative="1" as="geometry">
            <mxPoint x="1830" y="770" as="sourcePoint" />
            <mxPoint x="1990" y="770" as="targetPoint" />
          </mxGeometry>
        </mxCell>
        <mxCell id="VH-Dg-llkLFxNwHJI8jG-17" value="cities.inmemory" style="shape=module;align=left;spacingLeft=20;align=center;verticalAlign=top;shadow=1;fillColor=#dae8fc;strokeColor=#6c8ebf;gradientDirection=east;" vertex="1" parent="1">
          <mxGeometry x="1880" y="600" width="180" height="100" as="geometry" />
        </mxCell>
        <mxCell id="VH-Dg-llkLFxNwHJI8jG-18" value="InMemoryCityRepository" style="html=1;shadow=1;" vertex="1" parent="1">
          <mxGeometry x="1910" y="630" width="140" height="50" as="geometry" />
        </mxCell>
        <mxCell id="VH-Dg-llkLFxNwHJI8jG-21" value="" style="endArrow=block;dashed=1;endFill=0;endSize=12;html=1;edgeStyle=orthogonalEdgeStyle;entryX=1;entryY=0.5;entryDx=0;entryDy=0;exitX=0;exitY=0.5;exitDx=0;exitDy=0;rounded=1;" edge="1" source="VH-Dg-llkLFxNwHJI8jG-18" target="VH-Dg-llkLFxNwHJI8jG-3" parent="1">
          <mxGeometry width="160" relative="1" as="geometry">
            <mxPoint x="1920" y="695" as="sourcePoint" />
            <mxPoint x="1785" y="665" as="targetPoint" />
            <Array as="points">
              <mxPoint x="1860" y="655" />
              <mxPoint x="1860" y="655" />
            </Array>
          </mxGeometry>
        </mxCell>
        <mxCell id="VH-Dg-llkLFxNwHJI8jG-24" value="MergeView" style="html=1;shadow=1;" vertex="1" parent="1">
          <mxGeometry x="1290" y="530" width="110" height="50" as="geometry" />
        </mxCell>
        <mxCell id="VH-Dg-llkLFxNwHJI8jG-25" value="CityController" style="html=1;shadow=1;" vertex="1" parent="1">
          <mxGeometry x="1480" y="530" width="110" height="50" as="geometry" />
        </mxCell>
        <mxCell id="VH-Dg-llkLFxNwHJI8jG-26" value="Use" style="endArrow=open;endSize=12;dashed=1;html=1;rounded=0;entryX=0;entryY=0.5;entryDx=0;entryDy=0;exitX=1;exitY=0.5;exitDx=0;exitDy=0;" edge="1" parent="1" source="VH-Dg-llkLFxNwHJI8jG-25" target="VH-Dg-llkLFxNwHJI8jG-4">
          <mxGeometry width="160" relative="1" as="geometry">
            <mxPoint x="1800" y="670" as="sourcePoint" />
            <mxPoint x="1960" y="670" as="targetPoint" />
          </mxGeometry>
        </mxCell>
        <mxCell id="VH-Dg-llkLFxNwHJI8jG-27" value="Use" style="endArrow=open;endSize=12;dashed=1;html=1;rounded=0;entryX=0;entryY=0.5;entryDx=0;entryDy=0;" edge="1" parent="1" source="VH-Dg-llkLFxNwHJI8jG-24" target="VH-Dg-llkLFxNwHJI8jG-25">
          <mxGeometry width="160" relative="1" as="geometry">
            <mxPoint x="1800" y="670" as="sourcePoint" />
            <mxPoint x="1960" y="670" as="targetPoint" />
          </mxGeometry>
        </mxCell>
        <mxCell id="VH-Dg-llkLFxNwHJI8jG-30" value="Client" style="shape=umlActor;verticalLabelPosition=bottom;verticalAlign=top;html=1;" vertex="1" parent="1">
          <mxGeometry x="1150" y="520" width="30" height="60" as="geometry" />
        </mxCell>
        <mxCell id="VH-Dg-llkLFxNwHJI8jG-33" style="edgeStyle=orthogonalEdgeStyle;rounded=0;orthogonalLoop=1;jettySize=auto;html=1;entryX=0.5;entryY=0;entryDx=0;entryDy=0;" edge="1" parent="1" source="VH-Dg-llkLFxNwHJI8jG-32" target="VH-Dg-llkLFxNwHJI8jG-17">
          <mxGeometry relative="1" as="geometry" />
        </mxCell>
        <mxCell id="VH-Dg-llkLFxNwHJI8jG-32" value="Fake data loaded" style="text;html=1;strokeColor=none;fillColor=none;align=center;verticalAlign=middle;whiteSpace=wrap;rounded=0;fontSize=14;fontStyle=2" vertex="1" parent="1">
          <mxGeometry x="1910" y="510" width="120" height="30" as="geometry" />
        </mxCell>
      </root>
    </mxGraphModel>
  </diagram>
  <diagram id="D7VENlOxp4M0GF850NgO" name="Mikado">
    <mxGraphModel dx="3781" dy="2372" grid="1" gridSize="10" guides="1" tooltips="1" connect="1" arrows="1" fold="1" page="1" pageScale="1" pageWidth="827" pageHeight="1169" math="0" shadow="0">
      <root>
        <mxCell id="0" />
        <mxCell id="1" parent="0" />
        <mxCell id="9_wGiJuZxR0KPFiK3doz-3" value="" style="edgeStyle=orthogonalEdgeStyle;rounded=0;orthogonalLoop=1;jettySize=auto;html=1;" edge="1" parent="1" source="9_wGiJuZxR0KPFiK3doz-1" target="9_wGiJuZxR0KPFiK3doz-2">
          <mxGeometry relative="1" as="geometry" />
        </mxCell>
        <mxCell id="9_wGiJuZxR0KPFiK3doz-1" value="Se focaliser sur le sujet" style="rounded=1;whiteSpace=wrap;html=1;fillColor=#e1d5e7;strokeColor=#9673a6;shadow=1;" vertex="1" parent="1">
          <mxGeometry x="-360" y="-90" width="120" height="60" as="geometry" />
        </mxCell>
        <mxCell id="9_wGiJuZxR0KPFiK3doz-5" value="" style="edgeStyle=orthogonalEdgeStyle;rounded=0;orthogonalLoop=1;jettySize=auto;html=1;" edge="1" parent="1" source="9_wGiJuZxR0KPFiK3doz-2" target="9_wGiJuZxR0KPFiK3doz-4">
          <mxGeometry relative="1" as="geometry" />
        </mxCell>
        <mxCell id="9_wGiJuZxR0KPFiK3doz-2" value="Modifier naïvement&lt;br&gt;&amp;nbsp;le code" style="rounded=1;whiteSpace=wrap;html=1;fillColor=#d5e8d4;strokeColor=#82b366;shadow=1;" vertex="1" parent="1">
          <mxGeometry x="-190" y="-90" width="120" height="60" as="geometry" />
        </mxCell>
        <mxCell id="9_wGiJuZxR0KPFiK3doz-7" value="Oui" style="edgeStyle=orthogonalEdgeStyle;rounded=0;orthogonalLoop=1;jettySize=auto;html=1;" edge="1" parent="1" source="9_wGiJuZxR0KPFiK3doz-4" target="9_wGiJuZxR0KPFiK3doz-6">
          <mxGeometry relative="1" as="geometry" />
        </mxCell>
        <mxCell id="9_wGiJuZxR0KPFiK3doz-9" value="" style="edgeStyle=orthogonalEdgeStyle;rounded=0;orthogonalLoop=1;jettySize=auto;html=1;" edge="1" parent="1" source="9_wGiJuZxR0KPFiK3doz-4" target="9_wGiJuZxR0KPFiK3doz-8">
          <mxGeometry relative="1" as="geometry" />
        </mxCell>
        <mxCell id="9_wGiJuZxR0KPFiK3doz-10" value="Non" style="edgeLabel;html=1;align=center;verticalAlign=middle;resizable=0;points=[];" vertex="1" connectable="0" parent="9_wGiJuZxR0KPFiK3doz-9">
          <mxGeometry x="-0.1" y="2" relative="1" as="geometry">
            <mxPoint as="offset" />
          </mxGeometry>
        </mxCell>
        <mxCell id="9_wGiJuZxR0KPFiK3doz-4" value="Est-ce que le code fonctionne ?" style="whiteSpace=wrap;html=1;rounded=1;fillColor=#f8cecc;strokeColor=#b85450;shadow=1;" vertex="1" parent="1">
          <mxGeometry x="-30" y="-90" width="120" height="60" as="geometry" />
        </mxCell>
        <mxCell id="9_wGiJuZxR0KPFiK3doz-12" value="" style="edgeStyle=orthogonalEdgeStyle;rounded=0;orthogonalLoop=1;jettySize=auto;html=1;" edge="1" parent="1" source="9_wGiJuZxR0KPFiK3doz-6" target="9_wGiJuZxR0KPFiK3doz-11">
          <mxGeometry relative="1" as="geometry" />
        </mxCell>
        <mxCell id="9_wGiJuZxR0KPFiK3doz-13" value="Oui" style="edgeLabel;html=1;align=center;verticalAlign=middle;resizable=0;points=[];" vertex="1" connectable="0" parent="9_wGiJuZxR0KPFiK3doz-12">
          <mxGeometry x="-0.1" relative="1" as="geometry">
            <mxPoint as="offset" />
          </mxGeometry>
        </mxCell>
        <mxCell id="9_wGiJuZxR0KPFiK3doz-39" value="Non" style="edgeStyle=orthogonalEdgeStyle;rounded=1;orthogonalLoop=1;jettySize=auto;html=1;entryX=0.5;entryY=1;entryDx=0;entryDy=0;exitX=0.5;exitY=1;exitDx=0;exitDy=0;" edge="1" parent="1" source="9_wGiJuZxR0KPFiK3doz-6" target="9_wGiJuZxR0KPFiK3doz-22">
          <mxGeometry x="-0.907" relative="1" as="geometry">
            <Array as="points">
              <mxPoint x="220" y="270" />
              <mxPoint x="-300" y="270" />
            </Array>
            <mxPoint as="offset" />
          </mxGeometry>
        </mxCell>
        <mxCell id="9_wGiJuZxR0KPFiK3doz-6" value="Est-ce que les tests passent ?" style="whiteSpace=wrap;html=1;rounded=1;fillColor=#f8cecc;strokeColor=#b85450;shadow=1;" vertex="1" parent="1">
          <mxGeometry x="160" y="-90" width="120" height="60" as="geometry" />
        </mxCell>
        <mxCell id="9_wGiJuZxR0KPFiK3doz-19" value="" style="edgeStyle=orthogonalEdgeStyle;rounded=0;orthogonalLoop=1;jettySize=auto;html=1;" edge="1" parent="1" source="9_wGiJuZxR0KPFiK3doz-8" target="9_wGiJuZxR0KPFiK3doz-18">
          <mxGeometry relative="1" as="geometry" />
        </mxCell>
        <mxCell id="9_wGiJuZxR0KPFiK3doz-8" value="Trouver une solution naïve aux erreurs" style="whiteSpace=wrap;html=1;rounded=1;fillColor=#dae8fc;strokeColor=#6c8ebf;shadow=1;" vertex="1" parent="1">
          <mxGeometry x="-30" y="50" width="120" height="60" as="geometry" />
        </mxCell>
        <mxCell id="9_wGiJuZxR0KPFiK3doz-37" value="" style="edgeStyle=orthogonalEdgeStyle;rounded=1;orthogonalLoop=1;jettySize=auto;html=1;exitX=0.5;exitY=0;exitDx=0;exitDy=0;" edge="1" parent="1" source="9_wGiJuZxR0KPFiK3doz-11" target="9_wGiJuZxR0KPFiK3doz-36">
          <mxGeometry relative="1" as="geometry">
            <Array as="points">
              <mxPoint x="430" y="-210" />
            </Array>
          </mxGeometry>
        </mxCell>
        <mxCell id="9_wGiJuZxR0KPFiK3doz-11" value="Commiter" style="whiteSpace=wrap;html=1;rounded=1;fillColor=#ffe6cc;strokeColor=#d79b00;shadow=1;" vertex="1" parent="1">
          <mxGeometry x="370" y="-90" width="120" height="60" as="geometry" />
        </mxCell>
        <mxCell id="9_wGiJuZxR0KPFiK3doz-21" value="" style="edgeStyle=orthogonalEdgeStyle;rounded=0;orthogonalLoop=1;jettySize=auto;html=1;" edge="1" parent="1" source="9_wGiJuZxR0KPFiK3doz-18" target="9_wGiJuZxR0KPFiK3doz-20">
          <mxGeometry relative="1" as="geometry" />
        </mxCell>
        <mxCell id="9_wGiJuZxR0KPFiK3doz-18" value="Noter la solution comme un prè-requis" style="whiteSpace=wrap;html=1;rounded=1;fillColor=#dae8fc;strokeColor=#6c8ebf;shadow=1;" vertex="1" parent="1">
          <mxGeometry x="-30" y="170" width="120" height="60" as="geometry" />
        </mxCell>
        <mxCell id="9_wGiJuZxR0KPFiK3doz-23" value="" style="edgeStyle=orthogonalEdgeStyle;rounded=0;orthogonalLoop=1;jettySize=auto;html=1;" edge="1" parent="1" source="9_wGiJuZxR0KPFiK3doz-20" target="9_wGiJuZxR0KPFiK3doz-22">
          <mxGeometry relative="1" as="geometry" />
        </mxCell>
        <mxCell id="9_wGiJuZxR0KPFiK3doz-20" value="Annuler les modifications" style="whiteSpace=wrap;html=1;rounded=1;fillColor=#ffe6cc;strokeColor=#d79b00;shadow=1;" vertex="1" parent="1">
          <mxGeometry x="-190" y="170" width="120" height="60" as="geometry" />
        </mxCell>
        <mxCell id="9_wGiJuZxR0KPFiK3doz-32" style="edgeStyle=orthogonalEdgeStyle;rounded=1;orthogonalLoop=1;jettySize=auto;html=1;exitX=0.5;exitY=0;exitDx=0;exitDy=0;" edge="1" parent="1" source="9_wGiJuZxR0KPFiK3doz-22">
          <mxGeometry relative="1" as="geometry">
            <mxPoint x="-300" y="-30" as="targetPoint" />
            <Array as="points">
              <mxPoint x="-300" y="140" />
              <mxPoint x="-300" y="140" />
            </Array>
          </mxGeometry>
        </mxCell>
        <mxCell id="9_wGiJuZxR0KPFiK3doz-22" value="Choisir le pré-requis&amp;nbsp; suivant comme sujet" style="whiteSpace=wrap;html=1;rounded=1;fillColor=#e1d5e7;strokeColor=#9673a6;shadow=1;" vertex="1" parent="1">
          <mxGeometry x="-360" y="170" width="120" height="60" as="geometry" />
        </mxCell>
        <mxCell id="9_wGiJuZxR0KPFiK3doz-30" value="" style="edgeStyle=orthogonalEdgeStyle;rounded=0;orthogonalLoop=1;jettySize=auto;html=1;" edge="1" parent="1" source="9_wGiJuZxR0KPFiK3doz-26" target="9_wGiJuZxR0KPFiK3doz-29">
          <mxGeometry relative="1" as="geometry" />
        </mxCell>
        <mxCell id="9_wGiJuZxR0KPFiK3doz-26" value="Définir l&#39;objectif du refactoring" style="rounded=1;whiteSpace=wrap;html=1;fillColor=#647687;fontColor=#ffffff;strokeColor=#314354;shadow=1;" vertex="1" parent="1">
          <mxGeometry x="-570" y="-200" width="120" height="60" as="geometry" />
        </mxCell>
        <mxCell id="9_wGiJuZxR0KPFiK3doz-31" style="edgeStyle=orthogonalEdgeStyle;rounded=0;orthogonalLoop=1;jettySize=auto;html=1;" edge="1" parent="1" source="9_wGiJuZxR0KPFiK3doz-29">
          <mxGeometry relative="1" as="geometry">
            <mxPoint x="-360" y="-60" as="targetPoint" />
          </mxGeometry>
        </mxCell>
        <mxCell id="9_wGiJuZxR0KPFiK3doz-29" value="Choisir l&#39;objectif final comme sujet" style="rounded=1;whiteSpace=wrap;html=1;fillColor=#e1d5e7;strokeColor=#9673a6;shadow=1;" vertex="1" parent="1">
          <mxGeometry x="-570" y="-90" width="120" height="60" as="geometry" />
        </mxCell>
        <mxCell id="9_wGiJuZxR0KPFiK3doz-38" style="edgeStyle=orthogonalEdgeStyle;rounded=1;orthogonalLoop=1;jettySize=auto;html=1;entryX=0.5;entryY=0;entryDx=0;entryDy=0;" edge="1" parent="1" source="9_wGiJuZxR0KPFiK3doz-36" target="9_wGiJuZxR0KPFiK3doz-1">
          <mxGeometry relative="1" as="geometry">
            <Array as="points">
              <mxPoint x="-300" y="-210" />
            </Array>
          </mxGeometry>
        </mxCell>
        <mxCell id="9_wGiJuZxR0KPFiK3doz-36" value="Revenir au sujet précédent" style="whiteSpace=wrap;html=1;rounded=1;fillColor=#e1d5e7;strokeColor=#9673a6;shadow=1;" vertex="1" parent="1">
          <mxGeometry x="-20" y="-240" width="120" height="60" as="geometry" />
        </mxCell>
        <mxCell id="9_wGiJuZxR0KPFiK3doz-40" value="Le code est fonctionnel" style="ellipse;whiteSpace=wrap;html=1;shadow=1;" vertex="1" parent="1">
          <mxGeometry x="440" y="-40" width="120" height="60" as="geometry" />
        </mxCell>
        <mxCell id="9_wGiJuZxR0KPFiK3doz-41" value="Approfondir" style="ellipse;whiteSpace=wrap;html=1;shadow=1;" vertex="1" parent="1">
          <mxGeometry x="200" y="110" width="120" height="60" as="geometry" />
        </mxCell>
        <mxCell id="9_wGiJuZxR0KPFiK3doz-42" value="git reset" style="ellipse;whiteSpace=wrap;html=1;shadow=1;fillColor=#f5f5f5;fontColor=#333333;strokeColor=#666666;" vertex="1" parent="1">
          <mxGeometry x="-240" y="120" width="120" height="60" as="geometry" />
        </mxCell>
        <mxCell id="9_wGiJuZxR0KPFiK3doz-43" value="git commit" style="ellipse;whiteSpace=wrap;html=1;shadow=1;fillColor=#f5f5f5;fontColor=#333333;strokeColor=#666666;" vertex="1" parent="1">
          <mxGeometry x="440" y="-140" width="120" height="60" as="geometry" />
        </mxCell>
      </root>
    </mxGraphModel>
  </diagram>
</mxfile>
